<svg width="71" height="51" viewBox="0 0 71 51" fill="none" xmlns="http://www.w3.org/2000/svg">
<mask id="path-1-inside-1_3633_8168" fill="white">
<path d="M15.1875 0.3125C23.5723 0.3125 30.375 7.11523 30.375 15.5V30.6875C30.375 41.9199 21.1992 50.9375 10.125 50.9375C7.27734 50.9375 5.0625 48.7227 5.0625 45.875C5.0625 43.1855 7.27734 40.8125 10.125 40.8125C15.6621 40.8125 20.25 36.3828 20.25 30.6875V29.8965C18.5098 30.3711 16.9277 30.6875 15.1875 30.6875C6.64453 30.6875 0 24.043 0 15.5C0 7.11523 6.64453 0.3125 15.1875 0.3125ZM70.875 15.5V30.6875C70.875 41.9199 61.6992 50.9375 50.625 50.9375C47.7773 50.9375 45.5625 48.7227 45.5625 45.875C45.5625 43.1855 47.7773 40.8125 50.625 40.8125C56.1621 40.8125 60.75 36.3828 60.75 30.6875V29.8965C59.0098 30.3711 57.4277 30.6875 55.6875 30.6875C47.1445 30.6875 40.5 24.043 40.5 15.5C40.5 7.11523 47.1445 0.3125 55.6875 0.3125C64.0723 0.3125 70.875 7.11523 70.875 15.5Z"/>
</mask>
<path d="M20.25 29.8965H23.25V25.9687L19.4606 27.0022L20.25 29.8965ZM60.75 29.8965H63.75V25.9687L59.9606 27.0022L60.75 29.8965ZM15.1875 3.3125C21.9154 3.3125 27.375 8.77209 27.375 15.5H33.375C33.375 5.45838 25.2291 -2.6875 15.1875 -2.6875V3.3125ZM27.375 15.5V30.6875H33.375V15.5H27.375ZM27.375 30.6875C27.375 40.2478 19.5576 47.9375 10.125 47.9375V53.9375C22.8408 53.9375 33.375 43.592 33.375 30.6875H27.375ZM10.125 47.9375C8.9342 47.9375 8.0625 47.0658 8.0625 45.875H2.0625C2.0625 50.3795 5.62049 53.9375 10.125 53.9375V47.9375ZM8.0625 45.875C8.0625 44.7812 8.99469 43.8125 10.125 43.8125V37.8125C5.55999 37.8125 2.0625 41.5898 2.0625 45.875H8.0625ZM10.125 43.8125C17.2883 43.8125 23.25 38.0702 23.25 30.6875H17.25C17.25 34.6955 14.0359 37.8125 10.125 37.8125V43.8125ZM23.25 30.6875V29.8965H17.25V30.6875H23.25ZM19.4606 27.0022C17.8381 27.4447 16.5473 27.6875 15.1875 27.6875V33.6875C17.3081 33.6875 19.1814 33.2975 21.0394 32.7908L19.4606 27.0022ZM15.1875 27.6875C8.30139 27.6875 3 22.3861 3 15.5H-3C-3 25.6998 4.98768 33.6875 15.1875 33.6875V27.6875ZM3 15.5C3 8.75163 8.32177 3.3125 15.1875 3.3125V-2.6875C4.96729 -2.6875 -3 5.47884 -3 15.5H3ZM67.875 15.5V30.6875H73.875V15.5H67.875ZM67.875 30.6875C67.875 40.2478 60.0576 47.9375 50.625 47.9375V53.9375C63.3408 53.9375 73.875 43.592 73.875 30.6875H67.875ZM50.625 47.9375C49.4342 47.9375 48.5625 47.0658 48.5625 45.875H42.5625C42.5625 50.3795 46.1205 53.9375 50.625 53.9375V47.9375ZM48.5625 45.875C48.5625 44.7812 49.4947 43.8125 50.625 43.8125V37.8125C46.06 37.8125 42.5625 41.5898 42.5625 45.875H48.5625ZM50.625 43.8125C57.7883 43.8125 63.75 38.0702 63.75 30.6875H57.75C57.75 34.6955 54.5359 37.8125 50.625 37.8125V43.8125ZM63.75 30.6875V29.8965H57.75V30.6875H63.75ZM59.9606 27.0022C58.3381 27.4447 57.0473 27.6875 55.6875 27.6875V33.6875C57.8081 33.6875 59.6814 33.2975 61.5394 32.7908L59.9606 27.0022ZM55.6875 27.6875C48.8014 27.6875 43.5 22.3861 43.5 15.5H37.5C37.5 25.6998 45.4877 33.6875 55.6875 33.6875V27.6875ZM43.5 15.5C43.5 8.75163 48.8218 3.3125 55.6875 3.3125V-2.6875C45.4673 -2.6875 37.5 5.47884 37.5 15.5H43.5ZM55.6875 3.3125C62.4154 3.3125 67.875 8.77209 67.875 15.5H73.875C73.875 5.45838 65.7291 -2.6875 55.6875 -2.6875V3.3125Z" fill="url(#paint0_linear_3633_8168)" mask="url(#path-1-inside-1_3633_8168)"/>
<defs>
<linearGradient id="paint0_linear_3633_8168" x1="-0.449702" y1="14.118" x2="71.784" y2="15.2336" gradientUnits="userSpaceOnUse">
<stop stop-color="#351EE0"/>
<stop offset="1" stop-color="#3F74EF"/>
</linearGradient>
</defs>
</svg>
