<svg width="71" height="51" viewBox="0 0 71 51" fill="none" xmlns="http://www.w3.org/2000/svg">
<mask id="path-1-inside-1_152_321" fill="white">
<path d="M55.8125 0.3125C47.4277 0.3125 40.625 7.11523 40.625 15.5V30.6875C40.625 41.9199 49.8008 50.9375 60.875 50.9375C63.7227 50.9375 65.9375 48.7227 65.9375 45.875C65.9375 43.1855 63.7227 40.8125 60.875 40.8125C55.3379 40.8125 50.75 36.3828 50.75 30.6875V29.8965C52.4902 30.3711 54.0723 30.6875 55.8125 30.6875C64.3555 30.6875 71 24.043 71 15.5C71 7.11523 64.3555 0.3125 55.8125 0.3125ZM0.125 15.5V30.6875C0.125 41.9199 9.30078 50.9375 20.375 50.9375C23.2227 50.9375 25.4375 48.7227 25.4375 45.875C25.4375 43.1855 23.2227 40.8125 20.375 40.8125C14.8379 40.8125 10.25 36.3828 10.25 30.6875V29.8965C11.9902 30.3711 13.5723 30.6875 15.3125 30.6875C23.8555 30.6875 30.5 24.043 30.5 15.5C30.5 7.11523 23.8555 0.3125 15.3125 0.3125C6.92773 0.3125 0.125 7.11523 0.125 15.5Z"/>
</mask>
<path d="M50.75 29.8965H47.75V25.9687L51.5394 27.0022L50.75 29.8965ZM10.25 29.8965H7.25V25.9687L11.0394 27.0022L10.25 29.8965ZM55.8125 3.3125C49.0846 3.3125 43.625 8.77209 43.625 15.5H37.625C37.625 5.45838 45.7709 -2.6875 55.8125 -2.6875V3.3125ZM43.625 15.5V30.6875H37.625V15.5H43.625ZM43.625 30.6875C43.625 40.2478 51.4424 47.9375 60.875 47.9375V53.9375C48.1592 53.9375 37.625 43.592 37.625 30.6875H43.625ZM60.875 47.9375C62.0658 47.9375 62.9375 47.0658 62.9375 45.875H68.9375C68.9375 50.3795 65.3795 53.9375 60.875 53.9375V47.9375ZM62.9375 45.875C62.9375 44.7812 62.0053 43.8125 60.875 43.8125V37.8125C65.44 37.8125 68.9375 41.5898 68.9375 45.875H62.9375ZM60.875 43.8125C53.7117 43.8125 47.75 38.0702 47.75 30.6875H53.75C53.75 34.6955 56.9641 37.8125 60.875 37.8125V43.8125ZM47.75 30.6875V29.8965H53.75V30.6875H47.75ZM51.5394 27.0022C53.1619 27.4447 54.4527 27.6875 55.8125 27.6875V33.6875C53.6919 33.6875 51.8186 33.2975 49.9606 32.7908L51.5394 27.0022ZM55.8125 27.6875C62.6986 27.6875 68 22.3861 68 15.5H74C74 25.6998 66.0123 33.6875 55.8125 33.6875V27.6875ZM68 15.5C68 8.75163 62.6782 3.3125 55.8125 3.3125V-2.6875C66.0327 -2.6875 74 5.47884 74 15.5H68ZM3.125 15.5V30.6875H-2.875V15.5H3.125ZM3.125 30.6875C3.125 40.2478 10.9424 47.9375 20.375 47.9375V53.9375C7.65919 53.9375 -2.875 43.592 -2.875 30.6875H3.125ZM20.375 47.9375C21.5658 47.9375 22.4375 47.0658 22.4375 45.875H28.4375C28.4375 50.3795 24.8795 53.9375 20.375 53.9375V47.9375ZM22.4375 45.875C22.4375 44.7812 21.5053 43.8125 20.375 43.8125V37.8125C24.94 37.8125 28.4375 41.5898 28.4375 45.875H22.4375ZM20.375 43.8125C13.2117 43.8125 7.25 38.0702 7.25 30.6875H13.25C13.25 34.6955 16.4641 37.8125 20.375 37.8125V43.8125ZM7.25 30.6875V29.8965H13.25V30.6875H7.25ZM11.0394 27.0022C12.6619 27.4447 13.9527 27.6875 15.3125 27.6875V33.6875C13.1919 33.6875 11.3186 33.2975 9.46065 32.7908L11.0394 27.0022ZM15.3125 27.6875C22.1986 27.6875 27.5 22.3861 27.5 15.5H33.5C33.5 25.6998 25.5123 33.6875 15.3125 33.6875V27.6875ZM27.5 15.5C27.5 8.75163 22.1782 3.3125 15.3125 3.3125V-2.6875C25.5327 -2.6875 33.5 5.47884 33.5 15.5H27.5ZM15.3125 3.3125C8.58459 3.3125 3.125 8.77209 3.125 15.5H-2.875C-2.875 5.45838 5.27088 -2.6875 15.3125 -2.6875V3.3125Z" fill="url(#paint0_linear_152_321)" mask="url(#path-1-inside-1_152_321)"/>
<defs>
<linearGradient id="paint0_linear_152_321" x1="71.4497" y1="14.118" x2="-0.784045" y2="15.2336" gradientUnits="userSpaceOnUse">
<stop stop-color="#351EE0"/>
<stop offset="1" stop-color="#3F74EF"/>
</linearGradient>
</defs>
</svg>
