<svg width="430" height="305" viewBox="0 0 430 305" fill="none" xmlns="http://www.w3.org/2000/svg">
<path fill-rule="evenodd" clip-rule="evenodd" d="M214.516 286C332.99 286 429.031 290.203 429.031 295.388C429.031 300.574 332.99 304.777 214.516 304.777C96.0424 304.777 0 300.574 0 295.388C0 290.203 96.0422 286 214.516 286Z" fill="#686868"/>
<path fill-rule="evenodd" clip-rule="evenodd" d="M215.518 287.101C265.415 287.101 311.335 287.845 347.777 289.095C436.954 238.159 406.074 138.87 374.054 82.7081C329.492 4.5465 224.189 -23.5466 180.635 38.8168C121.515 123.463 64.4825 93.9245 33.6878 158.213C2.89327 222.499 49.6599 284.128 83.259 289.095C119.699 287.845 165.619 287.101 215.518 287.101ZM137.379 70.3469C114.554 87.7061 76.7993 101.16 64.2607 82.7026C54.8942 68.9144 66.4328 43.0428 89.0292 23.4277C111.612 3.82575 141.867 -8.03973 158.356 6.39578C177.926 23.5222 154.957 56.9769 137.379 70.3469Z" fill="#E9EFF8"/>
<path fill-rule="evenodd" clip-rule="evenodd" d="M284.693 27.9426C338.269 39.8706 372.363 89.108 375.703 112.879C377.073 122.633 374.533 99.8061 347.202 79.0216C322.776 60.4454 303.761 57.003 274.701 54.7586C254.165 53.1728 232.661 50.65 234.19 38.4119C235.396 28.7449 250.103 20.2423 284.693 27.9426ZM144.598 8.02852C153.822 8.58296 159.435 16.151 159.822 24.8789C159.986 28.5917 157.068 18.8837 146.844 17.5323C140.501 16.6959 139.547 18.5619 137.274 15.9466C135.002 13.3311 137.161 7.58182 144.598 8.02852Z" fill="white"/>
<path fill-rule="evenodd" clip-rule="evenodd" d="M77.337 265.465C74.8903 262.405 71.4473 259.876 70.4381 256.092C69.245 251.625 71.8716 246.923 71.2203 242.347C70.4041 236.586 64.8516 232.852 61.8367 227.873C58.8862 222.998 60.2687 221.358 59.9998 215.667C59.5945 207.09 52.5572 196.266 43.1775 199.169C33.6575 202.121 35.2124 210.966 36.8865 217.62C38.0815 222.359 37.3013 223.04 36.1424 227.788C34.741 233.522 30.2224 239.065 32.1106 244.659C33.279 248.117 36.6728 250.452 37.8998 253.891C39.2917 257.785 37.6063 262.011 36.9587 266.097C35.5933 274.7 37.5533 281.853 43.8064 288.957C44.4788 289.595 45.1776 290.189 45.9009 290.738C54.6615 290.244 64.5185 289.788 75.3244 289.379L75.4038 289.294C81.1263 283.051 82.8346 272.338 77.337 265.465Z" fill="#D0D9EE"/>
<path fill-rule="evenodd" clip-rule="evenodd" d="M47.4987 206.917C47.3491 206.529 46.9154 206.336 46.5272 206.483C46.139 206.631 45.9457 207.066 46.0937 207.454C46.8378 209.397 47.4627 211.434 47.9969 213.551C47.7828 213.357 47.5594 213.166 47.3285 212.982C46.3076 212.161 45.1486 211.445 43.8515 210.832C43.4748 210.654 43.0278 210.815 42.8499 211.19C42.6737 211.566 42.8346 212.013 43.2095 212.191C44.4026 212.753 45.4612 213.408 46.391 214.154C47.2697 214.859 48.0328 215.65 48.6824 216.523C49.6425 221.112 50.2713 226.045 50.8394 231.248C49.9664 229.895 49.0365 228.68 48.0479 227.605C46.3284 225.737 44.427 224.287 42.3401 223.254C41.9689 223.071 41.5182 223.222 41.3345 223.593C41.1508 223.966 41.3023 224.416 41.6735 224.598C43.5862 225.546 45.3417 226.887 46.94 228.625C48.5289 230.351 49.9587 232.463 51.2294 234.959L51.3772 236.369C51.6973 239.47 52.0247 242.65 52.413 245.899C52.4149 245.929 52.4187 245.961 52.4243 245.992C52.8316 249.385 53.305 252.852 53.9015 256.375C52.2767 253.868 50.5288 251.65 48.654 249.723C45.908 246.898 42.8969 244.699 39.6227 243.121C39.2478 242.941 38.797 243.098 38.6171 243.473C38.4372 243.848 38.5964 244.298 38.9694 244.476C42.0865 245.977 44.9536 248.075 47.5745 250.77C50.1898 253.459 52.5589 256.745 54.682 260.624C55.608 265.291 56.7877 270.048 58.3539 274.857V274.859L58.3595 274.876V274.878C59.1284 277.236 59.9901 279.607 60.9597 281.986C58.6834 280.033 56.267 278.345 53.7085 276.922C50.1463 274.94 46.3191 273.476 42.2305 272.529C41.8252 272.435 41.4199 272.686 41.3251 273.091C41.2304 273.496 41.4842 273.901 41.8895 273.996C45.8492 274.912 49.546 276.324 52.9793 278.233C56.3729 280.124 59.5184 282.503 62.4122 285.372C63.0806 286.851 63.7927 288.335 64.5521 289.819L66.2091 289.749C63.5427 284.632 61.4631 279.528 59.8157 274.481C59.5335 270.811 59.9672 267.146 61.1188 263.482C62.289 259.767 64.196 256.043 66.8417 252.316C67.0822 251.978 67.0008 251.508 66.6636 251.268C66.3266 251.03 65.8568 251.107 65.6165 251.446C62.8818 255.301 60.9047 259.163 59.689 263.029C58.9977 265.226 58.5507 267.424 58.3502 269.619C56.0927 261.474 54.8428 253.512 53.9264 245.914C54.8108 242.693 55.7974 239.968 56.8864 237.739C57.9697 235.521 59.1475 233.81 60.4164 232.61C60.7175 232.325 60.7308 231.85 60.4466 231.547C60.1624 231.246 59.6854 231.233 59.3862 231.518C57.979 232.847 56.6932 234.703 55.5305 237.08C54.809 238.56 54.1291 240.25 53.4946 242.15C53.275 240.144 53.0705 238.165 52.8697 236.217L52.7124 234.703C52.7106 234.675 52.7087 234.647 52.7049 234.62C51.6329 224.295 50.5534 214.899 47.4987 206.917Z" fill="white"/>
<path fill-rule="evenodd" clip-rule="evenodd" d="M52.144 269.506C49.5326 268.098 46.3851 267.356 44.5596 265.019C42.4026 262.26 42.8383 258.208 41.0296 255.212C38.7514 251.443 33.7766 250.485 30.2011 247.909C26.6995 245.387 27.1787 243.835 25.3019 239.952C22.4782 234.098 14.3654 228.641 8.69367 233.44C2.93658 238.315 6.64271 244.015 9.78249 248.154C12.0189 251.102 11.6782 251.808 12.2785 255.458C13.0019 259.868 11.4982 265.066 14.4714 268.403C16.3103 270.465 19.3669 271.088 21.2417 273.119C23.3645 275.422 23.4441 278.862 24.2055 281.902C25.2129 285.934 26.9704 289.174 29.7523 291.795C37.2573 291.227 46.0785 290.698 56.034 290.213C56.7972 289.123 57.4183 287.934 57.8616 286.678C59.9975 280.633 58.0109 272.666 52.144 269.506Z" fill="#BCC9E7"/>
<path fill-rule="evenodd" clip-rule="evenodd" d="M14.0069 237.548C13.7872 237.323 13.4274 237.316 13.2 237.535C12.9746 237.753 12.9691 238.112 13.1869 238.34C14.2815 239.473 15.3193 240.705 16.3211 242.023C16.1128 241.951 15.9007 241.884 15.6867 241.824C14.7303 241.555 13.7096 241.4 12.6245 241.356C12.3122 241.343 12.0469 241.589 12.0355 241.901C12.0242 242.216 12.2685 242.481 12.581 242.492C13.5791 242.532 14.5126 242.674 15.3801 242.918C16.202 243.149 16.9689 243.474 17.679 243.89C19.7091 246.801 21.6086 250.052 23.5459 253.51C22.5385 252.823 21.5291 252.253 20.5217 251.797C18.772 251.006 17.0164 250.558 15.2571 250.457C14.9446 250.438 14.6737 250.679 14.6568 250.991C14.6377 251.303 14.8784 251.572 15.1908 251.591C16.8043 251.683 18.4253 252.1 20.0521 252.836C21.6713 253.566 23.2943 254.615 24.9191 255.977L25.438 256.916C26.5819 258.982 27.7541 261.1 28.9871 263.248C28.9984 263.269 29.0097 263.289 29.023 263.309C30.3126 265.553 31.6685 267.827 33.1307 270.104C31.2559 268.838 29.3791 267.812 27.5025 267.025C24.7527 265.871 22.003 265.227 19.2532 265.101C18.9388 265.085 18.6737 265.328 18.6586 265.644C18.6433 265.956 18.8878 266.223 19.2022 266.238C21.8175 266.359 24.4366 266.972 27.0612 268.074C29.6803 269.173 32.3032 270.759 34.9336 272.833C36.9617 275.81 39.1946 278.773 41.7114 281.659V281.661L41.721 281.673C42.9557 283.088 44.2586 284.485 45.641 285.855C43.4744 285.168 41.291 284.708 39.0886 284.473C36.0189 284.148 32.9186 284.261 29.7884 284.812C29.4798 284.867 29.2713 285.162 29.3263 285.473C29.3793 285.781 29.6766 285.987 29.9872 285.934C33.0171 285.401 36.0111 285.289 38.9674 285.603C41.8933 285.913 44.7908 286.64 47.656 287.783C48.6445 288.695 49.6728 289.594 50.7409 290.476L52.4378 290.387C48.7128 287.414 45.4801 284.242 42.6168 280.965C41.3327 278.493 40.5487 275.81 40.2665 272.918C39.9788 269.983 40.2022 266.825 40.9407 263.445C41.0071 263.138 40.8121 262.835 40.5052 262.769C40.2004 262.703 39.8954 262.896 39.8293 263.203C39.0661 266.698 38.835 269.974 39.1342 273.026C39.3046 274.761 39.6436 276.423 40.1549 278.013C36.1686 273.007 32.9359 267.831 30.0459 262.809C29.7069 260.305 29.5858 258.114 29.6843 256.238C29.7808 254.373 30.0934 252.832 30.6218 251.621C30.7487 251.333 30.6161 250.998 30.3283 250.873C30.0404 250.746 29.7052 250.879 29.5803 251.167C28.995 252.508 28.6485 254.181 28.5444 256.183C28.4801 257.427 28.5083 258.804 28.6314 260.317C27.8816 258.984 27.1524 257.665 26.4345 256.369L25.8777 255.36C25.8684 255.341 25.857 255.322 25.8455 255.305C22.0383 248.43 18.5008 242.204 14.0069 237.548Z" fill="#E9EFF8"/>
<path fill-rule="evenodd" clip-rule="evenodd" d="M344.23 262.566C346.899 259.226 350.656 256.467 351.758 252.336C353.059 247.463 350.194 242.334 350.904 237.338C351.796 231.052 357.856 226.977 361.143 221.544C364.365 216.224 362.855 214.434 363.149 208.225C363.59 198.865 371.271 187.052 381.505 190.221C391.896 193.441 390.2 203.093 388.37 210.356C387.067 215.528 387.919 216.27 389.185 221.452C390.713 227.708 395.644 233.758 393.584 239.861C392.309 243.635 388.605 246.184 387.264 249.935C385.747 254.187 387.586 258.799 388.293 263.257C389.785 272.644 387.643 280.452 380.82 288.204C379.994 288.987 379.133 289.71 378.233 290.37C368.795 289.892 358.26 289.453 346.806 289.065C346.649 288.904 346.492 288.737 346.338 288.571C340.095 281.756 338.231 270.066 344.23 262.566Z" fill="#D0D9EE"/>
<path fill-rule="evenodd" clip-rule="evenodd" d="M376.79 198.675C376.951 198.252 377.426 198.041 377.851 198.203C378.273 198.364 378.487 198.839 378.324 199.261C377.512 201.383 376.83 203.602 376.247 205.915C376.482 205.703 376.724 205.495 376.976 205.294C378.089 204.399 379.356 203.616 380.771 202.948C381.182 202.755 381.67 202.929 381.864 203.339C382.057 203.748 381.881 204.237 381.472 204.429C380.17 205.045 379.013 205.76 378 206.572C377.04 207.342 376.207 208.205 375.499 209.159C374.449 214.166 373.764 219.55 373.146 225.227C374.097 223.749 375.112 222.425 376.192 221.251C378.066 219.213 380.144 217.631 382.418 216.503C382.825 216.303 383.316 216.469 383.517 216.874C383.717 217.279 383.553 217.771 383.147 217.97C381.06 219.003 379.144 220.47 377.4 222.364C375.665 224.247 374.105 226.552 372.718 229.275L372.559 230.816C372.209 234.199 371.851 237.67 371.427 241.213C371.425 241.249 371.421 241.283 371.416 241.315C370.971 245.02 370.455 248.802 369.802 252.647C371.577 249.911 373.485 247.49 375.529 245.388C378.527 242.307 381.813 239.903 385.386 238.185C385.795 237.988 386.285 238.161 386.482 238.569C386.677 238.976 386.507 239.466 386.098 239.663C382.697 241.3 379.566 243.59 376.707 246.531C373.855 249.466 371.27 253.05 368.952 257.284C367.94 262.378 366.655 267.567 364.944 272.815V272.817L364.939 272.838H364.937C364.1 275.411 363.159 277.998 362.1 280.595C364.585 278.464 367.223 276.622 370.014 275.071C373.902 272.908 378.078 271.309 382.539 270.275C382.982 270.171 383.424 270.448 383.526 270.888C383.63 271.331 383.354 271.772 382.912 271.875C378.589 272.876 374.555 274.418 370.809 276.501C367.105 278.562 363.674 281.159 360.515 284.291C359.737 286.015 358.903 287.744 358.01 289.474L356.195 289.404C359.189 283.708 361.515 278.025 363.35 272.404C363.659 268.402 363.183 264.401 361.926 260.403C360.649 256.349 358.568 252.286 355.682 248.217C355.421 247.848 355.508 247.337 355.875 247.074C356.244 246.813 356.758 246.9 357.019 247.269C360.004 251.474 362.161 255.688 363.488 259.91C364.242 262.306 364.729 264.704 364.948 267.1C367.412 258.211 368.778 249.523 369.776 241.23C368.812 237.716 367.734 234.743 366.547 232.309C365.363 229.889 364.079 228.023 362.693 226.713C362.365 226.403 362.35 225.883 362.661 225.555C362.971 225.226 363.49 225.211 363.82 225.521C365.356 226.972 366.757 228.998 368.026 231.592C368.814 233.208 369.554 235.052 370.247 237.126C370.488 234.934 370.711 232.777 370.931 230.652L371.101 228.998C371.101 228.967 371.105 228.937 371.111 228.907C372.279 217.639 373.457 207.385 376.79 198.675Z" fill="white"/>
<path fill-rule="evenodd" clip-rule="evenodd" d="M371.718 266.968C374.567 265.434 378.002 264.624 379.994 262.073C382.346 259.062 381.871 254.641 383.846 251.373C386.333 247.257 391.76 246.212 395.661 243.402C399.483 240.648 398.962 238.957 401.007 234.718C404.09 228.329 412.944 222.375 419.133 227.611C425.414 232.931 421.371 239.151 417.945 243.669C415.502 246.886 415.875 247.656 415.222 251.64C414.432 256.45 416.072 262.124 412.828 265.765C410.821 268.017 407.486 268.694 405.439 270.912C403.123 273.423 403.035 277.18 402.206 280.496C401.091 284.96 399.131 288.533 396.019 291.415C387.825 290.856 378.318 290.34 367.692 289.873C366.759 288.599 366.003 287.198 365.477 285.707C363.145 279.112 365.316 270.416 371.718 266.968Z" fill="#BCC9E7"/>
<path fill-rule="evenodd" clip-rule="evenodd" d="M413.341 232.1C413.578 231.853 413.972 231.847 414.22 232.083C414.466 232.322 414.472 232.716 414.235 232.961C413.04 234.199 411.907 235.545 410.814 236.981C411.042 236.902 411.273 236.83 411.506 236.765C412.549 236.472 413.663 236.3 414.846 236.254C415.189 236.241 415.477 236.508 415.49 236.851C415.503 237.193 415.236 237.481 414.893 237.494C413.806 237.538 412.788 237.693 411.841 237.959C410.945 238.211 410.108 238.565 409.333 239.019C407.116 242.197 405.042 245.745 402.929 249.517C404.029 248.767 405.129 248.147 406.229 247.649C408.14 246.784 410.055 246.296 411.973 246.186C412.316 246.165 412.61 246.426 412.63 246.769C412.65 247.11 412.388 247.403 412.047 247.424C410.288 247.524 408.519 247.978 406.741 248.781C404.976 249.579 403.203 250.722 401.431 252.21L400.862 253.235C399.618 255.488 398.338 257.8 396.992 260.143C396.98 260.167 396.967 260.19 396.954 260.211C395.547 262.66 394.066 265.141 392.469 267.625C394.519 266.246 396.564 265.125 398.613 264.266C401.613 263.006 404.614 262.306 407.614 262.166C407.957 262.151 408.248 262.416 408.264 262.756C408.279 263.101 408.014 263.392 407.671 263.407C404.817 263.54 401.958 264.208 399.094 265.411C396.237 266.609 393.373 268.341 390.504 270.604C388.29 273.854 385.855 277.088 383.107 280.237L383.098 280.25H383.096C381.749 281.794 380.327 283.318 378.819 284.815C381.183 284.065 383.565 283.562 385.97 283.308C389.321 282.95 392.703 283.075 396.117 283.677C396.456 283.736 396.682 284.058 396.623 284.396C396.564 284.735 396.24 284.96 395.903 284.901C392.595 284.318 389.326 284.197 386.101 284.54C382.91 284.879 379.748 285.672 376.621 286.917C375.447 288.002 374.224 289.065 372.945 290.11L371.074 290.023C375.276 286.703 378.911 283.149 382.119 279.478C383.52 276.781 384.376 273.854 384.685 270.697C384.999 267.495 384.753 264.049 383.948 260.36C383.876 260.025 384.088 259.694 384.423 259.62C384.759 259.549 385.088 259.761 385.162 260.096C385.993 263.909 386.247 267.484 385.919 270.814C385.734 272.709 385.363 274.522 384.806 276.257C389.156 270.796 392.684 265.147 395.837 259.666C396.208 256.934 396.339 254.542 396.233 252.496C396.127 250.459 395.786 248.779 395.208 247.456C395.072 247.144 395.216 246.777 395.529 246.641C395.843 246.504 396.208 246.646 396.347 246.96C396.985 248.425 397.362 250.251 397.475 252.435C397.546 253.792 397.515 255.296 397.383 256.947C398.201 255.491 398.996 254.053 399.778 252.639L400.388 251.538C400.397 251.515 400.409 251.496 400.42 251.477C404.574 243.974 408.436 237.18 413.341 232.1Z" fill="#E9EFF8"/>
<path fill-rule="evenodd" clip-rule="evenodd" d="M345.585 200.959C344.751 204.146 344.649 208.614 345.713 214.545C348.069 227.657 354.826 244.998 359.18 244.216C363.536 243.436 364.757 221.972 362.401 208.859C360.08 195.919 355.538 193.958 351.236 194.659H351.234L351.061 194.687C349.056 197.745 347.259 199.853 345.585 200.959Z" fill="#6998D0"/>
<path fill-rule="evenodd" clip-rule="evenodd" d="M362.482 209.291C362.457 209.145 362.433 209.001 362.406 208.859C360.085 195.919 355.543 193.958 351.24 194.659H351.239L351.066 194.687C350.595 195.408 350.135 196.074 349.684 196.689C355.096 196.18 359.365 200.378 362.482 209.291Z" fill="#406FB5"/>
<path fill-rule="evenodd" clip-rule="evenodd" d="M360.417 243.609C357.254 244.374 357.368 248.524 359.076 261.396C360.786 274.269 361.239 289.274 364.401 288.507C367.562 287.741 372.545 270.09 370.835 257.218C369.125 244.347 363.58 242.843 360.417 243.609Z" fill="#6998D0"/>
<path fill-rule="evenodd" clip-rule="evenodd" d="M339.768 243.472C336.668 243.905 336.382 247.889 336.799 260.369C337.214 272.852 336.223 287.257 339.321 286.822C342.421 286.388 348.864 269.968 348.447 257.485C348.033 245.003 342.868 243.038 339.768 243.472Z" fill="#6998D0"/>
<path fill-rule="evenodd" clip-rule="evenodd" d="M337.544 197.445C335.916 199.826 334.687 203.876 334.119 210.427C332.965 223.701 334.959 242.201 339.366 242.584C342.449 242.852 345.894 234.185 348.083 224.413C347.104 221.086 346.284 217.695 345.718 214.546C344.654 208.614 344.756 204.147 345.589 200.96C342.699 202.867 340.171 201.79 337.544 197.445Z" fill="#6998D0"/>
<path fill-rule="evenodd" clip-rule="evenodd" d="M324.488 293.388C330.512 293.834 336.812 293.937 343.386 293.692C343.215 290.371 342.039 288.414 339.862 287.824C338.254 287.559 335.82 288.426 332.559 290.426C327.012 289.989 324.321 290.975 324.488 293.388Z" fill="#6998D0"/>
<path fill-rule="evenodd" clip-rule="evenodd" d="M350.425 294.723C356.449 295.169 362.748 295.272 369.323 295.03C369.151 291.708 367.977 289.751 365.799 289.159C364.191 288.896 361.758 289.763 358.495 291.763C352.95 291.326 350.259 292.312 350.425 294.723Z" fill="#6998D0"/>
<path fill-rule="evenodd" clip-rule="evenodd" d="M360.338 240.414C358.546 240.414 357.094 241.865 357.094 243.656C357.094 245.446 358.546 246.898 360.338 246.898C362.129 246.898 363.58 245.446 363.58 243.656C363.58 241.865 362.129 240.414 360.338 240.414Z" fill="#0F3D86"/>
<path fill-rule="evenodd" clip-rule="evenodd" d="M340.242 239.93C338.452 239.93 337 241.381 337 243.171C337 244.962 338.452 246.413 340.242 246.413C342.033 246.413 343.486 244.962 343.486 243.171C343.486 241.381 342.033 239.93 340.242 239.93Z" fill="#0F3D86"/>
<path fill-rule="evenodd" clip-rule="evenodd" d="M365.76 286.652C364.589 286.652 363.641 287.602 363.641 288.772C363.641 289.942 364.589 290.89 365.76 290.89C366.93 290.89 367.879 289.942 367.879 288.772C367.879 287.602 366.93 286.652 365.76 286.652Z" fill="#0F3D86"/>
<path fill-rule="evenodd" clip-rule="evenodd" d="M339.512 284.875C338.339 284.875 337.391 285.823 337.391 286.993C337.391 288.162 338.339 289.11 339.512 289.11C340.682 289.11 341.631 288.162 341.631 286.993C341.631 285.823 340.682 284.875 339.512 284.875Z" fill="#0F3D86"/>
<path fill-rule="evenodd" clip-rule="evenodd" d="M358.394 160.992C357.555 158.13 354.258 156.728 348.507 156.787C348.575 157.194 348.634 157.555 348.674 157.862C346.447 161.76 343.858 163.632 340.911 163.477C339.529 162.623 339.782 160.871 341.676 158.219C341.909 158.002 342.097 157.692 342.239 157.288C340.656 157.502 338.959 157.784 337.146 158.134C328.111 164.01 326.341 171.088 331.836 179.366C336.455 181.567 343.129 181.226 351.857 178.346C357.44 175.245 359.618 169.462 358.394 160.992Z" fill="#6998D0"/>
<path fill-rule="evenodd" clip-rule="evenodd" d="M337.542 197.445C335.923 190.829 332.154 184.947 331.781 179.297C331.798 179.321 331.815 179.346 331.832 179.37C336.451 181.571 343.125 181.231 351.853 178.35C351.948 178.297 352.043 178.242 352.137 178.188C350.312 184.014 350.013 189.504 351.238 194.659C351.181 194.667 351.096 194.639 351.064 194.688C345.596 203.02 341.689 204.309 337.542 197.445Z" fill="#6998D0"/>
<path fill-rule="evenodd" clip-rule="evenodd" d="M344.659 228.114C341.949 219.015 341.472 210.26 343.224 201.852C343.991 201.795 344.775 201.495 345.587 200.957C344.754 204.144 344.651 208.612 345.716 214.543C346.282 217.692 347.102 221.083 348.081 224.41C346.644 230.825 344.665 236.764 342.604 240.011C344.974 235.093 345.659 231.128 344.659 228.114Z" fill="#406FB5"/>
<path fill-rule="evenodd" clip-rule="evenodd" d="M347.512 267.97C347.003 256.883 345.179 249.515 342.039 245.869C342.647 245.464 343.109 244.862 343.334 244.152C345.806 245.541 348.18 249.192 348.455 257.486C348.567 260.826 348.186 264.449 347.512 267.97Z" fill="#406FB5"/>
<path fill-rule="evenodd" clip-rule="evenodd" d="M371.148 264.769C369.757 255.545 366.933 249.255 362.676 245.899C363.218 245.333 363.558 244.573 363.577 243.73C366.442 244.646 369.614 248.045 370.834 257.227C371.152 259.621 371.239 262.182 371.148 264.769Z" fill="#406FB5"/>
<path fill-rule="evenodd" clip-rule="evenodd" d="M357.699 158.75C355.33 158.75 353.41 161.08 353.41 163.954C353.41 166.831 355.33 169.16 357.699 169.16C360.069 169.16 361.991 166.831 361.991 163.954C361.991 161.08 360.069 158.75 357.699 158.75Z" fill="#0F3D86"/>
<path fill-rule="evenodd" clip-rule="evenodd" d="M356.065 162.204C354.599 163.718 356.101 165.951 361.5 172.406C366.899 178.861 372.349 186.92 373.815 185.406C375.281 183.89 371.887 172.503 366.488 166.048C361.089 159.593 357.531 160.688 356.065 162.204Z" fill="#6998D0"/>
<path fill-rule="evenodd" clip-rule="evenodd" d="M333.086 161.312C331.518 161.604 329.313 162.974 326.363 166.254C321.78 171.35 317.065 177.652 318.454 178.659C319.504 179.415 324.761 177.3 329.249 174.03C327.88 169.352 329.158 165.113 333.086 161.312Z" fill="#6998D0"/>
<path fill-rule="evenodd" clip-rule="evenodd" d="M373.39 186.341C372.038 185.788 370.985 187.329 368.216 192.464C365.446 197.603 361.656 203.183 363.01 203.738C364.362 204.29 370.827 199.175 373.596 194.039C376.367 188.901 374.744 186.895 373.39 186.341Z" fill="#6998D0"/>
<path fill-rule="evenodd" clip-rule="evenodd" d="M317.153 177.89C318.026 176.719 316.797 175.314 312.512 171.352C308.226 167.389 303.762 162.329 302.89 163.5C302.017 164.671 305.357 172.203 309.643 176.166C313.928 180.131 316.279 179.059 317.153 177.89Z" fill="#6998D0"/>
<path fill-rule="evenodd" clip-rule="evenodd" d="M373.687 183.863C372.643 183.863 371.797 184.709 371.797 185.752C371.797 186.795 372.643 187.641 373.687 187.641C374.73 187.641 375.575 186.795 375.575 185.752C375.575 184.709 374.73 183.863 373.687 183.863Z" fill="#0F3970"/>
<path fill-rule="evenodd" clip-rule="evenodd" d="M319.483 178.794C319.743 177.785 319.134 176.755 318.125 176.494C317.114 176.233 316.084 176.84 315.822 177.851C315.561 178.862 316.169 179.891 317.18 180.152C318.191 180.411 319.222 179.804 319.483 178.794Z" fill="#0F3970"/>
<path fill-rule="evenodd" clip-rule="evenodd" d="M363.542 205.26C363.71 204.989 363.625 204.633 363.354 204.467C363.083 204.3 362.727 204.383 362.561 204.654C361.962 205.621 361.527 206.601 361.254 207.595C360.979 208.594 360.869 209.602 360.926 210.617C360.945 210.935 361.218 211.179 361.536 211.162C361.854 211.145 362.099 210.872 362.082 210.554C362.03 209.659 362.125 208.773 362.367 207.897C362.61 207.014 363.002 206.134 363.542 205.26ZM362.437 204.028C362.547 204.293 362.443 204.607 362.184 204.749C360.788 205.526 359.735 206.361 359.029 207.25C358.354 208.1 357.998 209.003 357.962 209.957C357.951 210.276 357.684 210.524 357.364 210.513C357.046 210.502 356.798 210.235 356.809 209.917C356.854 208.708 357.294 207.578 358.125 206.531C358.862 205.604 359.911 204.739 361.271 203.942C360.756 203.838 360.326 203.844 359.987 203.959C359.57 204.099 359.267 204.436 359.078 204.966C358.97 205.267 358.639 205.424 358.337 205.316C358.036 205.208 357.879 204.877 357.987 204.576C358.301 203.698 358.845 203.127 359.615 202.866C360.329 202.623 361.214 202.673 362.269 203.015C362.571 203.112 362.738 203.437 362.642 203.742C362.604 203.859 362.53 203.958 362.437 204.028Z" fill="#0F3970"/>
<path fill-rule="evenodd" clip-rule="evenodd" d="M301.285 163.621C301.505 163.849 301.87 163.857 302.101 163.638C302.331 163.416 302.338 163.051 302.117 162.822C301.331 162.002 300.488 161.334 299.594 160.824C298.695 160.307 297.746 159.951 296.746 159.752C296.434 159.69 296.129 159.893 296.066 160.205C296.004 160.517 296.206 160.822 296.521 160.884C297.399 161.06 298.234 161.372 299.024 161.825C299.818 162.281 300.573 162.879 301.285 163.621ZM302.757 162.862C302.471 162.901 302.192 162.722 302.119 162.434C301.715 160.89 301.17 159.663 300.484 158.757C299.829 157.892 299.043 157.321 298.127 157.048C297.822 156.957 297.647 156.638 297.738 156.331C297.827 156.027 298.149 155.852 298.454 155.941C299.615 156.289 300.6 156.995 301.406 158.061C302.121 159.005 302.696 160.237 303.128 161.753C303.359 161.28 303.459 160.864 303.433 160.506C303.401 160.069 303.151 159.69 302.685 159.374C302.42 159.196 302.351 158.835 302.529 158.572C302.709 158.307 303.069 158.237 303.334 158.417C304.107 158.941 304.526 159.609 304.586 160.421C304.641 161.17 304.372 162.014 303.778 162.949C303.609 163.218 303.251 163.299 302.982 163.129C302.876 163.062 302.8 162.968 302.757 162.862Z" fill="#0F3970"/>
<path fill-rule="evenodd" clip-rule="evenodd" d="M363.014 202.312C362.224 202.312 361.582 202.952 361.582 203.741C361.582 204.53 362.224 205.17 363.014 205.17C363.804 205.17 364.444 204.53 364.444 203.741C364.444 202.952 363.803 202.312 363.014 202.312Z" fill="#0F3970"/>
<path fill-rule="evenodd" clip-rule="evenodd" d="M304.272 163.853C304.469 163.09 304.011 162.309 303.246 162.112C302.48 161.915 301.7 162.375 301.503 163.14C301.305 163.904 301.765 164.684 302.53 164.881C303.295 165.077 304.075 164.617 304.272 163.853Z" fill="#0F3970"/>
<path fill-rule="evenodd" clip-rule="evenodd" d="M334.544 157.777C332.04 157.777 330.012 161.017 330.012 165.014C330.012 165.112 330.014 165.213 330.016 165.311C331.275 162.898 333.455 160.637 336.553 158.529C335.949 158.048 335.265 157.777 334.544 157.777Z" fill="#0F3D86"/>
<path fill-rule="evenodd" clip-rule="evenodd" d="M350.148 178.885C354.023 175.174 355.993 171.801 356.055 168.77C356.561 169.023 357.114 169.163 357.695 169.163C357.932 169.163 358.163 169.14 358.388 169.097C357.623 173.167 355.54 176.197 352.135 178.184C352.04 178.239 351.946 178.294 351.851 178.347C351.275 178.536 350.707 178.716 350.148 178.885Z" fill="#406FB5"/>
<path fill-rule="evenodd" clip-rule="evenodd" d="M336.652 194.411C339.961 197.378 344.583 194.967 350.52 187.176C350.424 189.742 350.662 192.234 351.238 194.655C351.181 194.662 351.096 194.634 351.064 194.683C350.592 195.404 350.132 196.07 349.681 196.685C348.22 198.678 346.869 200.109 345.587 200.955C344.775 201.492 343.991 201.793 343.224 201.85C341.266 201.997 339.429 200.563 337.543 197.44C337.291 196.413 336.988 195.404 336.652 194.411Z" fill="#0F3D86"/>
<path fill-rule="evenodd" clip-rule="evenodd" d="M342.56 155.063C342.528 156.649 342.233 157.703 341.676 158.222C339.782 160.873 339.528 162.625 340.911 163.479C343.858 163.634 346.446 161.762 348.673 157.864C348.482 156.424 347.893 153.729 347.84 151.066C345.251 152.573 344.081 154.261 342.56 155.063Z" fill="#0F3970"/>
<path fill-rule="evenodd" clip-rule="evenodd" d="M327.534 172.953C327.494 169.34 328.34 166.29 330.073 163.805C330.031 164.2 330.01 164.607 330.01 165.022L330.014 165.317C328.596 168.031 328.34 170.937 329.249 174.037C326.005 176.401 322.36 178.163 320.191 178.67C323.931 177.497 326.38 175.591 327.534 172.953Z" fill="#406FB5"/>
<path fill-rule="evenodd" clip-rule="evenodd" d="M355.953 141.295C355.695 148.986 352.739 149.552 349.241 150.334C344.162 152.656 343.66 155.93 339.996 155.489C337.2 154.87 335.191 152.557 333.97 148.547C332.932 144.429 333.15 140.546 334.886 137.026C339.786 127.093 355.774 131.549 355.953 141.295Z" fill="#6998D0"/>
<path fill-rule="evenodd" clip-rule="evenodd" d="M348.714 138.242C346.881 138.242 345.395 140.299 345.395 142.835C345.395 145.373 346.881 147.428 348.714 147.428C350.548 147.428 352.034 145.373 352.034 142.835C352.034 140.299 350.548 138.242 348.714 138.242Z" fill="white"/>
<path fill-rule="evenodd" clip-rule="evenodd" d="M349.557 140.273C348.502 140.273 347.648 141.456 347.648 142.915C347.648 144.372 348.503 145.555 349.557 145.555C350.61 145.555 351.466 144.372 351.466 142.915C351.466 141.456 350.61 140.273 349.557 140.273Z" fill="#406FB5"/>
<path fill-rule="evenodd" clip-rule="evenodd" d="M333.349 143.333C336.84 144.501 340.873 144.047 345.45 141.973C345.411 142.253 345.392 142.542 345.392 142.837C345.392 143.456 345.479 144.047 345.64 144.584C340.877 148.725 336.934 149.822 333.811 147.877C333.471 146.325 333.311 144.807 333.349 143.333Z" fill="#0F3D86"/>
<path fill-rule="evenodd" clip-rule="evenodd" d="M335.696 177.707C335.047 179.357 333.356 179.465 331.797 179.462C335.713 181.034 340.336 181.225 345.661 180.037C342.888 180.008 340.972 179.861 339.908 179.594C336.651 178.61 335.961 173.073 340.239 164.867C337.821 168.209 335.734 172.024 335.696 177.707Z" fill="#406FB5"/>
<path fill-rule="evenodd" clip-rule="evenodd" d="M263.325 179.192C262.607 189.042 261.153 190.399 251.758 191.158C261.153 191.916 262.607 193.275 263.325 203.123C264.043 193.275 265.497 191.916 274.892 191.158C265.497 190.399 264.043 189.042 263.325 179.192ZM301.52 205.167C301.136 210.424 300.359 211.149 295.345 211.554C300.359 211.959 301.136 212.686 301.52 217.943C301.903 212.686 302.679 211.959 307.696 211.554C302.679 211.149 301.903 210.424 301.52 205.167ZM284.793 164.699C284.404 170.025 283.619 170.759 278.537 171.169C283.619 171.58 284.404 172.314 284.793 177.639C285.181 172.314 285.967 171.58 291.048 171.169C285.967 170.759 285.181 170.025 284.793 164.699Z" fill="white"/>
<path fill-rule="evenodd" clip-rule="evenodd" d="M217.382 111.183C218.1 101.335 219.553 99.9763 228.949 99.2192C219.553 98.4604 218.1 97.1016 217.382 87.2533C216.665 97.1016 215.21 98.4604 205.813 99.2192C215.21 99.9763 216.665 101.335 217.382 111.183ZM179.187 85.2095C179.57 79.9524 180.346 79.2277 185.363 78.8207C180.346 78.4157 179.57 77.6909 179.187 72.4336C178.803 77.6907 178.028 78.4157 173.012 78.8207C178.028 79.2277 178.803 79.9524 179.187 85.2095ZM195.915 125.678C196.303 120.352 197.089 119.616 202.17 119.207C197.089 118.797 196.303 118.062 195.915 112.737C195.527 118.062 194.741 118.797 189.658 119.207C194.741 119.616 195.527 120.352 195.915 125.678Z" fill="white"/>
<path fill-rule="evenodd" clip-rule="evenodd" d="M310.464 88.3779C303.021 88.3779 297.005 82.3353 297.005 74.9227C297.005 67.4817 303.022 61.4732 310.464 61.4732C317.905 61.4732 323.925 67.4817 323.925 74.9227C323.927 82.3355 317.905 88.3779 310.464 88.3779ZM339.588 74.9227C339.588 70.2275 342.72 66.2857 347.008 65.0613C346.152 61.8858 344.881 58.8502 343.262 56.0627C339.395 58.1916 334.397 57.6504 331.121 54.3993L331.049 54.3255L330.977 54.2291H330.953C330.634 53.9112 330.295 53.5875 329.977 53.2791C330.237 53.5214 330.534 53.7864 330.807 54.0531C327.718 50.7809 327.201 45.9155 329.316 42.1439C326.519 40.5276 323.51 39.256 320.327 38.4062C319.081 42.6811 315.142 45.8131 310.464 45.8131C305.788 45.8131 301.846 42.6811 300.599 38.4062C297.422 39.256 294.41 40.5296 291.591 42.1439C293.725 45.961 293.206 50.853 290.028 54.1551L290.854 53.3678C290.542 53.6875 290.199 54.0074 289.875 54.3253L289.712 54.5013C286.381 57.6504 281.482 58.1916 277.662 56.0625C276.049 58.85 274.77 61.8856 273.918 65.0611C278.204 66.2855 281.338 70.25 281.338 74.9225C281.338 79.5968 278.204 83.5293 273.918 84.7537C274.77 87.9387 276.049 90.9648 277.662 93.7581C281.535 91.629 286.476 92.1721 289.786 95.395L289.852 95.4972L289.928 95.5445C293.182 98.8485 293.746 103.805 291.591 107.671C294.41 109.287 297.42 110.561 300.599 111.411C301.821 107.262 305.567 104.178 310.076 104.005H310.856C315.363 104.178 319.107 107.262 320.327 111.411C323.51 110.561 326.519 109.287 329.316 107.671C327.201 103.835 327.745 98.9148 330.928 95.6163L330.953 95.5917L331.174 95.374C334.475 92.1719 339.395 91.6288 343.262 93.7579C344.883 90.9646 346.129 87.9385 347.008 84.7535C342.722 83.5295 339.586 79.597 339.588 74.9227Z" fill="#D0D9EE"/>
<path fill-rule="evenodd" clip-rule="evenodd" d="M310.459 85.1677C304.778 85.1677 300.202 80.5748 300.202 74.9221C300.202 69.2429 304.778 64.669 310.459 64.669C316.136 64.669 320.712 69.2429 320.712 74.9221C320.712 80.575 316.136 85.1677 310.459 85.1677ZM310.459 61.4727C303.016 61.4727 297 67.4811 297 74.9221C297 82.3347 303.016 88.3773 310.459 88.3773C317.9 88.3773 323.92 82.3347 323.92 74.9221C323.922 67.4811 317.9 61.4727 310.459 61.4727Z" fill="#F2F2F3"/>
<path fill-rule="evenodd" clip-rule="evenodd" d="M289.851 54.3276L289.711 54.5037L289.874 54.3276H289.851ZM290.029 54.1572L290.853 53.37C290.539 53.6896 290.198 54.0097 289.874 54.3276L290.029 54.1572ZM310.075 104.008L310.463 104.025L310.855 104.008H310.075ZM330.806 54.0552C330.533 53.7883 330.236 53.5234 329.976 53.2812C330.294 53.5896 330.632 53.9133 330.951 54.2312L330.806 54.0552Z" fill="#BAC1C2"/>
<path fill-rule="evenodd" clip-rule="evenodd" d="M310.462 96.2232C298.676 96.2232 289.131 86.6948 289.131 74.92C289.131 63.1452 298.676 53.596 310.462 53.596C322.243 53.596 331.796 63.1452 331.796 74.92C331.796 86.6948 322.241 96.2232 310.462 96.2232ZM331.119 54.3967L331.053 54.3379L330.97 54.2377C325.699 49.024 318.454 45.8164 310.462 45.8164C302.421 45.8164 295.138 49.0639 289.862 54.3379C284.597 59.6008 281.336 66.8771 281.336 74.9202C281.336 82.9044 284.552 90.143 289.773 95.4096L289.862 95.4815L289.926 95.5438C295.191 100.782 302.444 104.02 310.462 104.02C318.444 104.02 325.669 100.816 330.934 95.6138L330.956 95.5837L331.053 95.4815L331.155 95.3926L331.178 95.3775C336.374 90.1183 339.578 82.8817 339.578 74.9202C339.581 66.9113 336.339 59.6614 331.119 54.3967Z" fill="#BCC9E7"/>
<path fill-rule="evenodd" clip-rule="evenodd" d="M310.459 85.1677C304.778 85.1677 300.202 80.5748 300.202 74.9221C300.202 69.2429 304.778 64.669 310.459 64.669C316.136 64.669 320.712 69.2429 320.712 74.9221C320.712 80.575 316.136 85.1677 310.459 85.1677ZM310.459 61.4727C303.016 61.4727 297 67.4811 297 74.9221C297 82.3347 303.016 88.3773 310.459 88.3773C317.9 88.3773 323.92 82.3347 323.92 74.9221C323.922 67.4811 317.9 61.4727 310.459 61.4727Z" fill="white"/>
<path fill-rule="evenodd" clip-rule="evenodd" d="M238.193 67.6558C233.12 67.6558 229.02 63.5379 229.02 58.4852C229.02 53.4134 233.12 49.3201 238.193 49.3201C243.265 49.3201 247.367 53.4134 247.367 58.4852C247.369 63.5379 243.265 67.6558 238.193 67.6558ZM258.042 58.4852C258.042 55.2849 260.178 52.5978 263.098 51.7651C262.515 49.6001 261.65 47.5317 260.546 45.6316C257.911 47.083 254.504 46.7141 252.272 44.4981L252.223 44.4469L252.175 44.3826H252.158C251.94 44.1649 251.709 43.9437 251.492 43.7335C251.67 43.8982 251.872 44.0798 252.058 44.2616C249.952 42.0323 249.6 38.7149 251.041 36.1449C249.136 35.0435 247.085 34.1769 244.915 33.5977C244.066 36.512 241.381 38.6466 238.194 38.6466C235.006 38.6466 232.319 36.512 231.471 33.5977C229.304 34.1767 227.252 35.0453 225.331 36.1449C226.786 38.7453 226.431 42.0815 224.265 44.3316L224.83 43.7942C224.615 44.0137 224.383 44.2314 224.163 44.4471L224.051 44.5664C221.78 46.7143 218.44 47.0832 215.838 45.6318C214.74 47.5319 213.867 49.6003 213.285 51.7653C216.207 52.598 218.341 55.3023 218.341 58.4854C218.341 61.6704 216.207 64.3519 213.285 65.1846C213.867 67.3553 214.74 69.418 215.838 71.3218C218.478 69.8702 221.845 70.2431 224.1 72.4385L224.146 72.5065L224.197 72.5407C226.414 74.7926 226.799 78.1687 225.331 80.805C227.252 81.9044 229.304 82.7749 231.471 83.3522C232.302 80.525 234.857 78.4243 237.929 78.3052H238.461C241.533 78.4243 244.083 80.525 244.915 83.3522C247.085 82.7749 249.136 81.9046 251.041 80.805C249.6 78.1897 249.971 74.8362 252.141 72.5881L252.159 72.573L252.308 72.4236C254.558 70.2435 257.912 69.8706 260.546 71.3222C261.652 69.4184 262.5 67.3557 263.099 65.185C260.178 64.3517 258.042 61.6702 258.042 58.4852Z" fill="#D0D9EE"/>
<path fill-rule="evenodd" clip-rule="evenodd" d="M238.193 65.4725C234.322 65.4725 231.203 62.3425 231.203 58.4895C231.203 54.6193 234.322 51.5025 238.193 51.5025C242.062 51.5025 245.181 54.6193 245.181 58.4895C245.181 62.3403 242.062 65.4725 238.193 65.4725ZM238.193 49.3242C233.119 49.3242 229.02 53.4175 229.02 58.4893C229.02 63.542 233.119 67.6599 238.193 67.6599C243.264 67.6599 247.366 63.542 247.366 58.4893C247.368 53.4175 243.264 49.3242 238.193 49.3242Z" fill="#F2F2F3"/>
<path fill-rule="evenodd" clip-rule="evenodd" d="M224.15 44.4439L224.055 44.5631L224.166 44.4439H224.15ZM224.271 44.3286L224.833 43.7912C224.619 44.0107 224.386 44.2284 224.166 44.4441L224.271 44.3286ZM237.932 78.3016L238.197 78.3149L238.465 78.3016H237.932ZM252.061 44.2585C251.876 44.0769 251.673 43.8952 251.495 43.7305C251.713 43.9406 251.942 44.1619 252.162 44.3796L252.061 44.2585Z" fill="#BAC1C2"/>
<path fill-rule="evenodd" clip-rule="evenodd" d="M238.196 73.002C230.163 73.002 223.658 66.509 223.658 58.4832C223.658 50.4574 230.163 43.9492 238.196 43.9492C246.226 43.9492 252.735 50.4574 252.735 58.4832C252.735 66.509 246.224 73.002 238.196 73.002ZM252.274 44.4962L252.229 44.4545L252.172 44.3882C248.58 40.8323 243.643 38.6484 238.196 38.6484C232.716 38.6484 227.752 40.8627 224.156 44.4545C220.569 48.0425 218.344 53.0026 218.344 58.4832C218.344 63.9259 220.537 68.8576 224.095 72.4474L224.156 72.4966L224.199 72.5401C227.788 76.1073 232.731 78.3158 238.196 78.3158C243.637 78.3158 248.559 76.1319 252.148 72.5855L252.165 72.5647L252.229 72.4966L252.299 72.4361L252.314 72.4248C255.856 68.8405 258.041 63.9088 258.041 58.4832C258.041 53.0234 255.831 48.0842 252.274 44.4962Z" fill="#BCC9E7"/>
<path fill-rule="evenodd" clip-rule="evenodd" d="M238.193 65.4725C234.322 65.4725 231.203 62.3425 231.203 58.4895C231.203 54.6193 234.322 51.5025 238.193 51.5025C242.062 51.5025 245.181 54.6193 245.181 58.4895C245.181 62.3403 242.062 65.4725 238.193 65.4725ZM238.193 49.3242C233.119 49.3242 229.02 53.4175 229.02 58.4893C229.02 63.542 233.119 67.6599 238.193 67.6599C243.264 67.6599 247.366 63.542 247.366 58.4893C247.368 53.4175 243.264 49.3242 238.193 49.3242Z" fill="white"/>
<path fill-rule="evenodd" clip-rule="evenodd" d="M91.3089 87.6365C86.2355 87.6365 82.1374 83.5184 82.1374 78.4656C82.1374 73.3938 86.2355 69.3005 91.3089 69.3005C96.3805 69.3005 100.484 73.3938 100.484 78.4656C100.484 83.5184 96.3805 87.6365 91.3089 87.6365ZM111.159 78.4656C111.159 75.2655 113.294 72.5802 116.214 71.7456C115.632 69.5805 114.767 67.5122 113.663 65.6121C111.027 67.0637 107.622 66.6946 105.387 64.4786L105.34 64.4274L105.291 64.3631H105.274C105.056 64.1474 104.825 63.9241 104.609 63.716C104.785 63.8787 104.988 64.0603 105.173 64.242C103.069 62.0127 102.715 58.6971 104.158 56.1273C102.253 55.026 100.2 54.1572 98.0301 53.5781C97.1817 56.4925 94.4981 58.6271 91.3091 58.6271C88.1238 58.6271 85.4366 56.4942 84.5863 53.5781C82.4198 54.1572 80.3688 55.0258 78.4465 56.1273C79.901 58.7275 79.5487 62.0619 77.3823 64.3121L77.9449 63.7765C77.7309 63.9942 77.4981 64.2117 77.2783 64.4274L77.1665 64.5484C74.8957 66.6944 71.5571 67.0635 68.9531 65.6119C67.8548 67.512 66.9836 69.5803 66.4023 71.7454C69.3243 72.58 71.4586 75.2824 71.4586 78.4654C71.4586 81.6524 69.3243 84.332 66.4023 85.1664C66.9836 87.3372 67.8548 89.3998 68.9531 91.3037C71.5931 89.8521 74.9602 90.2232 77.2175 92.4183L77.263 92.4884L77.3122 92.5205C79.5298 94.7727 79.916 98.1505 78.4465 100.785C80.3688 101.886 82.4198 102.755 84.5863 103.334C85.4176 100.507 87.9723 98.4042 91.044 98.2869H91.5762C94.6498 98.4042 97.2006 100.507 98.0301 103.334C100.2 102.755 102.253 101.886 104.158 100.785C102.717 98.1694 103.086 94.8181 105.257 92.5697L105.274 92.5527L105.425 92.4032C107.675 90.2232 111.027 89.8521 113.663 91.3037C114.767 89.3998 115.617 87.3372 116.214 85.1664C113.294 84.3322 111.158 81.6524 111.159 78.4656Z" fill="#D0D9EE"/>
<path fill-rule="evenodd" clip-rule="evenodd" d="M91.316 85.445C87.4453 85.445 84.3261 82.3149 84.3261 78.462C84.3261 74.5919 87.4451 71.4752 91.316 71.4752C95.185 71.4752 98.3059 74.5919 98.3059 78.462C98.3059 82.3149 95.185 85.445 91.316 85.445ZM91.316 69.2969C86.2427 69.2969 82.1445 73.3902 82.1445 78.462C82.1445 83.5147 86.2427 87.6328 91.316 87.6328C96.3876 87.6328 100.491 83.5147 100.491 78.462C100.491 73.3902 96.3876 69.2969 91.316 69.2969Z" fill="#F2F2F3"/>
<path fill-rule="evenodd" clip-rule="evenodd" d="M77.2684 64.4265L77.1719 64.5475L77.2837 64.4265H77.2684ZM77.3875 64.311L77.9501 63.7754C77.736 63.9931 77.5033 64.2106 77.2835 64.4263L77.3875 64.311ZM91.0512 98.2859L91.3143 98.2973L91.5814 98.2859H91.0512ZM105.178 64.2409C104.993 64.0591 104.79 63.8776 104.614 63.7148C104.83 63.923 105.061 64.1463 105.279 64.362L105.178 64.2409Z" fill="#BAC1C2"/>
<path fill-rule="evenodd" clip-rule="evenodd" d="M91.3114 92.9784C83.2799 92.9784 76.7748 86.4856 76.7748 78.4595C76.7748 70.4355 83.2799 63.9276 91.3114 63.9276C99.3411 63.9276 105.852 70.4355 105.852 78.4595C105.852 86.4856 99.3411 92.9784 91.3114 92.9784ZM105.39 64.4727L105.346 64.4328L105.289 64.3648C101.697 60.8108 96.7579 58.625 91.3114 58.625C85.8309 58.625 80.8674 60.8392 77.273 64.4328C73.6843 68.0191 71.4609 72.9792 71.4609 78.4595C71.4609 83.9022 73.6539 88.8339 77.2105 92.4258L77.273 92.4732L77.3147 92.5166C80.9033 96.0858 85.848 98.2923 91.3114 98.2923C96.7521 98.2923 101.676 96.1104 105.265 92.5639L105.28 92.543L105.346 92.4732L105.414 92.4126L105.431 92.4031C108.973 88.8189 111.156 83.8872 111.156 78.4595C111.156 73.002 108.948 68.0608 105.39 64.4727Z" fill="#BCC9E7"/>
<path fill-rule="evenodd" clip-rule="evenodd" d="M91.316 85.445C87.4453 85.445 84.3261 82.3149 84.3261 78.462C84.3261 74.5919 87.4451 71.4752 91.316 71.4752C95.185 71.4752 98.3059 74.5919 98.3059 78.462C98.3059 82.3149 95.185 85.445 91.316 85.445ZM91.316 69.2969C86.2427 69.2969 82.1445 73.3902 82.1445 78.462C82.1445 83.5147 86.2427 87.6328 91.316 87.6328C96.3876 87.6328 100.491 83.5147 100.491 78.462C100.491 73.3902 96.3876 69.2969 91.316 69.2969Z" fill="white"/>
<path fill-rule="evenodd" clip-rule="evenodd" d="M251.332 117.452C247.107 117.452 243.692 114.023 243.692 109.816C243.694 105.592 247.107 102.182 251.332 102.182C255.555 102.182 258.972 105.592 258.972 109.816C258.972 114.023 255.555 117.452 251.332 117.452ZM267.861 109.816C267.861 107.152 269.639 104.915 272.071 104.22C271.586 102.417 270.866 100.694 269.946 99.1124C267.751 100.322 264.916 100.013 263.055 98.168L263.015 98.1263L262.975 98.0716H262.96C262.778 97.8918 262.587 97.7062 262.407 97.5322C262.555 97.6683 262.723 97.8197 262.877 97.9711C261.125 96.1145 260.83 93.3536 262.032 91.2132C260.445 90.2952 258.735 89.5725 256.928 89.0898C256.222 91.5178 253.987 93.2947 251.332 93.2947C248.679 93.2947 246.441 91.5176 245.732 89.0898C243.93 89.5725 242.221 90.2952 240.621 91.2132C241.831 93.3782 241.538 96.1562 239.735 98.0297L240.203 97.583C240.025 97.7648 239.831 97.9463 239.648 98.1261L239.555 98.2263C237.663 100.013 234.883 100.321 232.715 99.112C231.8 100.694 231.075 102.416 230.59 104.22C233.023 104.914 234.802 107.164 234.802 109.816C234.802 112.469 233.023 114.7 230.59 115.394C231.075 117.204 231.8 118.92 232.715 120.506C234.913 119.297 237.718 119.605 239.597 121.433L239.634 121.492L239.676 121.518C241.522 123.394 241.844 126.208 240.621 128.401C242.221 129.319 243.929 130.042 245.732 130.522C246.425 128.168 248.554 126.42 251.111 126.321H251.554C254.112 126.42 256.237 128.168 256.928 130.522C258.736 130.042 260.445 129.319 262.032 128.401C260.831 126.223 261.14 123.431 262.946 121.56L262.96 121.547L263.086 121.422C264.959 119.605 267.751 119.297 269.946 120.506C270.866 118.92 271.572 117.203 272.07 115.394C269.639 114.7 267.861 112.469 267.861 109.816Z" fill="#D0D9EE"/>
<path fill-rule="evenodd" clip-rule="evenodd" d="M251.335 115.633C248.11 115.633 245.514 113.025 245.514 109.817C245.514 106.595 248.11 103.998 251.335 103.998C254.556 103.998 257.154 106.595 257.154 109.817C257.154 113.025 254.556 115.633 251.335 115.633ZM251.335 102.184C247.11 102.184 243.695 105.594 243.695 109.818C243.697 114.025 247.11 117.454 251.335 117.454C255.558 117.454 258.974 114.025 258.974 109.818C258.974 105.594 255.558 102.184 251.335 102.184Z" fill="#F2F2F3"/>
<path fill-rule="evenodd" clip-rule="evenodd" d="M239.638 98.1254L239.559 98.2256L239.651 98.1254H239.638ZM239.739 98.0289L240.206 97.5822C240.028 97.764 239.835 97.9456 239.651 98.1254L239.739 98.0289ZM251.114 126.321L251.336 126.33L251.557 126.321H251.114ZM262.88 97.9702C262.727 97.8188 262.558 97.6674 262.411 97.5312C262.591 97.7053 262.782 97.8906 262.964 98.0706L262.88 97.9702Z" fill="#BAC1C2"/>
<path fill-rule="evenodd" clip-rule="evenodd" d="M251.335 121.907C244.646 121.907 239.229 116.5 239.229 109.818C239.229 103.134 244.646 97.7159 251.335 97.7159C258.02 97.7159 263.442 103.134 263.442 109.818C263.442 116.5 258.02 121.907 251.335 121.907ZM263.058 98.17L263.022 98.1358L262.974 98.0811C259.982 95.1193 255.871 93.3008 251.335 93.3008C246.771 93.3008 242.639 95.1439 239.643 98.1358C236.657 101.124 234.805 105.253 234.805 109.818C234.805 114.35 236.63 118.457 239.592 121.447L239.643 121.487L239.679 121.523C242.668 124.496 246.785 126.333 251.335 126.333C255.865 126.333 259.965 124.515 262.954 121.562L262.967 121.545L263.022 121.487L263.078 121.436L263.092 121.428C266.042 118.444 267.86 114.335 267.86 109.818C267.86 105.272 266.021 101.158 263.058 98.17Z" fill="#BCC9E7"/>
<path fill-rule="evenodd" clip-rule="evenodd" d="M251.335 115.633C248.11 115.633 245.514 113.025 245.514 109.817C245.514 106.595 248.11 103.998 251.335 103.998C254.556 103.998 257.154 106.595 257.154 109.817C257.154 113.025 254.556 115.633 251.335 115.633ZM251.335 102.184C247.11 102.184 243.695 105.594 243.695 109.818C243.697 114.025 247.11 117.454 251.335 117.454C255.558 117.454 258.974 114.025 258.974 109.818C258.974 105.594 255.558 102.184 251.335 102.184Z" fill="white"/>
<path fill-rule="evenodd" clip-rule="evenodd" d="M73.5143 109.14C73.2378 107.587 72.5144 108.453 72.3516 109.593C72.1868 110.736 70.5202 118.252 64.5342 112.829C58.4494 107.513 65.731 104.988 66.8445 104.695C67.9599 104.402 68.7346 103.582 67.1588 103.489C65.1724 103.374 61.1595 103.298 58.1806 107.178C55.0293 111.277 58.5763 115.643 60.5004 117.355C62.4264 119.064 67.1739 122.085 70.8878 118.483C74.3988 115.071 73.859 111.103 73.5143 109.14Z" fill="#D0D9EE"/>
<path fill-rule="evenodd" clip-rule="evenodd" d="M33.5896 153.955C32.0121 153.859 32.7886 153.043 33.904 152.752C35.0174 152.459 42.3028 149.932 36.2163 144.616C30.2283 139.191 28.5617 146.711 28.3987 147.852C28.2339 148.994 27.5124 149.856 27.2378 148.305C26.8913 146.344 26.3533 142.37 29.8607 138.965C33.5744 135.36 38.322 138.379 40.2461 140.091C42.1702 141.802 45.719 146.166 42.5697 150.269C39.589 154.148 35.5798 154.071 33.5896 153.955Z" fill="#D0D9EE"/>
<path fill-rule="evenodd" clip-rule="evenodd" d="M37.1719 138.539L39.6545 140.749L61.0958 116.685L58.6074 114.473L37.1719 138.539Z" fill="#D0D9EE"/>
<path fill-rule="evenodd" clip-rule="evenodd" d="M42.1428 142.966L39.6523 140.752L61.0936 116.688L63.5801 118.9L42.1428 142.966Z" fill="#BCC9E7"/>
<path fill-rule="evenodd" clip-rule="evenodd" d="M33.9019 152.75C32.7865 153.042 32.01 153.857 33.5875 153.954C35.5777 154.069 39.5869 154.147 42.5678 150.267C45.7171 146.165 42.1683 141.801 40.2442 140.09L36.2144 144.615C42.3007 149.931 35.0153 152.457 33.9019 152.75Z" fill="#BCC9E7"/>
<path fill-rule="evenodd" clip-rule="evenodd" d="M70.8872 118.475C74.3984 115.065 73.8586 111.096 73.5139 109.134C73.2374 107.58 72.514 108.447 72.3512 109.586C72.1864 110.729 70.5198 118.246 64.5338 112.822L60.5 117.349C62.4258 119.058 67.1735 122.078 70.8872 118.475Z" fill="#BCC9E7"/>
<path fill-rule="evenodd" clip-rule="evenodd" d="M29.7656 110.384L31.4776 108.465L53.6024 128.144L51.8924 130.067L29.7656 110.384Z" fill="#D0D9EE"/>
<path d="M29.7662 110.378L28.0547 112.301L50.1861 131.977L51.8976 130.055L29.7662 110.378Z" fill="#BCC9E7"/>
<path fill-rule="evenodd" clip-rule="evenodd" d="M32.2458 112.593C32.2458 112.593 34.9255 108.506 33.4123 107.098C31.8953 105.691 25.0835 102.93 23.4492 104.766L32.2458 112.593Z" fill="#D0D9EE"/>
<path fill-rule="evenodd" clip-rule="evenodd" d="M32.2483 112.589C32.2483 112.589 28.4987 115.725 26.9211 114.381C25.3454 113.039 21.8116 106.598 23.4517 104.762L32.2483 112.589Z" fill="#BCC9E7"/>
<path fill-rule="evenodd" clip-rule="evenodd" d="M65.9274 148.925C67.8931 150.668 70.9022 150.496 72.6502 148.536C74.4001 146.569 74.2259 143.562 72.2601 141.814L54.6235 126.123C52.6577 124.375 49.6448 124.549 47.8969 126.513C46.147 128.476 46.3232 131.487 48.2889 133.231L65.9274 148.925Z" fill="#AAB9DE"/>
<path fill-rule="evenodd" clip-rule="evenodd" d="M70.4882 147.811C70.9179 148.193 71.5373 148.204 71.8649 147.833C72.1964 147.466 72.1132 146.855 71.683 146.473L52.0713 129.024C51.6396 128.644 51.0242 128.629 50.6945 129.002C50.3651 129.371 50.4465 129.98 50.8764 130.364L70.4882 147.811Z" fill="#99A9D4"/>
<path fill-rule="evenodd" clip-rule="evenodd" d="M67.6292 148.997C68.0629 149.381 68.6783 149.393 69.0059 149.022C69.3392 148.655 69.254 148.042 68.8241 147.657L49.2121 130.211C48.7804 129.829 48.165 129.819 47.8353 130.19C47.5039 130.559 47.5891 131.169 48.019 131.555L67.6292 148.997Z" fill="#99A9D4"/>
<path fill-rule="evenodd" clip-rule="evenodd" d="M72.5281 143.498C72.9598 143.882 73.0432 144.494 72.7155 144.863C72.3859 145.234 71.7705 145.222 71.3388 144.836L51.727 127.392C51.2953 127.01 51.2119 126.4 51.5413 126.027C51.8728 125.656 52.4882 125.671 52.9199 126.054L72.5281 143.498Z" fill="#99A9D4"/>
<path fill-rule="evenodd" clip-rule="evenodd" d="M45.4531 132.808C46.4283 133.676 47.9207 133.591 48.7899 132.614L54.0658 126.693C54.935 125.719 54.846 124.223 53.8708 123.357C52.8975 122.488 51.4032 122.575 50.534 123.548L45.2599 129.471C44.3907 130.448 44.4759 131.941 45.4531 132.808Z" fill="#99A9D4"/>
<path fill-rule="evenodd" clip-rule="evenodd" d="M45.6546 131.751C46.4027 132.419 47.6109 132.286 48.3569 131.45L52.8604 126.393C53.6027 125.561 53.5969 124.346 52.8453 123.68C52.0972 123.01 50.8891 123.146 50.1468 123.98L45.6395 129.039C44.897 129.87 44.9008 131.086 45.6546 131.751Z" fill="#AAB9DE"/>
<path d="M207.195 139.16H115.223V285.707H207.195V139.16Z" fill="#D0D9EE"/>
<path d="M140.921 152.645H137.02V156.545H140.921V152.645Z" fill="#99A9D4"/>
<path d="M133.388 152.645H129.488V156.545H133.388V152.645Z" fill="#99A9D4"/>
<path d="M125.86 152.645H121.961V156.545H125.86V152.645Z" fill="#99A9D4"/>
<path d="M140.921 160.098H137.02V163.994H140.921V160.098Z" fill="#99A9D4"/>
<path d="M133.388 160.098H129.488V163.994H133.388V160.098Z" fill="#99A9D4"/>
<path d="M125.86 160.098H121.961V163.994H125.86V160.098Z" fill="#99A9D4"/>
<path d="M140.921 167.551H137.02V171.447H140.921V167.551Z" fill="#99A9D4"/>
<path d="M133.388 167.551H129.488V171.447H133.388V167.551Z" fill="#001918"/>
<path d="M125.86 167.551H121.961V171.447H125.86V167.551Z" fill="#001918"/>
<path d="M140.921 175.004H137.02V178.902H140.921V175.004Z" fill="#99A9D4"/>
<path d="M133.388 175.004H129.488V178.902H133.388V175.004Z" fill="#99A9D4"/>
<path d="M125.86 175.004H121.961V178.902H125.86V175.004Z" fill="#99A9D4"/>
<path fill-rule="evenodd" clip-rule="evenodd" d="M179.887 196.649C179.887 199.34 182.07 201.521 184.761 201.521C187.454 201.521 189.638 199.34 189.638 196.649C189.638 193.959 187.456 191.777 184.761 191.777C182.07 191.777 179.887 193.959 179.887 196.649Z" fill="white"/>
<path fill-rule="evenodd" clip-rule="evenodd" d="M165.672 196.649C165.672 199.34 167.855 201.521 170.546 201.521C173.241 201.521 175.423 199.34 175.423 196.649C175.423 193.959 173.241 191.777 170.546 191.777C167.855 191.777 165.672 193.959 165.672 196.649Z" fill="white"/>
<path fill-rule="evenodd" clip-rule="evenodd" d="M151.453 196.649C151.453 199.34 153.637 201.521 156.33 201.521C159.023 201.521 161.206 199.34 161.206 196.649C161.206 193.959 159.022 191.777 156.33 191.777C153.637 191.777 151.453 193.959 151.453 196.649Z" fill="white"/>
<path fill-rule="evenodd" clip-rule="evenodd" d="M137.246 196.649C137.246 199.34 139.428 201.521 142.121 201.521C144.814 201.521 146.997 199.34 146.997 196.649C146.997 193.959 144.813 191.777 142.121 191.777C139.428 191.777 137.246 193.959 137.246 196.649Z" fill="white"/>
<path fill-rule="evenodd" clip-rule="evenodd" d="M123.031 196.649C123.031 199.34 125.213 201.521 127.908 201.521C130.599 201.521 132.782 199.34 132.782 196.649C132.782 193.959 130.599 191.777 127.908 191.777C125.213 191.777 123.031 193.959 123.031 196.649Z" fill="white"/>
<path d="M207.192 133.965H194.508V285.706H207.192V133.965Z" fill="#BCC9E7"/>
<path d="M202.671 139.16H199.031V279.73H202.671V139.16Z" fill="#99A9D4"/>
<path fill-rule="evenodd" clip-rule="evenodd" d="M123.918 216.588H187.336V214.77H123.918V216.588ZM123.918 270.634H187.336V268.816H123.918V270.634ZM123.918 266.477H187.336V264.656H123.918V266.477ZM123.918 262.319H187.336V260.5H123.918V262.319ZM123.918 258.161H187.336V256.344H123.918V258.161ZM123.918 254.006H187.336V252.185H123.918V254.006ZM123.918 249.846H187.336V248.029H123.918V249.846ZM123.918 245.69H187.336V243.872H123.918V245.69ZM123.918 241.532H187.336V239.714H123.918V241.532ZM123.918 237.377H187.336V235.556H123.918V237.377ZM123.918 233.217H187.336V231.4H123.918V233.217ZM123.918 229.061H187.336V227.241H123.918V229.061ZM123.918 224.904H187.336V223.085H123.918V224.904ZM123.918 220.746H187.336V218.927H123.918V220.746Z" fill="#99A9D4"/>
<path d="M200.848 285.707H194.508V293.502H200.848V285.707Z" fill="#99A9D4"/>
<path d="M127.079 285.707H120.738V293.502H127.079V285.707Z" fill="#99A9D4"/>
<path d="M189.641 150.539H145.785V181.174H189.641V150.539Z" fill="white"/>
<path fill-rule="evenodd" clip-rule="evenodd" d="M189.641 150.539L150.461 154.593L145.785 181.174V150.539H189.641Z" fill="#E9EFF8"/>
<path d="M263.992 256.281H236.312V262.25H263.992V256.281Z" fill="#99A9D4"/>
<path fill-rule="evenodd" clip-rule="evenodd" d="M261.269 230.071C260.192 229.876 234.759 225.141 225.409 211.464C216.04 197.761 221.671 176.863 221.915 175.979L222.048 175.496L222.548 175.449C222.786 175.428 246.314 173.15 255.529 165.913C260.65 161.89 264.091 153.563 267.129 146.217C270.004 139.262 272.274 133.77 275.439 132.913C282.207 131.071 288.788 134.277 293.018 141.474C297.419 148.957 296.09 158.209 296.033 158.599L294.594 158.383C294.607 158.292 295.901 149.243 291.765 142.21C287.884 135.613 281.931 132.665 275.816 134.315C273.346 134.985 270.979 140.711 268.473 146.771C265.367 154.282 261.849 162.798 256.427 167.056C247.538 174.037 226.814 176.469 223.195 176.846C222.411 180.053 218.385 198.612 226.61 210.645C235.618 223.823 261.269 228.594 261.529 228.64L261.269 230.071Z" fill="#99A9D4"/>
<path fill-rule="evenodd" clip-rule="evenodd" d="M272.696 241.025C270.545 241.943 267.272 242.691 263.979 240.972C258.339 238.029 251.789 225.138 249.779 222.066C247.772 218.995 226.068 194.494 224.178 192.041C222.289 189.587 213.777 185.472 211.929 178.204C210.853 173.965 212.595 171.557 213.586 170.584L213.55 170.545C213.55 170.545 216.402 167.161 221.914 169.351C228.889 172.121 231.87 181.089 234.059 183.279C236.25 185.469 257.754 210.142 260.543 212.53C263.331 214.917 275.277 223.075 277.468 229.044C278.852 232.821 277.372 236.199 276.095 238.169C275.722 238.749 273.559 240.656 272.696 241.025Z" fill="#BCC9E7"/>
<path fill-rule="evenodd" clip-rule="evenodd" d="M239.33 249.716H272.354L280.448 234.561C283.184 229.44 279.471 223.25 273.66 223.25H239.33C235.685 223.25 232.727 226.206 232.727 229.849V243.117C232.727 246.761 235.685 249.716 239.33 249.716Z" fill="#BCC9E7"/>
<path fill-rule="evenodd" clip-rule="evenodd" d="M272.354 249.715L269.64 254.976C269.227 255.776 268.401 256.282 267.5 256.282H236.603C235.643 256.282 234.831 255.562 234.715 254.609L234.543 253.176C234.317 251.336 235.757 249.715 237.613 249.715H272.354Z" fill="#AAB9DE"/>
<path d="M270.829 133.603L231.234 161.57L237.657 170.65L277.252 142.683L270.829 133.603Z" fill="#BCC9E7"/>
<path fill-rule="evenodd" clip-rule="evenodd" d="M235.261 184.574C235.261 184.574 233.916 189.114 232.179 190.844C230.443 192.574 229.117 193.972 232.179 197.371C235.243 200.77 253.431 220.96 254.24 221.159C255.048 221.358 273.659 223.25 273.659 223.25H250.5L221.641 188.929L235.261 184.574Z" fill="#AAB9DE"/>
<path fill-rule="evenodd" clip-rule="evenodd" d="M239.051 155.69C239.051 155.69 242.683 154.694 245.565 157.294C248.45 159.893 250.45 159.592 251.55 158.994C252.434 158.509 263.695 150.298 268.69 146.647C269.904 145.76 264.552 141.502 266.802 136.462C267.937 133.923 272.906 145.768 272.906 145.768L245.493 165.129L239.051 155.69Z" fill="#AAB9DE"/>
<path fill-rule="evenodd" clip-rule="evenodd" d="M216.425 164.085L232.821 156.231C237.25 154.108 242.566 155.978 244.693 160.406C245.878 162.881 245.816 165.629 244.759 167.944L244.761 167.945L244.753 167.955C244.409 168.712 243.952 169.422 243.4 170.061L235.489 182.364L235.482 182.358C234.183 185.386 231.832 187.983 228.626 189.519C221.598 192.886 213.169 189.922 209.8 182.898C206.431 175.875 209.395 167.453 216.425 164.085Z" fill="#BCC9E7"/>
<path fill-rule="evenodd" clip-rule="evenodd" d="M285.431 143.745L278.751 148.618L275.625 144.338L282.3 139.465L285.431 143.745Z" fill="#BCC9E7"/>
<path fill-rule="evenodd" clip-rule="evenodd" d="M276.863 146.016L283.368 140.91C283.368 140.91 283.372 142.458 282.035 144.195C281.033 145.494 280.685 145.541 280.533 146.141C280.389 146.726 280.675 147.216 280.675 147.216L278.759 148.613L276.863 146.016Z" fill="#AAB9DE"/>
<path fill-rule="evenodd" clip-rule="evenodd" d="M283.579 134.596C285.173 139.108 282.804 144.056 278.289 145.65C273.775 147.241 268.824 144.876 267.232 140.366C265.637 135.855 268.004 130.906 272.519 129.312C277.034 127.721 281.984 130.086 283.579 134.596Z" fill="#BCC9E7"/>
<path fill-rule="evenodd" clip-rule="evenodd" d="M274.052 233.008C274.052 235.025 272.414 236.664 270.391 236.664C268.372 236.664 266.734 235.027 266.734 233.008C266.734 230.989 268.372 229.352 270.391 229.352C272.414 229.352 274.052 230.989 274.052 233.008Z" fill="#99A9D4"/>
<path d="M284.229 144.614L279.922 147.758L288.653 159.703L292.959 156.559L284.229 144.614Z" fill="#BCC9E7"/>
<path d="M294.178 155.681L287.5 160.555L290.629 164.836L297.306 159.962L294.178 155.681Z" fill="#AAB9DE"/>
<path fill-rule="evenodd" clip-rule="evenodd" d="M299.571 164.004L293.776 168.233L291.059 164.519L296.856 160.289L299.571 164.004Z" fill="#BCC9E7"/>
<path fill-rule="evenodd" clip-rule="evenodd" d="M299.148 194.919L300.444 195.46L301.732 192.389L300.434 191.848L299.148 194.919Z" fill="#AAB9DE"/>
<path fill-rule="evenodd" clip-rule="evenodd" d="M302.373 191.101L300.897 190.482L304.566 181.722C305.119 180.395 304.941 178.851 304.096 177.689L298.133 169.468L299.43 168.531L305.393 176.75C306.562 178.359 306.81 180.503 306.041 182.34L302.373 191.101Z" fill="#99A9D4"/>
<path fill-rule="evenodd" clip-rule="evenodd" d="M299.969 191.656L302.186 192.583L304.389 187.33L302.169 186.402L299.969 191.656Z" fill="#AAB9DE"/>
<path fill-rule="evenodd" clip-rule="evenodd" d="M279.941 147.749L288.674 159.694L292.98 156.551C292.98 156.551 289.524 158.322 288.857 157.589C288.191 156.857 281.657 148.171 281.723 147.749C281.79 147.329 284.25 144.605 284.25 144.605L279.941 147.749Z" fill="#AAB9DE"/>
<path d="M298.532 164.745L294.809 167.461L298.408 172.388L302.13 169.672L298.532 164.745Z" fill="#AAB9DE"/>
<path fill-rule="evenodd" clip-rule="evenodd" d="M227.926 288.519H270.981L266.182 262.254H232.727L227.926 288.519Z" fill="#BCC9E7"/>
<path fill-rule="evenodd" clip-rule="evenodd" d="M234.523 263.738V286.826H229.848L233.749 263.738H234.523Z" fill="#AAB9DE"/>
<path fill-rule="evenodd" clip-rule="evenodd" d="M264.395 263.738V286.826H269.072L265.169 263.738H264.395Z" fill="#AAB9DE"/>
<path fill-rule="evenodd" clip-rule="evenodd" d="M248.409 263.844V286.933H244.715L246.716 263.844H248.409Z" fill="#AAB9DE"/>
<path fill-rule="evenodd" clip-rule="evenodd" d="M249.457 263.844V286.933H253.152L251.15 263.844H249.457Z" fill="#D0D9EE"/>
<path fill-rule="evenodd" clip-rule="evenodd" d="M265.176 263.738H266.456L270.675 286.826H269.079L265.176 263.738Z" fill="#BCC9E7"/>
<path d="M267.05 262.254H231.777V263.809H267.05V262.254Z" fill="#D0D9EE"/>
<path d="M271.822 286.629H227.078V288.518H271.822V286.629Z" fill="#99A9D4"/>
<path fill-rule="evenodd" clip-rule="evenodd" d="M180.503 139.161H128.992L134.736 110.57H174.759L180.503 139.161Z" fill="#BCC9E7"/>
<path fill-rule="evenodd" clip-rule="evenodd" d="M172.613 112.188V137.319H178.206L173.537 112.188H172.613Z" fill="#AAB9DE"/>
<path fill-rule="evenodd" clip-rule="evenodd" d="M136.862 112.188V135.924L147.774 137.319H131.27L135.936 112.188H136.862Z" fill="#AAB9DE"/>
<path fill-rule="evenodd" clip-rule="evenodd" d="M156.133 112.301V137.432L172.618 137.322L161.503 135.928L158.161 112.301H156.133Z" fill="#AAB9DE"/>
<path fill-rule="evenodd" clip-rule="evenodd" d="M153.343 112.301V137.432L147.777 137.322L151.319 112.301H153.343Z" fill="#D0D9EE"/>
<path fill-rule="evenodd" clip-rule="evenodd" d="M135.941 112.188L151.321 112.297L151.101 113.849H136.867L135.941 112.188Z" fill="#AAB9DE"/>
<path d="M175.411 110.57H134.07V112.3H175.411V110.57Z" fill="#D0D9EE"/>
<path d="M181.02 137.43H128.578V139.159H181.02V137.43Z" fill="#BCC9E7"/>
<path d="M173.423 112.301H156.133V113.853H173.423V112.301Z" fill="#AAB9DE"/>
<path fill-rule="evenodd" clip-rule="evenodd" d="M158.377 113.852L156.13 112.723H153.342L151.098 113.852L151.317 112.301H158.158L158.377 113.852Z" fill="#AAB9DE"/>
<path fill-rule="evenodd" clip-rule="evenodd" d="M172.613 113.852L173.619 112.698H175.166L175.081 112.301H172.613V113.852Z" fill="#AAB9DE"/>
<path fill-rule="evenodd" clip-rule="evenodd" d="M136.869 113.852L135.866 112.698H134.316L134.402 112.301H136.869V113.852Z" fill="#AAB9DE"/>
<path fill-rule="evenodd" clip-rule="evenodd" d="M117.102 30.6408C117.102 33.2601 119.226 35.3832 121.847 35.3832C124.468 35.3832 126.595 33.2599 126.595 30.6408C126.595 28.0218 124.47 25.8984 121.847 25.8984C119.226 25.8984 117.102 28.0218 117.102 30.6408Z" fill="white"/>
<path fill-rule="evenodd" clip-rule="evenodd" d="M142.328 40.6917L199.978 56.732C200.971 57.0083 201.995 56.4292 202.27 55.4414L205.25 44.7453C205.527 43.7555 204.947 42.7317 203.957 42.4555L172.269 33.6367C170.888 33.2545 169.432 33.2507 168.049 33.6291L142.328 40.6917Z" fill="#99A9D4"/>
<path fill-rule="evenodd" clip-rule="evenodd" d="M197.09 55.9061C200.448 52.5508 200.448 47.1119 197.09 43.7586C193.734 40.4034 188.292 40.4034 184.934 43.7586C184.152 44.5383 183.561 45.4353 183.144 46.389L178.336 53.4516L136.344 95.4145L145.398 104.46L187.39 62.4974L194.458 57.6943C195.412 57.2782 196.308 56.6878 197.09 55.9061Z" fill="#BCC9E7"/>
<path fill-rule="evenodd" clip-rule="evenodd" d="M170.628 107.722H141.25C136.583 107.722 132.77 103.911 132.77 99.2482V97.9216C132.77 93.2606 136.585 89.4473 141.25 89.4473L170.628 89.4453C173.747 89.4453 176.298 91.9965 176.298 95.1112V102.057C176.298 105.175 173.747 107.722 170.628 107.722Z" fill="#D0D9EE"/>
<path fill-rule="evenodd" clip-rule="evenodd" d="M151.664 49.3627L171.58 54.9056C174.213 55.6381 176.942 54.0994 177.674 51.469L179.261 45.7727C179.848 43.6627 178.614 41.4788 176.504 40.8902L144.734 32.0508L148.198 45.8106C148.63 47.5309 149.954 48.8879 151.664 49.3627Z" fill="#AAB9DE"/>
<path fill-rule="evenodd" clip-rule="evenodd" d="M126.06 38.3026L165.069 49.1557L167.774 39.455C168.22 37.8484 167.279 36.1849 165.672 35.7364L129.575 25.6914L124.246 27.2905L122.484 33.6093L126.06 38.3026Z" fill="#BCC9E7"/>
<path fill-rule="evenodd" clip-rule="evenodd" d="M137.492 98.5848C137.492 101.293 139.691 103.488 142.399 103.488C145.111 103.488 147.306 101.293 147.306 98.5848C147.306 95.8768 145.111 93.6797 142.399 93.6797C139.691 93.6797 137.494 95.8768 137.492 98.5848Z" fill="white"/>
<path fill-rule="evenodd" clip-rule="evenodd" d="M183.984 50.3759C183.984 53.7577 186.727 56.4978 190.111 56.4978C193.495 56.4978 196.239 53.7577 196.239 50.3759C196.239 46.994 193.495 44.2539 190.111 44.2539C186.727 44.2519 183.984 46.994 183.984 50.3759Z" fill="white"/>
<path fill-rule="evenodd" clip-rule="evenodd" d="M185.742 50.3775C185.742 52.7883 187.699 54.7432 190.111 54.7432C192.524 54.7432 194.48 52.7883 194.48 50.3775C194.48 47.9666 192.524 46.0117 190.111 46.0117C187.699 46.0117 185.742 47.9664 185.742 50.3775Z" fill="#99A9D4"/>
<path d="M142.403 101.666C144.106 101.666 145.486 100.286 145.486 98.5847C145.486 96.8832 144.106 95.5039 142.403 95.5039C140.701 95.5039 139.32 96.8832 139.32 98.5847C139.32 100.286 140.701 101.666 142.403 101.666Z" fill="#99A9D4"/>
<path fill-rule="evenodd" clip-rule="evenodd" d="M187.389 62.4961L160.423 89.4407H142.398C142.398 89.4407 154.842 86.9502 159.575 84.2573C164.308 81.5623 187.389 62.4961 187.389 62.4961Z" fill="#99A9D4"/>
<path fill-rule="evenodd" clip-rule="evenodd" d="M122.651 36.6629C123.195 36.7727 123.729 36.4189 123.839 35.8757L125.7 26.6539C125.81 26.1125 125.456 25.5789 124.913 25.4692C124.369 25.3594 123.835 25.7133 123.725 26.2564L121.864 35.4764C121.754 36.0194 122.11 36.555 122.651 36.6629Z" fill="#99A9D4"/>
<path fill-rule="evenodd" clip-rule="evenodd" d="M138.287 110.565H171.19C171.972 110.565 172.614 109.925 172.614 109.144C172.614 108.36 171.972 107.719 171.19 107.719H138.287C137.503 107.719 136.863 108.36 136.863 109.144C136.863 109.925 137.503 110.565 138.287 110.565Z" fill="#99A9D4"/>
<path fill-rule="evenodd" clip-rule="evenodd" d="M116.833 29.3852C116.577 30.4129 116.7 31.3287 117.107 31.4291C117.516 31.5313 118.056 30.78 118.314 29.7523C118.567 28.7247 118.446 27.8089 118.037 27.7085C117.628 27.6063 117.09 28.3576 116.833 29.3852Z" fill="#99A9D4"/>
<path fill-rule="evenodd" clip-rule="evenodd" d="M97.7171 205.097C100.55 207.071 102.923 221.728 103.154 249.072C103.457 259.329 101.673 272.919 99.3685 290.783C97.4899 291.587 94.7306 291.697 92.6324 291.586C89.7103 269.417 89.2313 255.264 91.4089 249.454C88.5833 242.325 86.2106 234.903 84.4002 227.333C83.1445 237.838 81.6619 246.176 79.9517 252.344C76.1584 262.219 70.5415 275.15 63.0971 291.139C61.3758 291.372 58.3172 290.855 56.5352 289.695C59.1374 270.131 64.112 255.434 68.7972 250.563C64.3412 225.562 68.0491 212.542 73.5791 204.902C83.4438 206.369 92.0092 206.267 97.7171 205.097Z" fill="#0F3970"/>
<path fill-rule="evenodd" clip-rule="evenodd" d="M66.808 197.439C59.4279 168.848 67.4651 158.435 83.2725 158.309C84.3158 161.085 86.1813 163.922 88.8685 166.821C89.9782 164.703 91.1826 163.091 92.4837 161.986C93.8718 162.894 95.2618 164.321 96.6557 166.266C96.8982 163.305 96.6198 160.748 95.8205 158.597C101.507 158.992 110.372 161.804 122.417 167.039C129.035 164.86 137.338 162.413 146.668 160.434L146.699 160.461L146.634 160.629C147.369 161.373 148.238 163.26 148.503 164.76C148.653 164.72 148.748 164.696 148.858 164.669L149.015 165.118C141.228 170.029 133.651 172.907 122.86 175.852C116.008 175.795 109.085 176.064 102.108 173.617C102.008 194.178 100.559 202.728 97.7221 205.09C95.0027 205.648 91.6318 205.962 87.7836 205.979C87.5299 206.447 87.3462 207.209 87.1605 207.942C85.3482 207.382 83.3559 206.456 81.1591 205.743L80.5568 205.497C74.5063 203.048 70.3267 200.544 66.808 197.439Z" fill="#6998D0"/>
<path fill-rule="evenodd" clip-rule="evenodd" d="M105.686 297.791C100.048 298.054 95.8326 298.251 93.8498 297.761C91.7099 297.229 92.0639 295.923 93.1397 293.802C95.2494 294.491 97.3722 294.314 99.5084 293.274C101.342 294.568 103.985 295.346 107.438 295.609C108.951 296.585 108.422 297.573 105.686 297.791ZM61.7941 298.627C58.6656 297.744 55.9707 297.136 54.8517 296.349C53.3498 295.293 54.1642 294.027 55.6925 292.43C57.5125 293.701 59.5936 294.148 61.9418 293.771C63.599 296.122 68.9885 295.134 69.5187 296.746C70.1798 299.745 63.2316 299.034 61.7941 298.627Z" fill="#142D4D"/>
<path fill-rule="evenodd" clip-rule="evenodd" d="M89.8828 195.335C90.4055 187.285 91.0399 177.488 91.678 165.333C91 164.99 90.5246 164.445 90.3658 164.311C91.0153 163.412 91.6933 162.662 92.3977 162.062C93.1967 162.587 93.9978 163.281 94.7971 164.148C94.5509 164.492 94.1211 164.888 93.5055 165.34C94.1003 172.819 94.7099 183.014 95.3349 195.918C94.9941 197.118 93.9601 198.341 92.6211 199.268C91.7501 198.564 90.2937 197.268 89.8828 195.335Z" fill="#0F3D86"/>
<path fill-rule="evenodd" clip-rule="evenodd" d="M88.8695 166.828C86.1823 163.929 84.3168 161.092 83.2734 158.315C83.8587 157.208 84.7829 156.096 85.4304 155.781C88.5571 159.042 90.5455 160.864 92.4507 161.973C92.4622 161.979 92.4735 161.987 92.4849 161.992C92.5095 161.905 92.5341 161.818 92.5605 161.731C93.0643 160.009 93.7933 158.015 94.1097 156.028C95.0074 156.665 95.3311 157.632 95.8216 158.603C96.6207 160.755 96.8991 163.312 96.6569 166.273C96.0659 165.448 95.4751 164.715 94.8843 164.076C94.0832 163.211 93.2842 162.515 92.4849 161.992C91.7803 162.592 91.1023 163.342 90.453 164.239C89.9055 164.996 89.3771 165.859 88.8695 166.828Z" fill="#6998D0"/>
<path fill-rule="evenodd" clip-rule="evenodd" d="M78.6201 175.78C78.5178 175.33 78.4874 174.815 78.5311 174.236C81.1824 174.469 83.559 174.293 85.6497 173.68C85.8731 174.104 85.9718 174.558 85.9471 175.044C84.3352 175.648 81.8923 175.892 78.6201 175.78Z" fill="#406FB5"/>
<path fill-rule="evenodd" clip-rule="evenodd" d="M85.461 155.803C85.9477 155.201 86.3568 154.398 86.6882 153.396C86.5121 152.86 86.3321 152.182 86.1447 151.365C82.7227 148.933 82.287 147.181 84.8342 146.106C85.336 146.399 85.9477 147.292 86.6711 148.778C87.2714 148.766 87.7353 148.468 88.0592 147.885C87.3945 145.387 86.9722 143.362 86.7885 141.81C88.5553 139.306 92.5626 139.03 97.8463 139.828C98.0622 141.244 98.2306 142.739 98.3539 144.319C99.2723 145.201 99.0811 148.396 98.1418 152.061C98.5263 154.165 97.2083 155.28 94.1839 155.409L94.1424 156.049C93.8242 158.036 93.095 160.03 92.5914 161.752L92.4834 161.995C90.576 160.886 88.5876 159.063 85.461 155.803Z" fill="#F4AE7C"/>
<path fill-rule="evenodd" clip-rule="evenodd" d="M97.8461 139.827C92.5624 139.029 88.5553 139.305 86.7883 141.809C86.972 143.36 87.3943 145.385 88.059 147.883C87.7351 148.466 87.2712 148.765 86.6709 148.777C85.9475 147.291 85.3358 146.398 84.834 146.105C82.2868 147.18 82.7225 148.932 86.1445 151.364C86.3319 152.181 86.5118 152.859 86.688 153.394C83.5804 152.626 81.0256 149.78 80.6847 148.565C77.1964 141.309 81.3229 138.366 83.5234 137.309C84.635 130.223 94.8255 136.726 100.073 133.41C102.069 136.292 99.4501 139.799 97.8461 139.827Z" fill="#0F3970"/>
<path fill-rule="evenodd" clip-rule="evenodd" d="M90.1875 154.914C91.1552 155.183 93.0659 155.444 94.1834 155.41L94.1419 156.05C94.0793 156.436 94.0017 156.822 93.9145 157.204C93.9032 157.2 93.8918 157.196 93.8805 157.193C92.1513 156.589 90.9205 155.83 90.1875 154.914Z" fill="#ED7D5B"/>
<path fill-rule="evenodd" clip-rule="evenodd" d="M94.5324 164.483C94.6593 164.356 94.7786 164.22 94.8847 164.074C93.722 162.838 92.8943 162.168 92.4 162.062C92.0477 162.697 91.6047 163.665 91.1198 164.843C90.7883 164.58 90.5554 164.324 90.4531 164.237C91.0761 163.376 91.7256 162.651 92.3998 162.062C93.042 162.585 93.7542 163.391 94.5324 164.483Z" fill="#0F3D86"/>
<path fill-rule="evenodd" clip-rule="evenodd" d="M61.8036 291.186C61.5555 292.038 61.459 292.918 61.5138 293.834C59.5878 294.061 57.8436 293.72 56.2852 292.808C56.7282 291.975 57.0596 291.075 57.2813 290.109C58.6296 290.758 60.3795 291.127 61.8036 291.186ZM93.6094 293.941C93.7002 293.145 93.7401 292.373 93.7248 291.623C95.2039 291.638 96.8553 291.528 98.2549 291.161C98.4139 292.117 98.6961 292.885 99.0994 293.466C97.2588 294.267 95.4292 294.426 93.6094 293.941Z" fill="#F5B58B"/>
<path fill-rule="evenodd" clip-rule="evenodd" d="M146.633 160.636C147.328 158.78 148.178 157.708 149.178 157.419C151.43 156.418 153.424 155.29 155.162 154.039C155.863 154.896 155.306 155.786 153.492 156.706C152.734 157.124 152.187 157.538 151.848 157.945C153.734 158.833 154.651 159.957 154.598 161.312C154.329 162.354 153.99 162.954 153.581 163.11C153.39 163.183 152.96 163.335 152.547 162.873C151.522 164.915 150.197 164.998 149.151 164.61C148.856 164.675 148.761 164.699 148.502 164.767C148.237 163.266 147.368 161.38 146.633 160.636Z" fill="#F4AE7C"/>
<path fill-rule="evenodd" clip-rule="evenodd" d="M88.7474 184.577L76.9738 194.8C80.0852 196.863 84.0716 199.605 89.7302 203.536C89.5085 203.722 89.2964 203.924 89.0919 204.144C88.9442 204.081 88.7946 204.019 88.6431 203.956C88.3989 204.231 88.1451 204.498 87.9141 204.782C87.6528 205.126 87.4349 205.512 87.3156 205.985C87.2096 206.405 87.1812 206.897 87.2721 207.499C87.2342 207.648 87.1964 207.798 87.1585 207.946C85.6985 207.493 84.121 206.804 82.4166 206.182C78.4757 204.745 74.2678 202.781 70.5996 200.336L67.6965 202.855C67.151 203.33 67.0924 204.164 67.5678 204.709L79.8167 218.801C80.292 219.346 81.1272 219.404 81.6727 218.929L102.724 200.654C103.271 200.179 103.33 199.344 102.854 198.799L90.6037 184.708C90.1297 184.163 89.2945 184.105 88.7474 184.577Z" fill="#9D7558"/>
<path fill-rule="evenodd" clip-rule="evenodd" d="M88.1993 183.832L75.1589 193.61C78.5185 195.786 82.9101 198.797 89.7334 203.538C89.5118 203.723 89.2997 203.926 89.0951 204.145C88.9474 204.083 88.7979 204.02 88.6464 203.958C88.4021 204.232 88.1483 204.499 87.9174 204.783C87.656 205.127 87.4382 205.513 87.3188 205.986C87.2128 206.406 87.1844 206.899 87.2753 207.501C87.2374 207.65 87.1997 207.8 87.1618 207.947C85.7018 207.495 84.1242 206.806 82.4198 206.183C77.6437 204.442 72.4776 201.927 68.3493 198.718L65.895 200.557C65.3173 200.992 65.1982 201.819 65.6337 202.398L76.8448 217.328C77.2785 217.905 78.108 218.024 78.6875 217.591L100.99 200.864C101.57 200.43 101.689 199.601 101.254 199.022L90.0426 184.095C89.6085 183.516 88.7788 183.398 88.1993 183.832Z" fill="#C19274"/>
<path fill-rule="evenodd" clip-rule="evenodd" d="M96.5701 167.515C95.9489 166.473 95.2463 165.436 94.5304 164.478C94.6724 164.334 94.79 164.198 94.8827 164.069C95.4717 164.707 96.0607 165.437 96.6495 166.259C96.6344 166.686 96.608 167.107 96.5701 167.515ZM102.107 173.617C102.136 172.428 102.043 170.752 101.831 168.588C102.321 170.937 103.316 172.886 104.812 174.436C103.912 174.205 103.009 173.933 102.107 173.617ZM88.8681 166.821C89.3757 165.852 89.9039 164.989 90.4514 164.232C90.5536 164.319 90.7866 164.574 91.118 164.838C90.6067 166.089 90.0481 167.574 89.5121 169.145C86.8419 165.789 84.31 161.52 83.2722 158.309C84.3154 161.085 86.1809 163.922 88.8681 166.821ZM87.781 205.981C88.3341 204.98 88.9837 204.164 89.7317 203.532C81.7817 198.01 77.1325 194.831 73.5703 192.592C74.682 187.95 75.5607 181.464 75.2444 175.882C76.4204 182.235 76.5606 187.634 75.6685 192.077C81.8631 196.354 87.6202 200.813 91.3794 203.933L91.1273 204.376C91.6937 204.758 92.2485 205.222 92.7919 205.771C91.2354 205.902 89.5593 205.973 87.781 205.981Z" fill="#406FB5"/>
<path fill-rule="evenodd" clip-rule="evenodd" d="M88.6448 203.961C90.3472 204.657 91.9097 205.448 93.3319 206.342C94.6026 208.478 94.9094 209.481 94.3127 210.67C92.9834 212.352 90.8623 212.343 90.6673 211.139C91.2488 210.522 91.0744 209.684 90.4211 208.98C89.4192 209.218 88.7679 208.966 88.4629 208.224C88.0538 208.105 87.6826 208.003 87.3494 207.914C87.0124 206.387 87.3723 205.505 87.9158 204.786C88.1467 204.502 88.4005 204.235 88.6448 203.961Z" fill="#F4AE7C"/>
<path fill-rule="evenodd" clip-rule="evenodd" d="M92.4718 150.85C94.1024 150.873 95.0077 150.712 96.5908 150.339C97.2273 150.188 95.9224 155.061 92.3828 151.106C92.2977 151.013 92.3451 150.845 92.4718 150.85Z" fill="#E97850"/>
<path fill-rule="evenodd" clip-rule="evenodd" d="M90.8839 141.963C91.6755 142.02 91.632 142.652 91.045 142.802C84.8032 144.365 88.9221 141.816 90.8839 141.963Z" fill="#0F3970"/>
<path fill-rule="evenodd" clip-rule="evenodd" d="M94.854 141.364C94.1117 141.65 94.3389 142.241 94.9429 142.214C101.37 141.9 96.6871 140.653 94.854 141.364Z" fill="#0F3970"/>
<path fill-rule="evenodd" clip-rule="evenodd" d="M94.0967 148.434L94.1365 148.431C94.8257 148.279 95.1931 148.185 95.3238 147.923C95.4431 147.685 95.3238 147.416 95.1059 146.928C94.8635 146.391 94.4981 145.573 94.1817 144.222C94.1591 144.123 94.0586 144.067 93.9621 144.086C93.8636 144.11 93.8011 144.207 93.8257 144.309C94.1494 145.689 94.5225 146.527 94.7705 147.081C94.9145 147.401 95.0376 147.678 94.9959 147.761C94.9373 147.876 94.4486 147.986 94.0566 148.071C93.9564 148.096 93.8938 148.192 93.9164 148.294C93.9357 148.376 94.0116 148.434 94.0967 148.434Z" fill="#E97850"/>
<path fill-rule="evenodd" clip-rule="evenodd" d="M96.8291 145.278C97.2799 145.233 97.4503 143.476 96.3577 143.596C95.7723 143.658 96.0924 145.357 96.8291 145.278Z" fill="#0F3970"/>
<path fill-rule="evenodd" clip-rule="evenodd" d="M90.6616 146.053C91.1123 146.002 91.2827 144.251 90.1899 144.369C89.6049 144.431 89.923 146.133 90.6616 146.053Z" fill="#0F3970"/>
<path fill-rule="evenodd" clip-rule="evenodd" d="M92.5805 150.934C92.0199 151.536 95.7582 151.579 96.4058 150.987C96.4779 150.923 96.7033 150.582 96.6256 150.48C96.548 150.378 96.1125 150.561 95.9949 150.59C94.8606 150.874 93.7925 150.987 92.5805 150.934Z" fill="white"/>
</svg>
