<svg width="373" height="68" viewBox="0 0 373 68" fill="none" xmlns="http://www.w3.org/2000/svg">
<g clip-path="url(#clip0_19_2)">
<path d="M23.1854 0.144531L50.6923 51.6234L77.8632 0.144531H100.714L63.7977 67.8572H37.8749L0.046875 0.144531H23.1854Z" fill="#86BF4E"/>
<path d="M98.3143 67.8572L125.821 16.3783L153.04 67.8572H175.843L138.975 0.144531H113.004L75.1758 67.8572H98.3143Z" fill="#86BF4E"/>
<path d="M125.678 41.0391L140.031 67.856H110.988L125.678 41.0391Z" fill="#86BF4E"/>
<path d="M228.551 16.9999V0.191406H151.406L160.527 16.9999H228.551Z" fill="#86BF4E"/>
<path d="M187.653 67.8553H228.553V51.0469H179.012L188.037 67.6638L187.653 67.8553Z" fill="#86BF4E"/>
<path d="M228.552 41.0892V27.6328H166.289L173.586 41.0892H228.552Z" fill="#86BF4E"/>
<path d="M244.25 0.433594L247.514 9.53218C247.562 9.67585 247.61 9.81951 247.658 9.96317C247.658 10.1068 247.706 10.2984 247.754 10.4899H247.85C247.898 10.2984 247.946 10.1068 247.946 9.96317C247.994 9.81951 248.042 9.67585 248.042 9.53218L251.45 0.433594H254.955L249.626 14.704H245.45L240.121 0.433594H244.25Z" fill="white"/>
<path d="M255.82 0.433594H259.565V14.704H255.82V0.433594Z" fill="white"/>
<path d="M261.531 10.2009H265.372V10.4882C265.372 11.0628 265.564 11.5417 265.9 11.829C266.284 12.1164 266.764 12.26 267.436 12.26C268.108 12.26 268.588 12.1164 268.924 11.8769C269.26 11.6375 269.452 11.3023 269.452 10.8713C269.452 10.3445 269.308 9.96143 268.972 9.722C268.636 9.48256 267.82 9.19524 266.476 8.90791C265.036 8.5727 263.835 8.04594 262.971 7.32763C262.107 6.60932 261.675 5.65157 261.675 4.45439C261.675 3.11355 262.203 2.01214 263.211 1.29383C264.268 0.52763 265.612 0.144531 267.34 0.144531C269.02 0.144531 270.412 0.52763 271.468 1.29383C272.524 2.06002 273.052 3.16143 273.052 4.50228V4.83749H269.308V4.59805C269.308 4.07129 269.164 3.68819 268.828 3.35298C268.492 3.06566 268.06 2.87411 267.436 2.87411C266.812 2.87411 266.332 2.96988 266.044 3.20932C265.756 3.44876 265.612 3.73608 265.612 4.11918C265.612 4.50228 265.756 4.83749 266.092 4.98115C266.428 5.1727 267.244 5.41214 268.54 5.74735C269.98 6.13045 271.132 6.65721 272.044 7.37552C272.956 8.09383 273.389 9.09946 273.389 10.4882C273.389 11.9727 272.86 13.0741 271.756 13.8403C270.7 14.6065 269.26 14.9896 267.484 14.9896C265.756 14.9896 264.316 14.6065 263.211 13.8882C262.107 13.1699 261.531 12.0206 261.531 10.5361V10.2009Z" fill="white"/>
<path d="M277.566 0.433594L280.83 9.53218C280.878 9.67585 280.926 9.81951 280.974 9.96317C280.974 10.1068 281.022 10.2984 281.07 10.4899H281.166C281.214 10.2984 281.262 10.1068 281.262 9.96317C281.31 9.81951 281.358 9.67585 281.358 9.53218L284.767 0.433594H288.271L282.943 14.704H278.766L273.438 0.433594H277.566Z" fill="white"/>
<path d="M289.23 0.433594H299.312V3.21106H292.975V5.98852H298.399V8.7181H292.975V11.9744H299.408V14.704H289.23V0.433594Z" fill="white"/>
<path d="M300.608 10.2009H304.448V10.4882C304.448 11.0628 304.64 11.5417 304.976 11.829C305.36 12.1164 305.84 12.26 306.512 12.26C307.184 12.26 307.664 12.1164 308.001 11.8769C308.337 11.6375 308.529 11.3023 308.529 10.8713C308.529 10.3445 308.385 9.96143 308.049 9.722C307.712 9.48256 306.896 9.19524 305.552 8.90791C304.112 8.5727 302.912 8.04594 302.048 7.32763C301.184 6.60932 300.752 5.65157 300.704 4.45439C300.704 3.11355 301.232 2.01214 302.24 1.29383C303.296 0.52763 304.64 0.144531 306.368 0.144531C308.049 0.144531 309.441 0.52763 310.497 1.29383C311.553 2.06002 312.081 3.16143 312.081 4.50228V4.83749H308.289V4.59805C308.289 4.07129 308.145 3.68819 307.809 3.35298C307.472 3.06566 307.04 2.87411 306.416 2.87411C305.792 2.87411 305.312 2.96988 305.024 3.20932C304.736 3.44876 304.592 3.73608 304.592 4.11918C304.592 4.50228 304.736 4.83749 305.072 4.98115C305.408 5.1727 306.224 5.41214 307.52 5.74735C308.961 6.13045 310.113 6.65721 311.025 7.37552C311.937 8.09383 312.369 9.09946 312.369 10.4882C312.369 11.9727 311.841 13.0741 310.737 13.8403C309.681 14.6065 308.241 14.9896 306.464 14.9896C304.736 14.9896 303.296 14.6065 302.192 13.8882C301.088 13.1699 300.512 12.0206 300.512 10.5361V10.2009H300.608Z" fill="white"/>
<path d="M240.121 41.5664H250.154V44.3439H243.817V47.1213H249.242V49.803H243.817V53.0115H250.25V55.7411H240.121V41.5664Z" fill="white"/>
<path d="M252.266 41.5664H256.298L260.523 49.6115C260.619 49.803 260.715 49.9946 260.763 50.1382C260.811 50.2819 260.907 50.4734 260.955 50.7129H261.051C261.051 50.4734 261.051 50.2819 261.003 50.1382C261.003 49.9946 261.003 49.7551 261.003 49.5636V41.5664H264.123V55.7889H259.994L255.866 47.8396C255.77 47.6481 255.674 47.4565 255.626 47.265C255.578 47.0734 255.53 46.8819 255.434 46.6425H255.338C255.338 46.8819 255.338 47.1213 255.386 47.3129C255.386 47.5044 255.386 47.7439 255.386 47.9833V55.7411H252.266V41.5664Z" fill="white"/>
<path d="M266.38 48.221C266.38 45.8745 267.004 44.1506 268.204 43.0013C269.404 41.852 271.037 41.2773 273.053 41.2773C274.925 41.2773 276.365 41.7083 277.469 42.5703C278.573 43.4323 279.053 44.5337 279.005 45.9224V46.0661H275.213V45.9703C275.213 45.3957 275.021 44.9168 274.637 44.5816C274.253 44.2464 273.677 44.0548 272.861 44.0548C272.045 44.0548 271.421 44.3421 270.941 44.9168C270.46 45.4914 270.22 46.4013 270.22 47.7421V49.6576C270.22 51.0464 270.508 52.0041 271.085 52.5309C271.661 53.0576 272.381 53.345 273.293 53.345C273.725 53.345 274.109 53.2971 274.397 53.2013C274.685 53.1055 275.021 52.9619 275.309 52.7224V50.7111H273.053V48.0295H278.957V53.9196C278.429 54.4464 277.709 54.9252 276.749 55.3562C275.789 55.7872 274.637 56.0266 273.245 56.0266C271.085 56.0266 269.356 55.452 268.156 54.3027C266.956 53.1534 266.332 51.4295 266.332 49.083V48.221H266.38Z" fill="white"/>
<path d="M281.07 41.5664H284.815V55.7889H281.07V41.5664Z" fill="white"/>
<path d="M287.598 41.5664H291.63L295.855 49.6115C295.951 49.803 296.047 49.9946 296.095 50.1382C296.143 50.2819 296.239 50.4734 296.287 50.7129H296.383C296.383 50.4734 296.383 50.2819 296.335 50.1382C296.335 49.9946 296.335 49.7551 296.335 49.5636V41.5664H299.455V55.7889H295.327L291.198 47.8396C291.102 47.6481 291.006 47.4565 290.958 47.265C290.91 47.0734 290.862 46.8819 290.766 46.6425H290.67C290.67 46.8819 290.67 47.1213 290.718 47.3129C290.718 47.5044 290.718 47.7439 290.718 47.9833V55.7411H287.598V41.5664Z" fill="white"/>
<path d="M302.238 41.5664H312.271V44.3439H305.935V47.1213H311.359V49.803H305.935V53.0115H312.367V55.7411H302.238V41.5664Z" fill="white"/>
<path d="M314.434 41.5664H324.467V44.3439H318.13V47.1213H323.555V49.803H318.13V53.0115H324.563V55.7411H314.434V41.5664Z" fill="white"/>
<path d="M326.578 41.5664H332.147C333.923 41.5664 335.267 41.9495 336.275 42.7636C337.283 43.5777 337.763 44.727 337.763 46.2594C337.763 47.7918 337.283 48.9889 336.275 49.803C335.267 50.6171 333.875 51.0481 332.147 51.0481H330.371V55.7889H326.626V41.5664H326.578ZM331.955 48.4143C332.675 48.4143 333.203 48.2227 333.539 47.8875C333.875 47.5523 334.019 47.0256 334.019 46.3072C334.019 45.6368 333.875 45.1101 333.539 44.7749C333.203 44.4396 332.675 44.296 331.955 44.296H330.323V48.4143H331.955ZM330.899 49.2284L334.931 49.1805L338.387 55.7889H334.211L330.899 49.2284Z" fill="white"/>
<path d="M339.684 41.5664H343.428V55.7889H339.684V41.5664Z" fill="white"/>
<path d="M346.164 41.5664H350.197L354.421 49.6115C354.517 49.803 354.613 49.9946 354.661 50.1382C354.709 50.2819 354.805 50.4734 354.853 50.7129H354.949C354.949 50.4734 354.949 50.2819 354.901 50.1382C354.901 49.9946 354.901 49.7551 354.901 49.5636V41.5664H358.021V55.7889H353.893L349.764 47.8396C349.668 47.6481 349.572 47.4565 349.524 47.265C349.476 47.0734 349.428 46.8819 349.332 46.6425H349.236C349.236 46.8819 349.236 47.1213 349.284 47.3129C349.284 47.5044 349.284 47.7439 349.284 47.9833V55.7411H346.164V41.5664Z" fill="white"/>
<path d="M360.325 48.221C360.325 45.8745 360.949 44.1506 362.15 43.0013C363.35 41.852 364.982 41.2773 366.998 41.2773C368.87 41.2773 370.31 41.7083 371.415 42.5703C372.519 43.4323 372.999 44.5337 372.951 45.9224V46.0661H369.158V45.9703C369.158 45.3957 368.966 44.9168 368.582 44.5816C368.198 44.2464 367.622 44.0548 366.806 44.0548C365.99 44.0548 365.366 44.3421 364.886 44.9168C364.406 45.4914 364.166 46.4013 364.166 47.7421V49.6576C364.166 51.0464 364.454 52.0041 365.03 52.5309C365.606 53.0576 366.326 53.345 367.238 53.345C367.67 53.345 368.054 53.2971 368.342 53.2013C368.63 53.1055 368.966 52.9619 369.254 52.7224V50.7111H366.998V48.0295H372.903V53.9196C372.375 54.4464 371.655 54.9252 370.694 55.3562C369.734 55.7872 368.582 56.0266 367.19 56.0266C365.03 56.0266 363.302 55.452 362.102 54.3027C360.901 53.1534 360.277 51.4295 360.277 49.083V48.221H360.325Z" fill="white"/>
<path d="M245.499 20.7812H249.627L255.196 35.0517H251.115L247.611 25.4742C247.515 25.2827 247.467 25.0432 247.419 24.8517C247.371 24.6601 247.323 24.4686 247.323 24.2291H247.227C247.179 24.4207 247.179 24.6122 247.131 24.8517C247.083 25.0432 247.035 25.2827 246.939 25.4742L243.483 35.0517H240.074L245.499 20.7812ZM244.443 29.5925H250.443L251.259 32.2742H243.675L244.443 29.5925Z" fill="white"/>
<path d="M256.156 20.832H261.293C263.261 20.832 264.941 21.4067 266.285 22.556C267.629 23.7053 268.302 25.3334 268.302 27.4884V28.3982C268.302 30.5532 267.629 32.1813 266.285 33.3306C264.941 34.4799 263.261 35.0546 261.293 35.0546H256.156V20.832ZM261.245 32.325C262.205 32.325 262.973 31.9898 263.549 31.3672C264.173 30.7447 264.461 29.7391 264.461 28.4461V27.3926C264.461 26.0518 264.173 25.094 263.549 24.4715C262.925 23.8489 262.157 23.5616 261.245 23.5616H259.901V32.3729H261.245V32.325Z" fill="white"/>
<path d="M272.621 20.832L275.885 29.9306C275.933 30.0743 275.981 30.2179 276.029 30.3616C276.029 30.5053 276.077 30.6968 276.125 30.8884H276.221C276.269 30.6968 276.317 30.5053 276.317 30.3616C276.365 30.2179 276.365 30.0743 276.413 29.9306L279.773 20.832H283.278L277.997 35.0546H273.821L268.492 20.832H272.621Z" fill="white"/>
<path d="M287.073 20.7812H291.201L296.77 35.0517H292.69L289.185 25.4742C289.089 25.2827 289.041 25.0432 288.993 24.8517C288.945 24.6601 288.897 24.4686 288.897 24.2291H288.801C288.753 24.4207 288.753 24.6122 288.705 24.8517C288.657 25.0432 288.609 25.2827 288.513 25.4742L285.057 35.0517H281.648L287.073 20.7812ZM286.017 29.5925H292.018L292.834 32.2742H285.249L286.017 29.5925Z" fill="white"/>
<path d="M297.727 20.832H301.759L305.983 28.8771C306.079 29.0687 306.175 29.2602 306.223 29.4039C306.271 29.5475 306.367 29.7391 306.415 29.9785H306.511C306.511 29.7391 306.512 29.5475 306.464 29.4039C306.464 29.2602 306.464 29.0208 306.464 28.8292V20.832H309.584V35.0546H305.455L301.327 27.1053C301.231 26.9137 301.135 26.7222 301.087 26.5306C301.039 26.3391 300.991 26.1475 300.895 25.9081H300.799C300.799 26.1475 300.799 26.387 300.847 26.5785C300.847 26.7701 300.847 27.0095 300.847 27.2489V35.0067H297.727V20.832Z" fill="white"/>
<path d="M311.844 27.4866C311.844 25.1402 312.468 23.4162 313.668 22.2669C314.868 21.1176 316.5 20.543 318.516 20.543C320.389 20.543 321.877 21.0218 322.981 21.9796C324.085 22.9373 324.661 24.1824 324.661 25.7627V26.0979H320.869V25.7148C320.869 24.9007 320.677 24.2782 320.293 23.943C319.909 23.5599 319.285 23.3683 318.516 23.3683C317.652 23.3683 317.028 23.6556 316.548 24.1824C316.068 24.7092 315.828 25.6669 315.828 27.0078V28.9711C315.828 30.2641 316.068 31.174 316.548 31.7486C317.028 32.3233 317.7 32.6106 318.612 32.6106C319.381 32.6106 319.957 32.419 320.341 31.988C320.725 31.5571 320.917 30.9824 320.917 30.2162V29.881H324.709V30.1683C324.661 31.7007 324.133 32.9458 323.029 33.9035C321.925 34.8613 320.437 35.3402 318.612 35.3402C316.596 35.3402 314.964 34.7655 313.764 33.5683C312.564 32.419 311.94 30.6472 311.94 28.3965V27.4866H311.844Z" fill="white"/>
<path d="M326.387 20.832H336.42V23.6095H330.083V26.387H335.508V29.0687H330.083V32.2771H336.516V35.0067H326.387V20.832Z" fill="white"/>
<path d="M240.218 65.9904H241.13V66.0383C241.13 66.3735 241.226 66.6129 241.466 66.7566C241.706 66.9003 241.994 66.996 242.378 66.996C242.763 66.996 243.051 66.9003 243.243 66.7566C243.435 66.6129 243.531 66.3735 243.531 66.1341C243.531 65.8946 243.435 65.7031 243.243 65.5594C243.051 65.4158 242.666 65.2721 242.042 65.0806C241.418 64.889 240.986 64.6975 240.698 64.458C240.41 64.2186 240.266 63.8355 240.266 63.4045C240.266 62.9256 240.458 62.5425 240.794 62.2552C241.13 61.9679 241.658 61.8242 242.234 61.8242C242.811 61.8242 243.339 61.9679 243.723 62.3031C244.107 62.5904 244.251 63.0214 244.251 63.5003V63.5482H243.339V63.5003C243.339 63.213 243.243 62.9735 243.051 62.8298C242.859 62.6383 242.57 62.5904 242.186 62.5904C241.802 62.5904 241.562 62.6862 241.37 62.8298C241.178 62.9735 241.082 63.1651 241.082 63.4045C241.082 63.6439 241.178 63.8355 241.37 63.9313C241.562 64.0749 241.946 64.2186 242.522 64.3622C243.147 64.5059 243.579 64.7453 243.867 64.9848C244.155 65.2721 244.299 65.6073 244.299 66.0862C244.299 66.5651 244.107 66.996 243.723 67.2834C243.339 67.5707 242.811 67.7144 242.186 67.7144C241.562 67.7144 241.034 67.5707 240.65 67.2834C240.266 66.996 240.074 66.5651 240.074 66.0383V65.9904H240.218Z" fill="#999999"/>
<path d="M245.258 63.4971H246.074L246.122 64.0239C246.266 63.8323 246.41 63.6887 246.65 63.5929C246.89 63.4971 247.082 63.4492 247.322 63.4492C247.61 63.4492 247.85 63.4971 248.042 63.6408C248.234 63.7365 248.426 63.9281 248.522 64.1675C248.666 63.9281 248.858 63.7365 249.098 63.6408C249.338 63.545 249.578 63.4492 249.818 63.4492C250.25 63.4492 250.586 63.5929 250.826 63.8323C251.066 64.0718 251.21 64.5027 251.21 65.0774V67.6633H250.346V65.0295C250.346 64.7422 250.298 64.5027 250.154 64.3591C250.01 64.2154 249.866 64.1675 249.626 64.1675C249.434 64.1675 249.242 64.2154 249.098 64.3591C248.954 64.4548 248.81 64.6464 248.714 64.8379V67.7112H247.85V65.0774C247.85 64.7901 247.802 64.5506 247.658 64.407C247.514 64.2633 247.322 64.2154 247.082 64.2154C246.89 64.2154 246.698 64.2633 246.554 64.407C246.41 64.5027 246.266 64.6943 246.17 64.8858V67.7591H245.306V63.4971H245.258Z" fill="#999999"/>
<path d="M252.602 65.4136C252.938 65.1742 253.37 65.0784 253.898 65.0784H254.811V64.839C254.811 64.5995 254.763 64.408 254.619 64.2643C254.474 64.1207 254.282 64.0728 253.994 64.0728C253.706 64.0728 253.514 64.1207 253.37 64.2643C253.226 64.408 253.178 64.5038 253.178 64.6953V64.7432H252.314V64.6474C252.314 64.3122 252.458 64.0249 252.794 63.7854C253.082 63.546 253.514 63.4023 254.042 63.4023C254.571 63.4023 254.955 63.4981 255.243 63.7376C255.531 63.977 255.675 64.3122 255.675 64.7911V66.6587C255.675 66.8502 255.675 66.9939 255.723 67.1376C255.771 67.2812 255.771 67.4249 255.819 67.5207V67.5685H254.955C254.907 67.5207 254.907 67.4249 254.859 67.3291C254.811 67.2333 254.811 67.1376 254.811 67.0418C254.715 67.1854 254.57 67.3291 254.33 67.4728C254.09 67.6164 253.85 67.6643 253.514 67.6643C253.13 67.6643 252.794 67.5685 252.506 67.3291C252.218 67.0897 252.074 66.8023 252.074 66.3714C252.074 65.9883 252.266 65.6531 252.602 65.4136ZM253.13 66.8502C253.274 66.9939 253.466 67.0418 253.706 67.0418C253.994 67.0418 254.234 66.946 254.426 66.7545C254.619 66.5629 254.763 66.3714 254.763 66.1319V65.6052H253.994C253.658 65.6052 253.37 65.653 253.226 65.7967C253.082 65.9404 252.986 66.084 252.986 66.3235C252.986 66.5629 253.034 66.7545 253.13 66.8502Z" fill="#999999"/>
<path d="M256.781 63.4991H257.597L257.645 63.978C257.741 63.8343 257.885 63.6907 258.029 63.547C258.173 63.4034 258.365 63.3555 258.605 63.3555C258.653 63.3555 258.701 63.3555 258.797 63.3555C258.893 63.3555 258.893 63.4034 258.941 63.4034V64.1696C258.893 64.1696 258.845 64.1695 258.797 64.1217C258.749 64.1217 258.701 64.1217 258.605 64.1217C258.413 64.1217 258.221 64.1696 258.029 64.3132C257.885 64.409 257.741 64.6005 257.693 64.7442V67.5696H256.829V63.4991H256.781Z" fill="#999999"/>
<path d="M259.18 63.4968H261.58V64.1672H259.18V63.4968ZM259.9 63.8799V63.7841V62.5391H260.764V66.5616C260.764 66.7531 260.812 66.8968 260.86 66.9447C260.908 66.9926 261.052 67.0405 261.196 67.0405C261.244 67.0405 261.34 67.0405 261.388 67.0405C261.436 67.0405 261.532 66.9926 261.58 66.9926V67.663C261.532 67.7109 261.436 67.7109 261.34 67.7588C261.244 67.7588 261.1 67.8067 260.956 67.8067C260.62 67.8067 260.38 67.7109 260.14 67.5193C259.948 67.3278 259.852 67.0405 259.852 66.6095V63.8799H259.9Z" fill="#999999"/>
<path d="M264.414 61.918H265.326V67.6166H264.414V61.918Z" fill="#999999"/>
<path d="M266.523 63.4971H267.34L267.388 64.0239C267.532 63.8323 267.676 63.6887 267.916 63.5929C268.108 63.4971 268.348 63.4492 268.636 63.4492C269.068 63.4492 269.404 63.545 269.644 63.7844C269.884 64.0239 270.028 64.407 270.028 64.9816V67.6154H269.164V64.9816C269.164 64.6943 269.116 64.4549 268.972 64.3112C268.828 64.1675 268.636 64.1196 268.396 64.1196C268.204 64.1196 268.012 64.1675 267.82 64.3112C267.676 64.407 267.532 64.5985 267.436 64.7901V67.6633H266.571V63.4971H266.523Z" fill="#999999"/>
<path d="M271.086 63.4971H271.902L271.95 64.0239C272.094 63.8323 272.238 63.6887 272.478 63.5929C272.67 63.4971 272.91 63.4492 273.198 63.4492C273.63 63.4492 273.966 63.545 274.206 63.7844C274.446 64.0239 274.59 64.407 274.59 64.9816V67.6154H273.726V64.9816C273.726 64.6943 273.678 64.4549 273.534 64.3112C273.39 64.1675 273.198 64.1196 272.958 64.1196C272.766 64.1196 272.574 64.1675 272.382 64.3112C272.238 64.407 272.094 64.5985 271.998 64.7901V67.6633H271.134V63.4971H271.086Z" fill="#999999"/>
<path d="M275.406 65.5094C275.406 64.8869 275.598 64.3601 275.934 63.977C276.318 63.5939 276.798 63.4023 277.374 63.4023C277.951 63.4023 278.479 63.5939 278.815 63.977C279.199 64.3601 279.343 64.8869 279.343 65.5094V65.6531C279.343 66.2756 279.151 66.8023 278.815 67.1854C278.431 67.5685 277.951 67.7601 277.374 67.7601C276.798 67.7601 276.27 67.5685 275.934 67.1854C275.55 66.8023 275.406 66.2756 275.406 65.6531V65.5094ZM276.318 65.6531C276.318 66.084 276.414 66.4192 276.606 66.6587C276.798 66.8981 277.086 67.0418 277.422 67.0418C277.807 67.0418 278.047 66.8981 278.239 66.6587C278.431 66.4192 278.527 66.084 278.527 65.6531V65.4615C278.527 65.0305 278.431 64.6953 278.239 64.4559C278.047 64.2164 277.759 64.0728 277.422 64.0728C277.038 64.0728 276.798 64.2164 276.606 64.4559C276.414 64.6953 276.318 65.0784 276.318 65.4615V65.6531Z" fill="#999999"/>
<path d="M280.493 63.5L281.453 66.1338C281.501 66.2296 281.501 66.3253 281.549 66.4211C281.549 66.5169 281.597 66.5648 281.597 66.6606C281.597 66.6127 281.645 66.5169 281.645 66.4211C281.645 66.3253 281.693 66.2296 281.741 66.1338L282.701 63.5H283.517L281.933 67.6183H281.213L279.629 63.5H280.493Z" fill="#999999"/>
<path d="M284.286 65.4136C284.622 65.1742 285.054 65.0784 285.582 65.0784H286.494V64.839C286.494 64.5995 286.446 64.408 286.302 64.2643C286.158 64.1207 285.966 64.0728 285.678 64.0728C285.39 64.0728 285.198 64.1207 285.054 64.2643C284.91 64.408 284.862 64.5038 284.862 64.6953V64.7432H283.998V64.6474C283.998 64.3122 284.142 64.0249 284.478 63.7854C284.766 63.546 285.198 63.4023 285.726 63.4023C286.254 63.4023 286.638 63.4981 286.926 63.7376C287.214 63.977 287.358 64.3122 287.358 64.7911V66.6587C287.358 66.8502 287.358 66.9939 287.406 67.1376C287.454 67.2812 287.454 67.4249 287.502 67.5207V67.5685H286.638C286.59 67.5207 286.59 67.4249 286.542 67.3291C286.494 67.2333 286.494 67.1376 286.494 67.0418C286.398 67.1854 286.254 67.3291 286.014 67.4728C285.774 67.6164 285.534 67.6643 285.198 67.6643C284.814 67.6643 284.478 67.5685 284.19 67.3291C283.902 67.0897 283.758 66.8023 283.758 66.3714C283.758 65.9883 283.95 65.6531 284.286 65.4136ZM284.814 66.8502C284.958 66.9939 285.15 67.0418 285.39 67.0418C285.678 67.0418 285.918 66.946 286.11 66.7545C286.302 66.5629 286.446 66.3714 286.446 66.1319V65.6052H285.678C285.342 65.6052 285.054 65.653 284.91 65.7967C284.766 65.9404 284.67 66.084 284.67 66.3235C284.67 66.5629 284.718 66.7545 284.814 66.8502Z" fill="#999999"/>
<path d="M287.887 63.4968H290.287V64.1672H287.887V63.4968ZM288.559 63.8799V63.7841V62.5391H289.423V66.5616C289.423 66.7531 289.471 66.8968 289.519 66.9447C289.567 66.9926 289.711 67.0405 289.855 67.0405C289.903 67.0405 289.999 67.0405 290.047 67.0405C290.095 67.0405 290.191 66.9926 290.239 66.9926V67.663C290.191 67.7109 290.095 67.7109 289.999 67.7588C289.903 67.7588 289.759 67.8067 289.615 67.8067C289.279 67.8067 289.039 67.7109 288.799 67.5193C288.607 67.3278 288.511 67.0405 288.511 66.6095V63.8799H288.559Z" fill="#999999"/>
<path d="M291.105 61.9171C291.201 61.8213 291.345 61.7734 291.489 61.7734C291.681 61.7734 291.777 61.8213 291.873 61.9171C291.969 62.0129 292.017 62.1086 292.017 62.2523C292.017 62.396 291.969 62.4917 291.873 62.5875C291.777 62.6833 291.633 62.7312 291.489 62.7312C291.297 62.7312 291.201 62.6833 291.105 62.5875C291.009 62.4917 290.961 62.396 290.961 62.2523C290.961 62.1086 291.009 62.0129 291.105 61.9171ZM291.057 63.4974H291.921V67.6157H291.057V63.4974Z" fill="#999999"/>
<path d="M292.832 65.5094C292.832 64.8869 293.024 64.3601 293.36 63.977C293.744 63.5939 294.224 63.4023 294.8 63.4023C295.376 63.4023 295.904 63.5939 296.24 63.977C296.624 64.3601 296.768 64.8869 296.768 65.5094V65.6531C296.768 66.2756 296.576 66.8023 296.24 67.1854C295.856 67.5685 295.376 67.7601 294.8 67.7601C294.224 67.7601 293.696 67.5685 293.36 67.1854C292.976 66.8023 292.832 66.2756 292.832 65.6531V65.5094ZM293.744 65.6531C293.744 66.084 293.84 66.4192 294.032 66.6587C294.224 66.8981 294.512 67.0418 294.848 67.0418C295.232 67.0418 295.472 66.8981 295.664 66.6587C295.856 66.4192 295.952 66.084 295.952 65.6531V65.4615C295.952 65.0305 295.856 64.6953 295.664 64.4559C295.472 64.2164 295.184 64.0728 294.848 64.0728C294.464 64.0728 294.224 64.2164 294.032 64.4559C293.84 64.6953 293.744 65.0784 293.744 65.4615V65.6531Z" fill="#999999"/>
<path d="M297.727 63.4971H298.543L298.591 64.0239C298.735 63.8323 298.879 63.6887 299.119 63.5929C299.311 63.4971 299.551 63.4492 299.839 63.4492C300.271 63.4492 300.607 63.545 300.847 63.7844C301.087 64.0239 301.231 64.407 301.231 64.9816V67.6154H300.367V64.9816C300.367 64.6943 300.319 64.4549 300.175 64.3112C300.031 64.1675 299.839 64.1196 299.599 64.1196C299.407 64.1196 299.215 64.1675 299.023 64.3112C298.879 64.407 298.735 64.5985 298.639 64.7901V67.6633H297.775V63.4971H297.727Z" fill="#999999"/>
<path d="M303.777 63.4985H304.737H304.929H306.13V64.169H303.777V63.4985ZM304.401 63.0197C304.401 62.5408 304.545 62.1577 304.785 61.9183C305.025 61.6788 305.41 61.5352 305.842 61.5352C305.938 61.5352 306.034 61.5352 306.13 61.5352C306.226 61.5352 306.322 61.583 306.37 61.583L306.322 62.2535C306.274 62.2535 306.226 62.2535 306.13 62.2056C306.082 62.2056 305.986 62.2056 305.938 62.2056C305.698 62.2056 305.554 62.2535 305.41 62.3971C305.266 62.5408 305.217 62.7323 305.217 62.9718V63.738V63.8337V67.6168H304.353V63.0197H304.401Z" fill="#999999"/>
<path d="M306.418 65.5094C306.418 64.8869 306.61 64.3601 306.946 63.977C307.33 63.5939 307.81 63.4023 308.386 63.4023C308.962 63.4023 309.49 63.5939 309.826 63.977C310.21 64.3601 310.354 64.8869 310.354 65.5094V65.6531C310.354 66.2756 310.162 66.8023 309.826 67.1854C309.442 67.5685 308.962 67.7601 308.386 67.7601C307.81 67.7601 307.282 67.5685 306.946 67.1854C306.562 66.8023 306.418 66.2756 306.418 65.6531V65.5094ZM307.33 65.6531C307.33 66.084 307.426 66.4192 307.618 66.6587C307.81 66.8981 308.098 67.0418 308.434 67.0418C308.818 67.0418 309.058 66.8981 309.25 66.6587C309.442 66.4192 309.538 66.084 309.538 65.6531V65.4615C309.538 65.0305 309.442 64.6953 309.25 64.4559C309.058 64.2164 308.77 64.0728 308.434 64.0728C308.05 64.0728 307.81 64.2164 307.618 64.4559C307.426 64.6953 307.33 65.0784 307.33 65.4615V65.6531Z" fill="#999999"/>
<path d="M311.312 63.4991H312.129L312.177 63.978C312.273 63.8343 312.417 63.6907 312.561 63.547C312.705 63.4034 312.897 63.3555 313.137 63.3555C313.185 63.3555 313.233 63.3555 313.329 63.3555C313.425 63.3555 313.425 63.4034 313.473 63.4034V64.1696C313.425 64.1696 313.377 64.1695 313.329 64.1217C313.281 64.1217 313.233 64.1217 313.137 64.1217C312.945 64.1217 312.753 64.1696 312.561 64.3132C312.417 64.409 312.273 64.6005 312.225 64.7442V67.5696H311.36V63.4991H311.312Z" fill="#999999"/>
<path d="M315.828 65.9904H316.74V66.0383C316.74 66.3735 316.836 66.6129 317.076 66.7566C317.316 66.9003 317.604 66.996 317.988 66.996C318.372 66.996 318.66 66.9003 318.852 66.7566C319.044 66.6129 319.14 66.3735 319.14 66.1341C319.14 65.8946 319.044 65.7031 318.852 65.5594C318.66 65.4158 318.276 65.2721 317.652 65.0806C317.028 64.889 316.596 64.6975 316.308 64.458C316.02 64.2186 315.876 63.8355 315.876 63.4045C315.876 62.9256 316.068 62.5425 316.404 62.2552C316.74 61.9679 317.268 61.8242 317.844 61.8242C318.42 61.8242 318.948 61.9679 319.332 62.3031C319.716 62.5904 319.86 63.0214 319.86 63.5003V63.5482H318.948V63.5003C318.948 63.213 318.852 62.9735 318.66 62.8298C318.468 62.6383 318.18 62.5904 317.796 62.5904C317.412 62.5904 317.172 62.6862 316.98 62.8298C316.788 62.9735 316.692 63.1651 316.692 63.4045C316.692 63.6439 316.788 63.8355 316.98 63.9313C317.172 64.0749 317.556 64.2186 318.132 64.3622C318.756 64.5059 319.188 64.7453 319.476 64.9848C319.764 65.2721 319.908 65.6073 319.908 66.0862C319.908 66.5651 319.716 66.996 319.332 67.2834C318.948 67.5707 318.42 67.7144 317.796 67.7144C317.172 67.7144 316.644 67.5707 316.26 67.2834C315.876 66.996 315.684 66.5651 315.684 66.0383V65.9904H315.828Z" fill="#999999"/>
<path d="M320.914 63.4971H321.73L321.778 64.0239C321.922 63.8323 322.066 63.6887 322.306 63.5929C322.546 63.4971 322.738 63.4492 322.978 63.4492C323.266 63.4492 323.506 63.4971 323.698 63.6408C323.89 63.7365 324.082 63.9281 324.178 64.1675C324.322 63.9281 324.514 63.7365 324.754 63.6408C324.995 63.545 325.235 63.4492 325.475 63.4492C325.907 63.4492 326.243 63.5929 326.483 63.8323C326.723 64.0718 326.867 64.5027 326.867 65.0774V67.6633H326.003V65.0295C326.003 64.7422 325.955 64.5027 325.811 64.3591C325.667 64.2154 325.523 64.1675 325.283 64.1675C325.09 64.1675 324.898 64.2154 324.754 64.3591C324.61 64.4548 324.466 64.6464 324.37 64.8379V67.7112H323.506V65.0774C323.506 64.7901 323.458 64.5506 323.314 64.407C323.17 64.2633 322.978 64.2154 322.738 64.2154C322.546 64.2154 322.354 64.2633 322.21 64.407C322.066 64.5027 321.922 64.6943 321.826 64.8858V67.7591H320.962V63.4971H320.914Z" fill="#999999"/>
<path d="M328.259 65.4136C328.595 65.1742 329.027 65.0784 329.555 65.0784H330.467V64.839C330.467 64.5995 330.419 64.408 330.275 64.2643C330.131 64.1207 329.939 64.0728 329.651 64.0728C329.363 64.0728 329.171 64.1207 329.027 64.2643C328.883 64.408 328.835 64.5038 328.835 64.6953V64.7432H327.97V64.6474C327.97 64.3122 328.115 64.0249 328.451 63.7854C328.739 63.546 329.171 63.4023 329.699 63.4023C330.227 63.4023 330.611 63.4981 330.899 63.7376C331.187 63.977 331.331 64.3122 331.331 64.7911V66.6587C331.331 66.8502 331.331 66.9939 331.379 67.1376C331.427 67.2812 331.427 67.4249 331.475 67.5207V67.5685H330.611C330.563 67.5207 330.563 67.4249 330.515 67.3291C330.467 67.2333 330.467 67.1376 330.467 67.0418C330.371 67.1854 330.227 67.3291 329.987 67.4728C329.747 67.6164 329.507 67.6643 329.171 67.6643C328.787 67.6643 328.451 67.5685 328.162 67.3291C327.874 67.0897 327.73 66.8023 327.73 66.3714C327.73 65.9883 327.922 65.6531 328.259 65.4136ZM328.787 66.8502C328.931 66.9939 329.123 67.0418 329.363 67.0418C329.651 67.0418 329.891 66.946 330.083 66.7545C330.275 66.5629 330.419 66.3714 330.419 66.1319V65.6052H329.651C329.315 65.6052 329.027 65.653 328.883 65.7967C328.739 65.9404 328.643 66.084 328.643 66.3235C328.643 66.5629 328.691 66.7545 328.787 66.8502Z" fill="#999999"/>
<path d="M332.387 63.4991H333.203L333.251 63.978C333.347 63.8343 333.491 63.6907 333.635 63.547C333.779 63.4034 333.971 63.3555 334.211 63.3555C334.259 63.3555 334.307 63.3555 334.403 63.3555C334.499 63.3555 334.499 63.4034 334.547 63.4034V64.1696C334.499 64.1696 334.451 64.1695 334.403 64.1217C334.355 64.1217 334.307 64.1217 334.211 64.1217C334.019 64.1217 333.827 64.1696 333.635 64.3132C333.491 64.409 333.347 64.6005 333.299 64.7442V67.5696H332.435V63.4991H332.387Z" fill="#999999"/>
<path d="M334.836 63.4968H337.236V64.1672H334.836V63.4968ZM335.556 63.8799V63.7841V62.5391H336.42V66.5616C336.42 66.7531 336.468 66.8968 336.516 66.9447C336.564 66.9926 336.708 67.0405 336.852 67.0405C336.9 67.0405 336.996 67.0405 337.044 67.0405C337.092 67.0405 337.188 66.9926 337.236 66.9926V67.663C337.188 67.7109 337.092 67.7109 336.996 67.7588C336.9 67.7588 336.756 67.8067 336.612 67.8067C336.276 67.8067 336.036 67.7109 335.796 67.5193C335.604 67.3278 335.508 67.0405 335.508 66.6095V63.8799H335.556Z" fill="#999999"/>
<path d="M337.763 65.5094C337.763 64.8869 337.955 64.3601 338.291 63.977C338.627 63.5939 339.107 63.4023 339.683 63.4023C340.259 63.4023 340.691 63.5939 341.027 63.9291C341.363 64.3122 341.507 64.7911 341.507 65.4136V65.7488H338.339V65.1263H340.643V65.0305C340.643 64.7432 340.547 64.5038 340.403 64.3122C340.259 64.1207 340.019 64.0249 339.731 64.0249C339.395 64.0249 339.107 64.1685 338.915 64.408C338.723 64.6953 338.627 65.0305 338.627 65.4136V65.6052C338.627 65.9883 338.723 66.3235 338.915 66.6108C339.107 66.8981 339.395 66.9939 339.779 66.9939C340.019 66.9939 340.259 66.946 340.403 66.8023C340.595 66.7066 340.739 66.5629 340.835 66.4192L341.411 66.8502C341.267 67.0418 341.075 67.2333 340.787 67.4249C340.499 67.5685 340.163 67.6643 339.731 67.6643C339.059 67.6643 338.579 67.4728 338.243 67.0897C337.907 66.7066 337.715 66.1798 337.715 65.5573V65.5094H337.763Z" fill="#999999"/>
<path d="M342.324 63.4991H343.14L343.188 63.978C343.284 63.8343 343.428 63.6907 343.572 63.547C343.716 63.4034 343.908 63.3555 344.148 63.3555C344.196 63.3555 344.244 63.3555 344.34 63.3555C344.436 63.3555 344.436 63.4034 344.484 63.4034V64.1696C344.436 64.1696 344.388 64.1695 344.34 64.1217C344.292 64.1217 344.244 64.1217 344.148 64.1217C343.956 64.1217 343.764 64.1696 343.572 64.3132C343.428 64.409 343.284 64.6005 343.236 64.7442V67.5696H342.372V63.4991H342.324Z" fill="#999999"/>
<path d="M347.223 61.918H348.135V67.6166H347.223V61.918Z" fill="#999999"/>
<path d="M349.332 63.4971H350.148L350.196 64.0239C350.34 63.8323 350.484 63.6887 350.724 63.5929C350.916 63.4971 351.156 63.4492 351.444 63.4492C351.876 63.4492 352.212 63.545 352.452 63.7844C352.692 64.0239 352.836 64.407 352.836 64.9816V67.6154H351.972V64.9816C351.972 64.6943 351.924 64.4549 351.78 64.3112C351.636 64.1675 351.444 64.1196 351.204 64.1196C351.012 64.1196 350.82 64.1675 350.628 64.3112C350.484 64.407 350.34 64.5985 350.244 64.7901V67.6633H349.38V63.4971H349.332Z" fill="#999999"/>
<path d="M353.653 65.5117C353.653 64.8892 353.798 64.4103 354.134 64.0272C354.47 63.6441 354.854 63.4525 355.382 63.4525C355.67 63.4525 355.91 63.5004 356.102 63.5962C356.294 63.692 356.438 63.8356 356.582 63.9793V61.6328H357.446V67.6187H356.63L356.582 67.092C356.486 67.2356 356.342 67.3793 356.102 67.523C355.91 67.6187 355.67 67.7145 355.382 67.7145C354.854 67.7145 354.422 67.523 354.086 67.1399C353.749 66.7568 353.605 66.23 353.605 65.6554V65.5117H353.653ZM354.806 66.6131C354.998 66.8525 355.238 66.9962 355.622 66.9962C355.862 66.9962 356.054 66.9483 356.246 66.8046C356.438 66.661 356.534 66.5173 356.63 66.3258V64.7455C356.534 64.5539 356.438 64.4103 356.246 64.2666C356.102 64.123 355.862 64.0751 355.622 64.0751C355.286 64.0751 354.998 64.2187 354.806 64.4582C354.614 64.6976 354.566 65.0328 354.566 65.4159V65.5596C354.518 66.0384 354.614 66.3737 354.806 66.6131Z" fill="#999999"/>
<path d="M358.648 61.9171C358.744 61.8213 358.888 61.7734 359.032 61.7734C359.224 61.7734 359.32 61.8213 359.416 61.9171C359.512 62.0129 359.56 62.1086 359.56 62.2523C359.56 62.396 359.512 62.4917 359.416 62.5875C359.32 62.6833 359.176 62.7312 359.032 62.7312C358.84 62.7312 358.744 62.6833 358.648 62.5875C358.552 62.4917 358.504 62.396 358.504 62.2523C358.504 62.1086 358.552 62.0129 358.648 61.9171ZM358.6 63.4974H359.464V67.6157H358.6V63.4974Z" fill="#999999"/>
<path d="M360.903 65.4136C361.239 65.1742 361.671 65.0784 362.199 65.0784H363.111V64.839C363.111 64.5995 363.063 64.408 362.919 64.2643C362.775 64.1207 362.583 64.0728 362.295 64.0728C362.007 64.0728 361.815 64.1207 361.671 64.2643C361.527 64.408 361.479 64.5038 361.479 64.6953V64.7432H360.615V64.6474C360.615 64.3122 360.759 64.0249 361.095 63.7854C361.383 63.546 361.815 63.4023 362.343 63.4023C362.871 63.4023 363.255 63.4981 363.543 63.7376C363.831 63.977 363.975 64.3122 363.975 64.7911V66.6587C363.975 66.8502 363.975 66.9939 364.023 67.1376C364.071 67.2812 364.071 67.4249 364.119 67.5207V67.5685H363.255C363.207 67.5207 363.207 67.4249 363.159 67.3291C363.111 67.2333 363.111 67.1376 363.111 67.0418C363.015 67.1854 362.871 67.3291 362.631 67.4728C362.391 67.6164 362.151 67.6643 361.815 67.6643C361.431 67.6643 361.095 67.5685 360.807 67.3291C360.519 67.0897 360.375 66.8023 360.375 66.3714C360.375 65.9883 360.567 65.6531 360.903 65.4136ZM361.431 66.8502C361.575 66.9939 361.767 67.0418 362.007 67.0418C362.295 67.0418 362.535 66.946 362.727 66.7545C362.919 66.5629 363.063 66.3714 363.063 66.1319V65.6052H362.295C361.959 65.6052 361.671 65.653 361.527 65.7967C361.383 65.9404 361.287 66.084 361.287 66.3235C361.287 66.5629 361.335 66.7545 361.431 66.8502Z" fill="#999999"/>
<path d="M365.031 63.4971H365.847L365.895 64.0239C366.039 63.8323 366.183 63.6887 366.423 63.5929C366.615 63.4971 366.855 63.4492 367.143 63.4492C367.576 63.4492 367.912 63.545 368.152 63.7844C368.392 64.0239 368.536 64.407 368.536 64.9816V67.6154H367.672V64.9816C367.672 64.6943 367.624 64.4549 367.48 64.3112C367.335 64.1675 367.143 64.1196 366.903 64.1196C366.711 64.1196 366.519 64.1675 366.327 64.3112C366.183 64.407 366.039 64.5985 365.943 64.7901V67.6633H365.079V63.4971H365.031Z" fill="#999999"/>
<path d="M370.217 66.3724C370.217 66.6118 370.313 66.8034 370.457 66.8991C370.601 66.9949 370.841 67.0428 371.081 67.0428C371.321 67.0428 371.561 66.9949 371.705 66.8991C371.849 66.8034 371.945 66.6597 371.945 66.4681C371.945 66.2766 371.897 66.1808 371.753 66.085C371.609 65.9893 371.321 65.8935 370.889 65.7977C370.409 65.7019 370.073 65.5583 369.833 65.3667C369.593 65.1752 369.449 64.8879 369.449 64.5527C369.449 64.2174 369.593 63.8822 369.881 63.6907C370.169 63.4512 370.553 63.3555 371.081 63.3555C371.561 63.3555 371.945 63.4512 372.281 63.6907C372.569 63.9301 372.713 64.2174 372.713 64.6005V64.6484H371.849C371.849 64.4569 371.801 64.3132 371.657 64.2174C371.513 64.1217 371.321 64.0738 371.081 64.0738C370.841 64.0738 370.649 64.1217 370.505 64.2174C370.361 64.3132 370.313 64.409 370.313 64.5527C370.313 64.6963 370.361 64.7921 370.505 64.8879C370.649 64.9836 370.937 65.0794 371.369 65.1752C371.849 65.271 372.185 65.4146 372.425 65.6062C372.665 65.7977 372.761 66.085 372.761 66.4681C372.761 66.8512 372.617 67.1386 372.329 67.378C372.041 67.6174 371.609 67.7132 371.033 67.7132C370.457 67.7132 370.025 67.6174 369.737 67.378C369.449 67.1386 369.305 66.8034 369.305 66.4203V66.3724H370.217Z" fill="#999999"/>
</g>
<defs>
<clipPath id="clip0_19_2">
<rect width="373" height="68" fill="white"/>
</clipPath>
</defs>
</svg>
