<svg width="93" height="14" viewBox="0 0 93 14" fill="none" xmlns="http://www.w3.org/2000/svg">
<path d="M6.65412 3.2226C8.51672 3.2226 10.0541 4.75998 10.0541 6.62258C10.0541 8.51475 8.51672 10.0226 6.65412 10.0226C4.76195 10.0226 3.25413 8.51475 3.25413 6.62258C3.25413 4.75998 4.76195 3.2226 6.65412 3.2226ZM6.65412 8.83997C7.86629 8.83997 8.84194 7.86432 8.84194 6.62258C8.84194 5.41041 7.86629 4.43477 6.65412 4.43477C5.41239 4.43477 4.43674 5.41041 4.43674 6.62258C4.43674 7.86432 5.44195 8.83997 6.65412 8.83997ZM10.9706 3.10434C10.9706 2.66086 10.6158 2.30608 10.1724 2.30608C9.72889 2.30608 9.37411 2.66086 9.37411 3.10434C9.37411 3.54781 9.72889 3.90259 10.1724 3.90259C10.6158 3.90259 10.9706 3.54781 10.9706 3.10434ZM13.2176 3.90259C13.2767 4.9965 13.2767 8.27823 13.2176 9.37214C13.1584 10.4365 12.9219 11.353 12.1532 12.1513C11.3845 12.92 10.4385 13.1565 9.37411 13.2156C8.2802 13.2747 4.99847 13.2747 3.90457 13.2156C2.84022 13.1565 1.9237 12.92 1.12545 12.1513C0.356752 11.353 0.120231 10.4365 0.0611012 9.37214C0.00197101 8.27823 0.00197101 4.9965 0.0611012 3.90259C0.120231 2.83825 0.356752 1.89217 1.12545 1.12347C1.9237 0.354781 2.84022 0.11826 3.90457 0.0591302C4.99847 0 8.2802 0 9.37411 0.0591302C10.4385 0.11826 11.3845 0.354781 12.1532 1.12347C12.9219 1.89217 13.1584 2.83825 13.2176 3.90259ZM11.7984 10.5252C12.1532 9.66779 12.0645 7.59823 12.0645 6.62258C12.0645 5.6765 12.1532 3.60694 11.7984 2.71999C11.5619 2.15825 11.1185 1.68521 10.5567 1.47826C9.66976 1.12347 7.6002 1.21217 6.65412 1.21217C5.67847 1.21217 3.60891 1.12347 2.75153 1.47826C2.16022 1.71478 1.71675 2.15825 1.48023 2.71999C1.12545 3.60694 1.21414 5.6765 1.21414 6.62258C1.21414 7.59823 1.12545 9.66779 1.48023 10.5252C1.71675 11.1165 2.16022 11.56 2.75153 11.7965C3.60891 12.1513 5.67847 12.0626 6.65412 12.0626C7.6002 12.0626 9.66976 12.1513 10.5567 11.7965C11.1185 11.56 11.5915 11.1165 11.7984 10.5252Z" fill="white"/>
<path d="M52.959 3.54781C52.959 3.69564 52.959 3.8139 52.959 3.96172C52.959 8.07127 49.8547 12.7721 44.1486 12.7721C42.3747 12.7721 40.7486 12.2695 39.3886 11.3826C39.6251 11.4121 39.8616 11.4417 40.1277 11.4417C41.5764 11.4417 42.9069 10.9391 43.9712 10.1113C42.6112 10.0817 41.4582 9.19475 41.0738 7.95301C41.2808 7.98258 41.4582 8.01214 41.6651 8.01214C41.9312 8.01214 42.2269 7.95301 42.4634 7.89388C41.0443 7.59823 39.9799 6.3565 39.9799 4.84868V4.81911C40.3938 5.05563 40.8964 5.17389 41.399 5.20346C40.5416 4.64172 40.0095 3.69564 40.0095 2.63129C40.0095 2.03999 40.1573 1.50782 40.4234 1.06434C41.9608 2.92695 44.2668 4.16868 46.839 4.31651C46.7799 4.07998 46.7503 3.84346 46.7503 3.60694C46.7503 1.89217 48.1399 0.502607 49.8547 0.502607C50.7416 0.502607 51.5399 0.857388 52.1312 1.47826C52.8112 1.33043 53.4912 1.06434 54.0825 0.709563C53.8459 1.44869 53.3729 2.03999 52.7225 2.42434C53.3433 2.36521 53.9642 2.18782 54.4964 1.9513C54.0825 2.57216 53.5503 3.10434 52.959 3.54781Z" fill="white"/>
<path d="M92.0539 0C92.5565 0 93 0.443477 93 0.975649V12.2991C93 12.8313 92.5565 13.2452 92.0539 13.2452H80.6714C80.1687 13.2452 79.7548 12.8313 79.7548 12.2991V0.975649C79.7548 0.443477 80.1687 0 80.6714 0H92.0539ZM83.7461 11.353V5.05563H81.7948V11.353H83.7461ZM82.7705 4.16868C83.3913 4.16868 83.8939 3.66607 83.8939 3.04521C83.8939 2.42434 83.3913 1.89217 82.7705 1.89217C82.12 1.89217 81.6174 2.42434 81.6174 3.04521C81.6174 3.66607 82.12 4.16868 82.7705 4.16868ZM91.1078 11.353V7.89388C91.1078 6.20867 90.7235 4.87824 88.7426 4.87824C87.7965 4.87824 87.1461 5.41041 86.88 5.91302H86.8505V5.05563H84.9879V11.353H86.9392V8.24866C86.9392 7.42084 87.087 6.62258 88.1218 6.62258C89.127 6.62258 89.127 7.56867 89.127 8.27823V11.353H91.1078Z" fill="white"/>
</svg>
