<svg width="78" height="78" viewBox="0 0 78 78" fill="none" xmlns="http://www.w3.org/2000/svg">
<g clip-path="url(#clip0_3633_5197)">
<path d="M72.2436 72.2446H6.07432C3.26444 72.2417 0.987321 69.9645 0.984375 67.1547V54.4298C0.987321 51.6199 3.26444 49.3428 6.07432 49.3398H72.2436C75.0535 49.3428 77.3306 51.6199 77.3336 54.4298V67.1547C77.3306 69.9645 75.0535 72.2417 72.2436 72.2446ZM6.07432 51.8848C4.66944 51.8864 3.53096 53.0249 3.52935 54.4298V67.1547C3.53096 68.5595 4.66944 69.698 6.07432 69.6996H72.2436C73.6485 69.698 74.787 68.5595 74.7886 67.1547V54.4298C74.787 53.0249 73.6485 51.8864 72.2436 51.8848H6.07432Z" fill="url(#paint0_linear_3633_5197)"/>
<path d="M22.6136 77.3341H11.1612C9.05384 77.3318 7.34606 75.624 7.34375 73.5167V70.9717C7.34375 70.2689 7.91346 69.6992 8.61624 69.6992H25.1586C25.8613 69.6992 26.4311 70.2689 26.4311 70.9717V73.5167C26.4287 75.624 24.721 77.3318 22.6136 77.3341ZM9.88872 72.2442V73.5167C9.88935 74.2192 10.4587 74.7885 11.1612 74.7892H22.6136C23.3161 74.7885 23.8854 74.2192 23.8861 73.5167V72.2442H9.88872Z" fill="url(#paint1_linear_3633_5197)"/>
<path d="M67.1566 77.3341H55.7042C53.5968 77.3318 51.889 75.624 51.8867 73.5167V70.9717C51.8867 70.2689 52.4564 69.6992 53.1592 69.6992H69.7015C70.4043 69.6992 70.974 70.2689 70.974 70.9717V73.5167C70.9717 75.624 69.2639 77.3318 67.1566 77.3341ZM54.4317 72.2442V73.5167C54.4323 74.2192 55.0017 74.7885 55.7042 74.7892H67.1566C67.8591 74.7885 68.4284 74.2192 68.429 73.5167V72.2442H54.4317Z" fill="url(#paint2_linear_3633_5197)"/>
<path d="M76.0611 65.8791H2.25686C1.55409 65.8791 0.984375 65.3094 0.984375 64.6066V56.9717C0.984375 56.2689 1.55409 55.6992 2.25686 55.6992H76.0611C76.7639 55.6992 77.3336 56.2689 77.3336 56.9717V64.6066C77.3336 65.3094 76.7639 65.8791 76.0611 65.8791ZM3.52935 63.3341H74.7886V58.2442H3.52935V63.3341Z" fill="url(#paint3_linear_3633_5197)"/>
<path d="M59.5186 62.0606C60.2214 62.0606 60.7911 61.4909 60.7911 60.7881C60.7911 60.0853 60.2214 59.5156 59.5186 59.5156C58.8158 59.5156 58.2461 60.0853 58.2461 60.7881C58.2461 61.4909 58.8158 62.0606 59.5186 62.0606Z" fill="url(#paint4_linear_3633_5197)"/>
<path d="M8.61624 62.0606C9.31901 62.0606 9.88872 61.4909 9.88872 60.7881C9.88872 60.0853 9.31901 59.5156 8.61624 59.5156C7.91346 59.5156 7.34375 60.0853 7.34375 60.7881C7.34375 61.4909 7.91346 62.0606 8.61624 62.0606Z" fill="url(#paint5_linear_3633_5197)"/>
<path d="M64.6123 62.0606C65.3151 62.0606 65.8848 61.4909 65.8848 60.7881C65.8848 60.0853 65.3151 59.5156 64.6123 59.5156C63.9096 59.5156 63.3398 60.0853 63.3398 60.7881C63.3398 61.4909 63.9096 62.0606 64.6123 62.0606Z" fill="url(#paint6_linear_3633_5197)"/>
<path d="M69.6944 62.0606C70.3971 62.0606 70.9668 61.4909 70.9668 60.7881C70.9668 60.0853 70.3971 59.5156 69.6944 59.5156C68.9916 59.5156 68.4219 60.0853 68.4219 60.7881C68.4219 61.4909 68.9916 62.0606 69.6944 62.0606Z" fill="url(#paint7_linear_3633_5197)"/>
<path d="M14.9855 51.8831H7.35061C6.64784 51.8831 6.07812 51.3134 6.07812 50.6106V39.1583C6.07974 37.7534 7.21822 36.6149 8.6231 36.6133H13.713C15.1179 36.6149 16.2564 37.7534 16.258 39.1583V50.6106C16.258 51.3134 15.6883 51.8831 14.9855 51.8831ZM8.6231 49.3382H13.713V39.1583H8.6231V49.3382Z" fill="url(#paint8_linear_3633_5197)"/>
<path d="M13.7062 39.159H8.61624C7.91346 39.159 7.34375 38.5893 7.34375 37.8865V4.80184C7.34375 2.69351 9.05289 0.984375 11.1612 0.984375C13.2695 0.984375 14.9787 2.69351 14.9787 4.80184V37.8865C14.9787 38.5893 14.409 39.159 13.7062 39.159ZM9.88872 36.614H12.4337V4.80184C12.4337 4.09906 11.864 3.52935 11.1612 3.52935C10.4584 3.52935 9.88872 4.09906 9.88872 4.80184V36.614Z" fill="url(#paint9_linear_3633_5197)"/>
<path d="M70.9699 51.8831H63.335C62.6322 51.8831 62.0625 51.3134 62.0625 50.6106V39.1583C62.0641 37.7534 63.2026 36.6149 64.6075 36.6133H69.6974C71.1023 36.6149 72.2408 37.7534 72.2424 39.1583V50.6106C72.2424 51.3134 71.6727 51.8831 70.9699 51.8831ZM64.6075 49.3382H69.6974V39.1583H64.6075V49.3382Z" fill="url(#paint10_linear_3633_5197)"/>
<path d="M69.7023 39.159H64.6123C63.9096 39.159 63.3398 38.5893 63.3398 37.8865V4.80184C63.3398 2.69351 65.049 0.984375 67.1573 0.984375C69.2656 0.984375 70.9748 2.69351 70.9748 4.80184V37.8865C70.9748 38.5893 70.4051 39.159 69.7023 39.159ZM65.8848 36.614H68.4298V4.80184C68.4298 4.09906 67.8601 3.52935 67.1573 3.52935C66.4545 3.52935 65.8848 4.09906 65.8848 4.80184V36.614Z" fill="url(#paint11_linear_3633_5197)"/>
<path d="M59.5159 27.3415C59.0019 27.3417 58.5384 27.0322 58.3415 26.5574C55.1228 18.8027 47.5522 13.7481 39.1561 13.7481C30.7599 13.7481 23.1893 18.8027 19.9706 26.5574C19.8036 26.9883 19.4161 27.2947 18.9584 27.3579C18.5006 27.4212 18.0446 27.2313 17.767 26.8619C17.4893 26.4925 17.4338 26.0016 17.6219 25.5795C21.2351 16.8759 29.7323 11.2031 39.1561 11.2031C48.5798 11.2031 57.0771 16.8759 60.6902 25.5795C60.8534 25.9722 60.8097 26.4205 60.5739 26.7743C60.338 27.1282 59.9411 27.341 59.5159 27.3415Z" fill="url(#paint12_linear_3633_5197)"/>
<path d="M52.1134 29.9917C51.5997 29.9915 51.1365 29.6824 50.9391 29.2082C48.964 24.4466 44.3161 21.3427 39.1611 21.3427C34.0061 21.3427 29.3582 24.4466 27.3831 29.2082C27.1075 29.8487 26.3678 30.1481 25.7243 29.8797C25.0808 29.6112 24.7732 28.8748 25.0345 28.2284C27.4046 22.5185 32.9789 18.7969 39.1611 18.7969C45.3433 18.7969 50.9177 22.5185 53.2878 28.2284C53.4508 28.6212 53.4071 29.0694 53.1713 29.4234C52.9355 29.7773 52.5387 29.9908 52.1134 29.9917Z" fill="url(#paint13_linear_3633_5197)"/>
<path d="M44.7072 32.7961C44.1957 32.7961 43.734 32.4896 43.5354 32.0183C42.8043 30.2472 41.0773 29.0918 39.1612 29.0918C37.2452 29.0918 35.5182 30.2472 34.7871 32.0183C34.6167 32.4468 34.2279 32.7497 33.7707 32.8099C33.3134 32.8701 32.8594 32.6783 32.584 32.3084C32.3085 31.9385 32.2547 31.4486 32.4434 31.0278C33.5724 28.3146 36.2226 26.5469 39.1612 26.5469C42.0999 26.5469 44.7501 28.3146 45.8791 31.0278C46.0448 31.4208 46.0029 31.8707 45.7673 32.2263C45.5317 32.5818 45.1338 32.7955 44.7072 32.7961Z" fill="url(#paint14_linear_3633_5197)"/>
<path d="M39.1553 35.3418C39.8581 35.3418 40.4278 34.7721 40.4278 34.0694C40.4278 33.3666 39.8581 32.7969 39.1553 32.7969C38.4525 32.7969 37.8828 33.3666 37.8828 34.0694C37.8828 34.7721 38.4525 35.3418 39.1553 35.3418Z" fill="url(#paint15_linear_3633_5197)"/>
</g>
<defs>
<linearGradient id="paint0_linear_3633_5197" x1="0.500792" y1="57.5737" x2="77.9281" y2="62.1211" gradientUnits="userSpaceOnUse">
<stop stop-color="#351EE0"/>
<stop offset="1" stop-color="#3F74EF"/>
</linearGradient>
<linearGradient id="paint1_linear_3633_5197" x1="7.22285" y1="72.4438" x2="26.6088" y2="73.2978" gradientUnits="userSpaceOnUse">
<stop stop-color="#351EE0"/>
<stop offset="1" stop-color="#3F74EF"/>
</linearGradient>
<linearGradient id="paint2_linear_3633_5197" x1="51.7658" y1="72.4438" x2="71.1518" y2="73.2978" gradientUnits="userSpaceOnUse">
<stop stop-color="#351EE0"/>
<stop offset="1" stop-color="#3F74EF"/>
</linearGradient>
<linearGradient id="paint3_linear_3633_5197" x1="0.500792" y1="59.3587" x2="76.8618" y2="69.4494" gradientUnits="userSpaceOnUse">
<stop stop-color="#351EE0"/>
<stop offset="1" stop-color="#3F74EF"/>
</linearGradient>
<linearGradient id="paint4_linear_3633_5197" x1="58.23" y1="60.4305" x2="60.819" y2="60.4761" gradientUnits="userSpaceOnUse">
<stop stop-color="#351EE0"/>
<stop offset="1" stop-color="#3F74EF"/>
</linearGradient>
<linearGradient id="paint5_linear_3633_5197" x1="7.32763" y1="60.4305" x2="9.91664" y2="60.4761" gradientUnits="userSpaceOnUse">
<stop stop-color="#351EE0"/>
<stop offset="1" stop-color="#3F74EF"/>
</linearGradient>
<linearGradient id="paint6_linear_3633_5197" x1="63.3237" y1="60.4305" x2="65.9127" y2="60.4761" gradientUnits="userSpaceOnUse">
<stop stop-color="#351EE0"/>
<stop offset="1" stop-color="#3F74EF"/>
</linearGradient>
<linearGradient id="paint7_linear_3633_5197" x1="68.4058" y1="60.4305" x2="70.9948" y2="60.4761" gradientUnits="userSpaceOnUse">
<stop stop-color="#351EE0"/>
<stop offset="1" stop-color="#3F74EF"/>
</linearGradient>
<linearGradient id="paint8_linear_3633_5197" x1="6.01365" y1="42.1025" x2="16.3715" y2="42.2242" gradientUnits="userSpaceOnUse">
<stop stop-color="#351EE0"/>
<stop offset="1" stop-color="#3F74EF"/>
</linearGradient>
<linearGradient id="paint9_linear_3633_5197" x1="7.29539" y1="14.7074" x2="15.0647" y2="14.7348" gradientUnits="userSpaceOnUse">
<stop stop-color="#351EE0"/>
<stop offset="1" stop-color="#3F74EF"/>
</linearGradient>
<linearGradient id="paint10_linear_3633_5197" x1="61.998" y1="42.1025" x2="72.3559" y2="42.2242" gradientUnits="userSpaceOnUse">
<stop stop-color="#351EE0"/>
<stop offset="1" stop-color="#3F74EF"/>
</linearGradient>
<linearGradient id="paint11_linear_3633_5197" x1="63.2915" y1="14.7074" x2="71.0608" y2="14.7348" gradientUnits="userSpaceOnUse">
<stop stop-color="#351EE0"/>
<stop offset="1" stop-color="#3F74EF"/>
</linearGradient>
<linearGradient id="paint12_linear_3633_5197" x1="17.2376" y1="17.0148" x2="61.1783" y2="19.0872" gradientUnits="userSpaceOnUse">
<stop stop-color="#351EE0"/>
<stop offset="1" stop-color="#3F74EF"/>
</linearGradient>
<linearGradient id="paint13_linear_3633_5197" x1="24.7612" y1="22.8212" x2="53.6482" y2="24.1144" gradientUnits="userSpaceOnUse">
<stop stop-color="#351EE0"/>
<stop offset="1" stop-color="#3F74EF"/>
</linearGradient>
<linearGradient id="paint14_linear_3633_5197" x1="32.2456" y1="28.8022" x2="46.1128" y2="29.3337" gradientUnits="userSpaceOnUse">
<stop stop-color="#351EE0"/>
<stop offset="1" stop-color="#3F74EF"/>
</linearGradient>
<linearGradient id="paint15_linear_3633_5197" x1="37.8667" y1="33.7117" x2="40.4557" y2="33.7574" gradientUnits="userSpaceOnUse">
<stop stop-color="#351EE0"/>
<stop offset="1" stop-color="#3F74EF"/>
</linearGradient>
<clipPath id="clip0_3633_5197">
<rect width="76.3492" height="76.3492" fill="white" transform="translate(0.984375 0.984375)"/>
</clipPath>
</defs>
</svg>
