<svg width="40" height="40" viewBox="0 0 40 40" fill="none" xmlns="http://www.w3.org/2000/svg">
<path d="M20.8249 22.6622C19.3305 22.6552 17.8459 22.4211 16.4219 21.9678C14.1466 21.2067 12.4567 19.2805 11.998 16.9256C11.4961 14.5079 12.4108 11.9516 14.5071 9.91224C14.7321 9.69317 14.9658 9.48333 15.2083 9.28271C17.3547 7.48573 20.2485 6.86125 22.945 7.61311C25.5555 8.44632 27.3593 10.832 27.4495 13.5708C27.5473 15.1473 27.0334 16.7008 26.0149 17.908C25.2294 18.8976 23.9566 19.3649 22.7174 19.119C22.2106 19.0138 21.7684 18.7069 21.4927 18.2688C21.2452 17.8434 21.1818 17.3355 21.3169 16.8622C21.8999 14.6584 22.4927 11.3094 22.4985 11.2755C22.5399 11.0409 22.7034 10.8462 22.9272 10.7648C23.1511 10.6833 23.4014 10.7275 23.5839 10.8807C23.7664 11.0338 23.8533 11.2727 23.8119 11.5073C23.7871 11.6466 23.2035 14.9454 22.6061 17.203C22.5635 17.3281 22.5742 17.4652 22.6357 17.5822C22.7279 17.7097 22.867 17.7954 23.0224 17.8204C23.781 17.9471 24.5473 17.6427 25.0123 17.0301C25.8033 16.0839 26.1996 14.8695 26.119 13.6388C26.0538 11.4588 24.6242 9.55555 22.5487 8.88551C20.2832 8.26237 17.8561 8.79471 16.0593 10.3088C15.8451 10.4866 15.6368 10.6728 15.4369 10.8674C14.4005 11.8756 12.7455 13.9674 13.3032 16.6541C13.6779 18.5311 15.0184 20.0694 16.8266 20.6971C19.9533 21.6945 24.4461 21.8146 26.8133 18.8712C27.0458 18.5911 27.4601 18.5494 27.7439 18.7775C28.0276 19.0056 28.0759 19.4192 27.8523 19.7065C26.1019 21.8834 23.4381 22.6622 20.8249 22.6622Z" fill="white"/>
<path d="M18.5436 19.2079C17.8389 19.22 17.1516 18.9889 16.5973 18.5536C15.3177 17.5295 15.2825 15.7505 15.6412 14.539C15.762 14.1355 15.9243 13.7456 16.1253 13.3755C16.6255 12.3662 17.4254 11.5362 18.4154 10.9989C19.6483 10.3592 21.1546 10.6018 22.1243 11.5962C22.6054 12.1234 22.9678 12.7477 23.187 13.427C23.3031 13.7716 23.1215 14.1458 22.7788 14.2678C22.4362 14.3898 22.059 14.2147 21.9311 13.8742C21.773 13.3724 21.5103 12.9099 21.1603 12.5171C20.595 11.9389 19.714 11.8074 19.0044 12.1952C18.262 12.6139 17.6653 13.2496 17.2944 14.0171C17.1386 14.3046 17.0127 14.6075 16.9188 14.9208C16.6597 15.7971 16.7166 16.9408 17.4315 17.5132C18.213 18.1408 19.5315 17.8755 20.2733 17.2356C20.8261 16.7379 21.3011 16.16 21.6824 15.5214C21.8059 15.3145 22.0314 15.1903 22.2723 15.1966C22.5132 15.2029 22.7319 15.3386 22.8444 15.5517C22.9569 15.7648 22.9457 16.022 22.8151 16.2244C22.3635 16.977 21.8012 17.6573 21.1471 18.2426C20.4181 18.8577 19.4973 19.1991 18.5436 19.2079Z" fill="white"/>
<path d="M38 40.0017H2C0.895933 40.0005 0.00121247 39.1058 0 38.0017V13.3351C1.048e-05 13.0765 0.149478 12.8413 0.383522 12.7315C0.617566 12.6217 0.893988 12.6571 1.0928 12.8224L17.4509 26.4174C18.931 27.6398 21.0705 27.6394 22.5501 26.4165L38.9067 12.8224C39.1055 12.6568 39.3821 12.6212 39.6164 12.731C39.8506 12.8409 40.0002 13.0763 40 13.3351V38.0017C39.9988 39.1058 39.1041 40.0005 38 40.0017ZM1.33333 14.7559V38.0017C1.33381 38.3697 1.63201 38.6679 2 38.6684H38C38.3681 38.6681 38.6663 38.3698 38.6667 38.0017V14.7559L23.4014 27.4426C21.4276 29.0737 18.5738 29.0742 16.5996 27.4436L1.33333 14.7559Z" fill="white"/>
<path d="M0.667319 14.0046C0.376939 14.0049 0.119789 13.8171 0.0315632 13.5405C-0.0566629 13.2638 0.0443312 12.9619 0.281253 12.794L6.28125 8.54067C6.58165 8.33247 6.99367 8.40495 7.20497 8.70318C7.41628 9.0014 7.34807 9.41415 7.05205 9.62853L1.05205 13.8819C0.939703 13.9618 0.80521 14.0047 0.667319 14.0046Z" fill="white"/>
<path d="M39.3323 14.0046C39.1944 14.0047 39.0599 13.9618 38.9475 13.8819L32.9475 9.62853C32.6515 9.41415 32.5833 9.0014 32.7946 8.70318C33.0059 8.40495 33.418 8.33247 33.7183 8.54067L39.7183 12.794C39.9553 12.9619 40.0563 13.2638 39.968 13.5405C39.8798 13.8171 39.6227 14.0049 39.3323 14.0046Z" fill="white"/>
<path d="M26.158 4.66949C26.02 4.66956 25.8854 4.62666 25.7728 4.54675L22.5862 2.28675C21.1069 1.03674 18.9453 1.02372 17.4511 2.25582L14.2244 4.54682C14.0301 4.68463 13.777 4.7083 13.5605 4.60891C13.344 4.50952 13.197 4.30217 13.1748 4.06497C13.1526 3.82778 13.2586 3.59676 13.453 3.45895L16.6396 1.19895C18.6087 -0.41107 21.4431 -0.398264 23.3975 1.22949L26.5442 3.45869C26.7813 3.62654 26.8824 3.92862 26.7941 4.20541C26.7059 4.48219 26.4485 4.66993 26.158 4.66949Z" fill="white"/>
<path d="M1.10088 39.6423C0.819922 39.6425 0.568968 39.4666 0.47339 39.2024C0.377812 38.9382 0.458127 38.6424 0.67421 38.4629L15.8875 25.8229C16.0704 25.6674 16.3226 25.6222 16.548 25.7045C16.7734 25.7868 16.9372 25.9839 16.9769 26.2205C17.0166 26.4572 16.926 26.6969 16.7397 26.8482L1.52641 39.4882C1.40697 39.5878 1.25638 39.6423 1.10088 39.6423Z" fill="white"/>
<path d="M38.9004 39.6422C38.7451 39.6423 38.5946 39.5878 38.4753 39.4882L23.262 26.8482C23.0757 26.6969 22.9851 26.4572 23.0248 26.2205C23.0645 25.9839 23.2283 25.7868 23.4537 25.7045C23.6791 25.6222 23.9314 25.6674 24.1142 25.8229L39.3271 38.4629C39.5432 38.6424 39.6235 38.9382 39.5279 39.2024C39.4323 39.4666 39.1814 39.6424 38.9004 39.6422Z" fill="white"/>
<path d="M33.3333 18.9897C32.9651 18.9897 32.6667 18.6912 32.6667 18.323V4.67491C32.6647 4.68891 32.638 4.67004 32.5933 4.66971H7.40667C7.3772 4.6679 7.34828 4.67826 7.32667 4.69838L7.33333 18.323C7.33333 18.6912 7.03486 18.9897 6.66667 18.9897C6.29848 18.9897 6 18.6912 6 18.323V4.66971C6.02151 3.91364 6.65053 3.31741 7.40667 3.33638H32.5933C33.3494 3.31749 33.9784 3.91367 34 4.66971V18.323C34 18.6912 33.7015 18.9897 33.3333 18.9897Z" fill="white"/>
</svg>
