<svg width="40" height="40" viewBox="0 0 40 40" fill="none" xmlns="http://www.w3.org/2000/svg">
<g clip-path="url(#clip0_0_46)">
<path d="M26.6719 27.3021H25.3386C25.0284 27.3038 24.7207 27.2477 24.431 27.1367C23.3719 26.7626 22.6658 25.7587 22.6719 24.6354C22.6735 23.1633 23.8665 21.9703 25.3386 21.9688H26.6719C28.1447 21.9688 29.3386 23.1627 29.3386 24.6354C29.3386 26.1082 28.1447 27.3021 26.6719 27.3021ZM25.3386 23.3021C24.6026 23.3029 24.0061 23.8994 24.0052 24.6354C24.0021 25.1975 24.3566 25.6994 24.8874 25.8844C25.0312 25.9404 25.1842 25.969 25.3386 25.9688H26.6719C27.4083 25.9688 28.0052 25.3718 28.0052 24.6354C28.0052 23.899 27.4083 23.3021 26.6719 23.3021H25.3386Z" fill="white"/>
<path d="M26.0252 31.3021H25.3385C23.8658 31.3021 22.6719 30.1082 22.6719 28.6354C22.6719 27.1627 23.8658 25.9688 25.3385 25.9688H26.0252C27.498 25.9688 28.6919 27.1627 28.6919 28.6354C28.6919 30.1082 27.498 31.3021 26.0252 31.3021ZM25.3385 27.3021C24.6022 27.3021 24.0052 27.899 24.0052 28.6354C24.0052 29.3718 24.6022 29.9688 25.3385 29.9688H26.0252C26.7616 29.9688 27.3585 29.3718 27.3585 28.6354C27.3585 27.899 26.7616 27.3021 26.0252 27.3021H25.3385Z" fill="white"/>
<path d="M8.66667 17.452C8.29848 17.452 8 17.1536 8 16.7854V5.9987C8.00154 4.52658 9.19455 3.33357 10.6667 3.33203H17.5867C17.9549 3.33203 18.2533 3.63051 18.2533 3.9987C18.2533 4.36689 17.9549 4.66536 17.5867 4.66536H10.6667C9.93064 4.66621 9.33418 5.26267 9.33333 5.9987V16.7854C9.33333 17.1536 9.03486 17.452 8.66667 17.452Z" fill="white"/>
<path d="M22.6667 33.3015H10.6667C9.19456 33.2999 8.00158 32.1069 8 30.6348V22.3815C8 22.0133 8.29848 21.7148 8.66667 21.7148C9.03486 21.7148 9.33333 22.0133 9.33333 22.3815V30.6348C9.33418 31.3709 9.93064 31.9673 10.6667 31.9682H22.6667C23.4027 31.9673 23.9992 31.3709 24 30.6348V30.5148C24 30.1467 24.2985 29.8482 24.6667 29.8482C25.0349 29.8482 25.3333 30.1467 25.3333 30.5148V30.6348C25.3318 32.1069 24.1388 33.2999 22.6667 33.3015Z" fill="white"/>
<path d="M16.6693 40.0015H8.66926C7.56519 40.0003 6.67047 39.1056 6.66926 38.0015V37.3348C6.55723 36.48 6.20856 35.6735 5.66259 35.0064C5.53633 34.8146 5.41199 34.6255 5.29593 34.4377C5.00753 33.9696 4.75946 33.6158 4.54793 33.3134C3.78845 32.3819 3.36789 31.2202 3.35519 30.0184C3.29593 29.2245 3.38579 27.5634 3.45806 26.2287C3.49139 25.62 3.52053 25.0796 3.52966 24.7287C3.54266 24.2128 3.52186 22.5373 3.50233 20.9168L3.49193 20.1021C3.4832 19.0127 3.90837 17.9645 4.6736 17.1891C5.43883 16.4136 6.48121 15.9745 7.57066 15.9688C8.52912 15.9763 9.46327 16.2713 10.2523 16.8154C10.6447 17.0737 11.0708 17.2767 11.5186 17.4186C12.412 17.664 13.3225 17.8417 14.2426 17.9502C15.2421 18.0637 15.9984 18.9073 16.0026 19.9133V20.0314C16.0026 20.0672 15.9493 23.6161 11.3567 23.6268C10.5202 23.6903 7.53713 23.1874 6.73959 21.5923C6.57492 21.2629 6.70842 20.8625 7.03776 20.6978C7.36711 20.5331 7.76759 20.6666 7.93226 20.996C8.37173 21.8749 10.7189 22.3537 11.2129 22.3058C11.2531 22.2957 11.2945 22.2915 11.3359 22.2935C14.6315 22.2935 14.6693 20.1239 14.6693 20.0314V19.9133C14.6646 19.5831 14.4137 19.3086 14.0853 19.2743C13.0952 19.1574 12.1154 18.9659 11.1543 18.7014C10.5939 18.5286 10.0602 18.2791 9.56833 17.9598C8.99097 17.5394 8.29684 17.3095 7.58266 17.3023H7.57353C6.0464 17.3133 4.8167 18.559 4.82553 20.0862L4.83526 20.9006C4.85673 22.6086 4.87693 24.2219 4.86326 24.7636C4.85353 25.1236 4.82326 25.6769 4.78993 26.301C4.71959 27.5975 4.63233 29.2112 4.68506 29.9195C4.68282 30.8813 5.02143 31.8128 5.64079 32.5487C5.86479 32.8687 6.12646 33.243 6.43186 33.7382C6.54053 33.9149 6.65853 34.0933 6.77686 34.274C7.47983 35.1502 7.90647 36.2156 8.00259 37.3348V38.0015C8.00293 38.3695 8.30121 38.6678 8.66926 38.6682H16.6693C17.0373 38.6678 17.3356 38.3695 17.3359 38.0015V36.6356C17.3366 35.9167 17.7236 35.2535 18.3493 34.8993C20.7484 33.5409 21.404 32.3423 21.4105 32.3303C21.5819 32.0074 21.9803 31.8813 22.3063 32.0468C22.631 32.2118 22.7618 32.6078 22.5993 32.9338C22.5211 33.0893 21.7588 34.5008 19.0059 36.0594C18.7982 36.1769 18.6697 36.397 18.6693 36.6356V38.0015C18.668 39.1056 17.7733 40.0003 16.6693 40.0015Z" fill="white"/>
<path d="M8.66667 17.4554C8.49017 17.4562 8.32064 17.3867 8.19553 17.2622C8.07043 17.1377 8.00007 16.9685 8 16.792V7.9987C8 7.63051 8.29848 7.33203 8.66667 7.33203H15.2C15.5682 7.33203 15.8667 7.63051 15.8667 7.9987C15.8667 8.36689 15.5682 8.66536 15.2 8.66536H9.33333V16.7854C9.33374 17.1543 9.03557 17.454 8.66667 17.4554Z" fill="white"/>
<path d="M24.6667 27.4143C24.2985 27.4143 24 27.1158 24 26.7477V26.5143C24 26.1461 24.2985 25.8477 24.6667 25.8477C25.0349 25.8477 25.3333 26.1461 25.3333 26.5143V26.7477C25.3333 27.1158 25.0349 27.4143 24.6667 27.4143Z" fill="white"/>
<path d="M23.3333 29.3348H8.66667C8.29848 29.3348 8 29.0364 8 28.6682V22.3815C8 22.0133 8.29848 21.7148 8.66667 21.7148C9.03486 21.7148 9.33333 22.0133 9.33333 22.3815V28.0015H23.3333C23.7015 28.0015 24 28.3 24 28.6682C24 29.0364 23.7015 29.3348 23.3333 29.3348Z" fill="white"/>
<path d="M24.6667 23.4116C24.2985 23.4116 24 23.1131 24 22.7449V22.5182C24 22.15 24.2985 21.8516 24.6667 21.8516C25.0349 21.8516 25.3333 22.15 25.3333 22.5182V22.7449C25.3333 23.1131 25.0349 23.4116 24.6667 23.4116Z" fill="white"/>
<path d="M16.6719 32.668C15.5673 32.668 14.6719 31.7725 14.6719 30.668C14.6719 29.5634 15.5673 28.668 16.6719 28.668C17.7764 28.668 18.6719 29.5634 18.6719 30.668C18.6707 31.772 17.7759 32.6668 16.6719 32.668ZM16.6719 30.0013C16.3037 30.0013 16.0052 30.2998 16.0052 30.668C16.0052 31.0362 16.3037 31.3346 16.6719 31.3346C17.0401 31.3346 17.3385 31.0362 17.3385 30.668C17.3382 30.2999 17.0399 30.0016 16.6719 30.0013Z" fill="white"/>
<path d="M25.3333 22.6667C19.0741 22.6667 14 17.5926 14 11.3333C14 5.07411 19.0741 0 25.3333 0C31.5926 0 36.6667 5.07411 36.6667 11.3333C36.6597 17.5897 31.5897 22.6597 25.3333 22.6667ZM25.3333 1.33333C19.8105 1.33333 15.3333 5.81049 15.3333 11.3333C15.3333 16.8562 19.8105 21.3333 25.3333 21.3333C30.8562 21.3333 35.3333 16.8562 35.3333 11.3333C35.3272 5.81303 30.8536 1.33947 25.3333 1.33333Z" fill="white"/>
<path d="M29.2698 18.6665H20.068C19.6675 18.6667 19.2878 18.4882 19.0322 18.1798C18.7852 17.8847 18.6823 17.495 18.7516 17.1164C19.2294 15.0082 20.8745 13.3612 22.9821 12.881C23.3384 12.7883 23.7025 13.0019 23.7952 13.3582C23.888 13.7146 23.6743 14.0786 23.318 14.1714C21.7104 14.521 20.4452 15.7607 20.0628 17.3608L29.2698 17.3332C29.0979 16.5005 28.6519 15.7494 28.0032 15.1998C27.925 15.1332 27.8385 15.0654 27.7519 14.9974C27.4624 14.7698 27.4123 14.3506 27.6399 14.0612C27.8675 13.7717 28.2866 13.7216 28.5761 13.9492C28.6757 14.0276 28.7753 14.1068 28.8761 14.192C29.757 14.9439 30.3594 15.9701 30.5864 17.1058C30.6582 17.4872 30.5554 17.8807 30.3064 18.1784C30.0512 18.4878 29.6709 18.6669 29.2698 18.6665Z" fill="white"/>
<path d="M26.6741 15.3318C24.1292 15.3353 21.8045 13.8893 20.6826 11.605C19.5607 9.32074 19.8376 6.59698 21.3961 4.58516C21.6323 4.28139 21.9874 4.0936 22.3714 4.06949C22.7547 4.04327 23.1304 4.18514 23.4007 4.45816L30.8771 11.9338C31.1482 12.206 31.2894 12.5815 31.265 12.965C31.2406 13.3484 31.0529 13.7029 30.7495 13.9386C29.5838 14.8434 28.1497 15.3337 26.6741 15.3318ZM22.4578 5.40043C20.8102 7.52143 20.9978 10.5369 22.8955 12.4374C24.7932 14.3379 27.8084 14.5299 29.9318 12.8854L30.4057 12.405L29.9344 12.8764L22.4578 5.40043Z" fill="white"/>
<path d="M29.6522 8.00177C28.7154 8.00162 27.8709 7.43723 27.5124 6.57171C27.1538 5.70618 27.3519 4.70992 28.0142 4.04737C28.9307 3.17171 30.3738 3.17171 31.2902 4.04737C31.9526 4.70992 32.1506 5.70618 31.7921 6.57171C31.4336 7.43723 30.5891 8.00162 29.6522 8.00177ZM29.6522 4.70177C29.2546 4.7018 28.8961 4.94133 28.7439 5.3087C28.5917 5.67606 28.6758 6.09893 28.9569 6.38017C29.3461 6.75132 29.9582 6.75147 30.3476 6.3805V6.37983C30.6288 6.09869 30.7129 5.67579 30.5607 5.30843C30.4085 4.94106 30.0499 4.70161 29.6522 4.70177Z" fill="white"/>
<path d="M26.6665 9.33354C26.3969 9.33348 26.1539 9.17105 26.0508 8.92198C25.9476 8.6729 26.0046 8.3862 26.1952 8.19554L28.0085 6.38221C28.1761 6.20951 28.4236 6.14046 28.6563 6.20155C28.889 6.26263 29.0708 6.44436 29.1319 6.67707C29.193 6.90977 29.124 7.15735 28.9513 7.32487L27.1379 9.13821C27.0131 9.26346 26.8434 9.33376 26.6665 9.33354Z" fill="white"/>
</g>
<defs>
<clipPath id="clip0_0_46">
<rect width="40" height="40" fill="white"/>
</clipPath>
</defs>
</svg>
