<svg width="40" height="40" viewBox="0 0 40 40" fill="none" xmlns="http://www.w3.org/2000/svg">
<path d="M32.0026 40H8.0026C6.53053 39.9983 5.33759 38.8054 5.33594 37.3333V2.66667C5.33759 1.19459 6.53053 0.00165329 8.0026 0H32.0026C33.4747 0.00165329 34.6676 1.19459 34.6693 2.66667V37.3333C34.6676 38.8054 33.4747 39.9983 32.0026 40ZM8.0026 1.33333C7.26653 1.33407 6.67001 1.93059 6.66927 2.66667V37.3333C6.67001 38.0694 7.26653 38.6659 8.0026 38.6667H32.0026C32.7387 38.6659 33.3352 38.0694 33.3359 37.3333V2.66667C33.3352 1.93059 32.7387 1.33407 32.0026 1.33333H8.0026Z" fill="white"/>
<path d="M24.6693 5.33333H12.6693C11.9332 5.3326 11.3367 4.73607 11.3359 4V0.666667C11.3359 0.298477 11.6344 0 12.0026 0H25.3359C25.7041 0 26.0026 0.298477 26.0026 0.666667V4C26.0019 4.73607 25.4053 5.3326 24.6693 5.33333ZM12.6693 1.33333V4H24.6693V1.33333H12.6693Z" fill="white"/>
<path d="M8.66667 4.0013C9.03486 4.0013 9.33333 3.70283 9.33333 3.33464C9.33333 2.96645 9.03486 2.66797 8.66667 2.66797C8.29848 2.66797 8 2.96645 8 3.33464C8 3.70283 8.29848 4.0013 8.66667 4.0013Z" fill="white"/>
<path d="M31.3385 4.0013C31.7067 4.0013 32.0052 3.70283 32.0052 3.33464C32.0052 2.96645 31.7067 2.66797 31.3385 2.66797C30.9704 2.66797 30.6719 2.96645 30.6719 3.33464C30.6719 3.70283 30.9704 4.0013 31.3385 4.0013Z" fill="white"/>
<path d="M8.66667 37.3333C9.03486 37.3333 9.33333 37.0349 9.33333 36.6667C9.33333 36.2985 9.03486 36 8.66667 36C8.29848 36 8 36.2985 8 36.6667C8 37.0349 8.29848 37.3333 8.66667 37.3333Z" fill="white"/>
<path d="M31.3385 37.3333C31.7067 37.3333 32.0052 37.0349 32.0052 36.6667C32.0052 36.2985 31.7067 36 31.3385 36C30.9704 36 30.6719 36.2985 30.6719 36.6667C30.6719 37.0349 30.9704 37.3333 31.3385 37.3333Z" fill="white"/>
<path d="M20.6667 5.33333C20.2985 5.33333 20 5.03486 20 4.66667V0.666667C20 0.298477 20.2985 0 20.6667 0C21.0349 0 21.3333 0.298477 21.3333 0.666667V4.66667C21.3333 5.03486 21.0349 5.33333 20.6667 5.33333Z" fill="white"/>
<path d="M28.6667 35.3333H11.3333C9.49328 35.3312 8.00217 33.8401 8 32V13.3333C8.00217 11.4933 9.49328 10.0022 11.3333 10H28.6667C30.5067 10.0022 31.9978 11.4933 32 13.3333V32C31.9978 33.8401 30.5067 35.3312 28.6667 35.3333ZM11.3333 11.3333C10.2293 11.3345 9.33455 12.2293 9.33333 13.3333V32C9.33455 33.1041 10.2293 33.9988 11.3333 34H28.6667C29.7707 33.9988 30.6655 33.1041 30.6667 32V13.3333C30.6655 12.2293 29.7707 11.3345 28.6667 11.3333H11.3333Z" fill="white"/>
<path d="M13.3386 23.335C12.26 23.3355 11.2874 22.6859 10.8747 21.6894C10.4621 20.6928 10.6907 19.5458 11.4539 18.7836C12.5081 17.7753 14.1692 17.7753 15.2234 18.7836C15.7253 19.2822 16.0069 19.9609 16.0053 20.6683C16.0053 21.0365 15.7068 21.335 15.3386 21.335C14.9705 21.335 14.672 21.0365 14.672 20.6683C14.6726 20.3147 14.5317 19.9754 14.2807 19.7263C13.754 19.2217 12.9233 19.2217 12.3966 19.7263C12.0148 20.1072 11.9003 20.6807 12.1066 21.179C12.3129 21.6774 12.7993 22.0021 13.3386 22.0017C13.7068 22.0017 14.0053 22.3002 14.0053 22.6683C14.0053 23.0365 13.7068 23.335 13.3386 23.335Z" fill="white"/>
<path d="M13.3385 27.3333C11.8665 27.3317 10.6735 26.1387 10.6719 24.6667C10.6719 24.2985 10.9704 24 11.3385 24C11.7067 24 12.0052 24.2985 12.0052 24.6667C12.0058 25.4022 12.6023 25.9981 13.3378 25.9979C14.0733 25.9977 14.6695 25.4015 14.6697 24.666C14.6699 23.9304 14.0741 23.3339 13.3385 23.3333C12.9704 23.3333 12.6719 23.0349 12.6719 22.6667C12.6719 22.2985 12.9704 22 13.3385 22C14.8113 22 16.0052 23.1939 16.0052 24.6667C16.0052 26.1394 14.8113 27.3333 13.3385 27.3333Z" fill="white"/>
<path d="M20.0027 23.335C18.9241 23.3355 17.9515 22.6859 17.5388 21.6894C17.1261 20.6928 17.3548 19.5458 18.118 18.7836C19.1722 17.7753 20.8333 17.7753 21.8874 18.7836C22.3894 19.2822 22.6709 19.9609 22.6694 20.6683C22.6694 21.0365 22.3709 21.335 22.0027 21.335C21.6345 21.335 21.336 21.0365 21.336 20.6683C21.3366 20.3147 21.1958 19.9754 20.9448 19.7263C20.4181 19.2217 19.5874 19.2217 19.0606 19.7263C18.6788 20.1072 18.5644 20.6807 18.7707 21.179C18.977 21.6774 19.4634 22.0021 20.0027 22.0017C20.3709 22.0017 20.6694 22.3002 20.6694 22.6683C20.6694 23.0365 20.3709 23.335 20.0027 23.335Z" fill="white"/>
<path d="M20.0026 27.3333C18.5305 27.3317 17.3376 26.1387 17.3359 24.6667C17.3359 24.2985 17.6344 24 18.0026 24C18.3708 24 18.6693 24.2985 18.6693 24.6667C18.6699 25.4022 19.2664 25.9981 20.0019 25.9979C20.7374 25.9977 21.3336 25.4015 21.3338 24.666C21.334 23.9304 20.7381 23.3339 20.0026 23.3333C19.6344 23.3333 19.3359 23.0349 19.3359 22.6667C19.3359 22.2985 19.6344 22 20.0026 22C21.4754 22 22.6693 23.1939 22.6693 24.6667C22.6693 26.1394 21.4754 27.3333 20.0026 27.3333Z" fill="white"/>
<path d="M26.6667 27.3333H24.6667C24.2985 27.3333 24 27.0349 24 26.6667V18.6667C24 18.2985 24.2985 18 24.6667 18H26.6667C28.1387 18.0017 29.3317 19.1946 29.3333 20.6667V24.6667C29.3317 26.1387 28.1387 27.3317 26.6667 27.3333ZM25.3333 26H26.6667C27.4027 25.9993 27.9993 25.4027 28 24.6667V20.6667C27.9993 19.9306 27.4027 19.3341 26.6667 19.3333H25.3333V26Z" fill="white"/>
</svg>
