<svg width="500" height="500" viewBox="0 0 500 500" fill="none" xmlns="http://www.w3.org/2000/svg">
<rect width="500" height="500" fill="white"/>
<path d="M500 382.398H0V382.648H500V382.398Z" fill="#EBEBEB"/>
<path d="M238.401 337.801H45.3017C42.1547 337.801 39.5938 335.24 39.5938 332.093V60.6611C39.5938 57.5141 42.1547 54.9531 45.3017 54.9531H238.401C241.547 54.9531 244.108 57.5141 244.108 60.6611V332.093C244.108 335.24 241.547 337.801 238.401 337.801ZM45.3017 55.2041C42.2917 55.2041 39.8438 57.6521 39.8438 60.6621V332.094C39.8438 335.104 42.2917 337.552 45.3017 337.552H238.401C241.41 337.552 243.858 335.104 243.858 332.094V60.6611C243.858 57.6521 241.41 55.2031 238.401 55.2031L45.3017 55.2041Z" fill="#EBEBEB"/>
<path d="M454.697 337.801H261.598C258.452 337.801 255.891 335.24 255.891 332.093V60.6611C255.891 57.5141 258.452 54.9531 261.598 54.9531H454.697C457.845 54.9531 460.405 57.5141 460.405 60.6611V332.093C460.405 335.24 457.844 337.801 454.697 337.801ZM261.598 55.2041C258.589 55.2041 256.141 57.6521 256.141 60.6621V332.094C256.141 335.104 258.589 337.552 261.598 337.552H454.697C457.707 337.552 460.155 335.104 460.155 332.094V60.6611C460.155 57.6521 457.707 55.2031 454.697 55.2031L261.598 55.2041Z" fill="#EBEBEB"/>
<path d="M500 382.398H0V382.648H500V382.398Z" fill="#EBEBEB"/>
<path d="M449.899 398.496H416.777V398.746H449.899V398.496Z" fill="#EBEBEB"/>
<path d="M331.22 401.211H322.527V401.461H331.22V401.211Z" fill="#EBEBEB"/>
<path d="M415.778 389.211H396.586V389.461H415.778V389.211Z" fill="#EBEBEB"/>
<path d="M95.6539 390.891H52.4609V391.141H95.6539V390.891Z" fill="#EBEBEB"/>
<path d="M225.149 395.113H131.473V395.363H225.149V395.113Z" fill="#EBEBEB"/>
<path d="M154.368 158.679C166.663 158.712 201.138 163.715 201.138 145.197C201.138 129.462 184.289 130.62 184.289 130.62C184.289 130.62 184.776 116.987 169.764 115.174C154.368 113.315 152.044 128.045 152.044 128.045C152.044 128.045 125.319 118.665 129.385 142.203C129.385 142.203 114.57 139.586 114.57 150.183C114.57 162.026 142.457 158.648 154.368 158.679Z" fill="#F0F0F0"/>
<path d="M138.876 298.709C163.832 298.784 233.805 310.244 233.805 267.828C233.805 231.788 199.607 234.44 199.607 234.44C199.607 234.44 200.595 203.215 170.126 199.063C138.876 194.804 134.159 228.544 134.159 228.544C134.159 228.544 79.9137 207.06 88.1687 260.973C88.1687 260.973 58.0977 254.98 58.0977 279.251C58.0977 306.374 114.702 298.636 138.876 298.709Z" fill="#F5F5F5"/>
<path d="M232.094 302.463C218.288 302.504 179.578 308.844 179.578 285.379C179.578 265.441 198.497 266.909 198.497 266.909C198.497 266.909 197.95 249.635 214.806 247.338C232.094 244.982 234.703 263.647 234.703 263.647C234.703 263.647 264.712 251.762 260.145 281.587C260.145 281.587 276.78 278.272 276.78 291.699C276.781 306.703 245.468 302.423 232.094 302.463Z" fill="#F0F0F0"/>
<path d="M309.146 204.163C322.916 204.198 361.525 209.477 361.525 189.935C361.525 173.33 342.655 174.552 342.655 174.552C342.655 174.552 343.2 160.166 326.388 158.253C309.145 156.291 306.542 171.836 306.542 171.836C306.542 171.836 276.611 161.938 281.166 186.777C281.166 186.777 264.574 184.016 264.574 195.198C264.575 207.694 295.807 204.129 309.146 204.163Z" fill="#F0F0F0"/>
<path d="M268.09 382.283L288.213 251.827L348.054 176.278L368.455 90.2383C368.455 90.2383 417.909 138.026 419.28 139.28C420.652 140.534 431.539 269.522 433.051 271.491C434.563 273.46 448.771 295.953 448.771 295.953L455.382 381.89L268.09 382.283Z" fill="#FAFAFA"/>
<path d="M268.09 382.284L296.768 269.558L337.404 230.825L345.011 279.853L355.245 224.083L366.867 243.098L364.344 177.538L366.362 156.563L373.181 170.486L368.454 90.2383L402.932 91.0353L410.108 128.914L419.279 139.28L433.05 271.491L448.771 295.953L455.381 381.89L268.09 382.284Z" fill="#EBEBEB"/>
<path d="M369.355 90.6719L389.835 156.94L402.038 166.636C402.038 166.636 408.474 193.57 408.401 191.848C408.328 190.126 407.662 159.951 407.662 159.951L410.822 135.329L402.848 91.4699L369.355 90.6719Z" fill="#F5F5F5"/>
<path d="M433.051 271.492L437.831 293.77L448.772 295.954L433.051 271.492Z" fill="#F5F5F5"/>
<path d="M356.063 337.44C377.936 337.506 439.263 347.55 439.263 310.375C439.263 278.788 409.29 281.113 409.29 281.113C409.29 281.113 410.156 253.746 383.452 250.107C356.063 246.375 351.929 275.946 351.929 275.946C351.929 275.946 304.386 257.116 311.621 304.368C311.621 304.368 285.266 299.115 285.266 320.388C285.265 344.158 334.875 337.376 356.063 337.44Z" fill="#F5F5F5"/>
<path d="M110.888 390.887H104.555V391.137H110.888V390.887Z" fill="#EBEBEB"/>
<path d="M252.139 427.013C359.221 427.013 446.028 421.944 446.028 415.69C446.028 409.437 359.221 404.367 252.139 404.367C145.057 404.367 58.25 409.437 58.25 415.69C58.25 421.944 145.057 427.013 252.139 427.013Z" fill="#F5F5F5"/>
<path d="M403.349 95.0798C403.349 104.74 395.519 112.57 385.859 112.57C385.469 112.57 385.079 112.56 384.689 112.53C375.589 111.93 368.379 104.35 368.379 95.0798C368.379 85.8098 375.589 78.2298 384.689 77.6298C385.079 77.5998 385.469 77.5898 385.859 77.5898C395.519 77.5898 403.349 85.4198 403.349 95.0798Z" fill="#407BFF"/>
<path opacity="0.2" d="M401.009 95.0789C401.009 104.349 393.799 111.929 384.689 112.529C375.589 111.929 368.379 104.349 368.379 95.0789C368.379 85.8089 375.589 78.2289 384.689 77.6289C393.799 78.2289 401.009 85.8089 401.009 95.0789Z" fill="white"/>
<path opacity="0.4" d="M396.752 100.082C399.518 93.4056 396.348 85.7511 389.671 82.9854C382.994 80.2198 375.34 83.3903 372.574 90.067C369.808 96.7437 372.979 104.398 379.656 107.164C386.332 109.93 393.987 106.759 396.752 100.082Z" fill="white"/>
<g opacity="0.7">
<path d="M390.67 97.8653C391.176 100.758 389.188 102.693 385.608 102.997L385.548 105.39H383.373L383.433 102.997C381.332 102.802 379.391 102.15 378.137 101.323L379.122 98.6263C380.424 99.4753 381.976 100.018 383.503 100.171L383.599 96.4963C381.47 95.8873 379.11 95.0833 378.649 92.4503C378.143 89.5583 380.172 87.6013 383.823 87.3383L383.883 84.9453H386.058L386.002 87.3603C387.573 87.5113 389.063 87.9483 390.221 88.5993L389.367 91.2963C388.321 90.6663 387.125 90.2953 385.928 90.1653L385.837 93.9933C387.942 94.5803 390.232 95.3633 390.67 97.8653ZM383.666 93.3843L383.748 90.2523C382.55 90.4923 381.972 91.1653 382.096 91.9923C382.214 92.6663 382.825 93.0573 383.666 93.3843ZM387.245 98.4303C387.135 97.8003 386.565 97.4073 385.755 97.1253L385.689 100.104C386.822 99.8653 387.39 99.2573 387.245 98.4303Z" fill="white"/>
</g>
<path d="M298.865 255.711H239.695V415.742H298.865V255.711Z" fill="#407BFF"/>
<path opacity="0.2" d="M256.4 255.555H239.68V415.773H256.4V255.555Z" fill="black"/>
<path d="M239.615 319.711H180.445V415.741H239.615V319.711Z" fill="#407BFF"/>
<path opacity="0.2" d="M198.225 319.711H180.445V415.641H198.225V319.711Z" fill="black"/>
<path d="M180.4 340.102H121.23V415.742H180.4V340.102Z" fill="#407BFF"/>
<path opacity="0.2" d="M138.83 340.102H121.23V415.642H138.83V340.102Z" fill="black"/>
<path d="M121.211 360.492H62.043V415.74H121.211V360.492Z" fill="#407BFF"/>
<path opacity="0.2" d="M78.7669 360.438H62.0469V415.638H78.7669V360.438Z" fill="black"/>
<path d="M222.917 132.08C220.107 135.477 217.213 138.805 214.317 142.128L212.128 144.607L210.164 146.797C209.356 147.75 208.824 148.946 208.635 150.249L207.976 156.704C207.755 158.894 207.542 161.083 207.285 163.272C206.802 167.649 206.299 172.025 205.712 176.397C205.506 177.93 204.096 179.005 202.564 178.799C201.212 178.617 200.217 177.498 200.142 176.185C199.888 171.785 199.721 167.389 199.572 162.995C199.482 160.797 199.437 158.601 199.383 156.405L199.234 149.703C199.275 146.62 200.293 143.52 202.056 140.918L204.233 137.99L206.206 135.368C208.859 131.889 211.515 128.417 214.254 125.012C216.19 122.606 219.709 122.225 222.115 124.161C224.521 126.097 224.902 129.616 222.966 132.022C222.955 132.033 222.927 132.068 222.917 132.08Z" fill="#407BFF"/>
<path d="M199.448 176.691L195.793 182.896L204.207 183.75L205.688 177.45C205.863 176.704 205.384 175.951 204.628 175.821C203.233 175.582 201.051 175.483 199.448 176.691Z" fill="#CB7A63"/>
<path d="M195.793 182.895L196.177 185.09C196.366 186.175 197.31 186.965 198.411 186.962L201.151 186.955C201.986 186.953 202.751 186.491 203.143 185.754L204.207 183.749L195.793 182.895Z" fill="#CB7A63"/>
<path d="M198.852 172.039L206.951 172.316L206.429 177.154L199.588 176.626L198.852 172.039Z" fill="#407BFF"/>
<path opacity="0.3" d="M198.852 172.039L206.951 172.316L206.429 177.154L199.588 176.626L198.852 172.039Z" fill="white"/>
<path d="M207.022 222.838L205.691 224.838L204.673 222.772L207.098 191.374C207.483 186.382 205.8 182.281 199.59 182.13C193.782 181.989 190.257 185.957 189.852 190.94L187.309 222.281L185.918 224.275L184.969 222.215L187.528 190.881C188.001 185.088 190.572 180.44 199.706 180.66C208.856 180.881 209.876 185.626 209.43 191.432L207.022 222.838Z" fill="#263238"/>
<path d="M181.284 201.66L179.678 201.652C176.334 201.636 173.5 204.111 173.066 207.427L170.105 230.054L180.523 230.425L181.284 201.66Z" fill="#263238"/>
<path opacity="0.2" d="M181.284 201.66L179.678 201.652C176.334 201.636 173.5 204.111 173.066 207.427L170.105 230.054L180.523 230.425L181.284 201.66Z" fill="white"/>
<path d="M210.696 223.103L208.342 223.037L208.571 191.639C208.607 186.647 206.637 182.546 200.417 182.395C194.599 182.254 191.351 186.222 191.295 191.205L190.943 222.546L188.598 222.48L188.966 191.146C189.034 185.353 191.28 180.705 200.429 180.925C209.595 181.146 210.946 185.891 210.907 191.697L210.696 223.103Z" fill="#263238"/>
<path d="M221.739 231.65L175.434 230.276L175.881 206.934C175.925 203.944 178.343 201.585 181.283 201.662L214.996 202.544C218.804 202.644 221.879 205.853 221.863 209.718L221.739 231.65Z" fill="#263238"/>
<path opacity="0.4" d="M216.606 231.498L180.521 230.427C177.709 230.344 175.466 227.944 175.508 225.071L175.879 206.934C175.923 203.944 178.341 201.585 181.281 201.662L214.994 202.544C218.802 202.644 221.877 205.853 221.861 209.718L221.759 226.421C221.747 229.307 219.439 231.582 216.606 231.498Z" fill="white"/>
<g opacity="0.3">
<path d="M210.698 223.104L209.507 225.104L208.345 223.038L208.574 191.64C208.61 186.648 206.64 182.547 200.42 182.396C194.602 182.255 191.354 186.223 191.298 191.206L190.946 222.547L189.695 224.541L188.602 222.48L188.97 191.146C189.038 185.353 191.284 180.705 200.433 180.925C209.599 181.146 210.95 185.891 210.911 191.697L210.698 223.104Z" fill="white"/>
</g>
<path d="M191.742 210.437L187.883 210.332L187.9 208.879L191.758 208.983L191.742 210.437Z" fill="#263238"/>
<path d="M191.638 219.856L187.77 219.748L187.788 218.289L191.654 218.396L191.638 219.856Z" fill="#263238"/>
<path d="M211.574 210.971L207.699 210.867L207.71 209.41L211.583 209.514L211.574 210.971Z" fill="#263238"/>
<path d="M211.512 220.411L207.629 220.303L207.64 218.84L211.521 218.948L211.512 220.411Z" fill="#263238"/>
<path d="M204.192 211.599L195.906 211.375L195.937 208.266L204.217 208.488L204.192 211.599Z" fill="white"/>
<path d="M239.938 96.9916C240.257 96.9306 240.596 97.2626 240.7 97.7446C240.803 98.2266 240.636 98.6786 240.318 98.7396C239.999 98.8006 239.66 98.4686 239.557 97.9866C239.427 97.4886 239.619 97.0526 239.938 96.9916Z" fill="#263238"/>
<path d="M239.995 97.3973C240.321 97.2453 240.62 96.9053 240.751 96.5703C240.472 96.8313 240.089 96.9763 239.707 96.9673C239.853 97.0493 239.987 97.2293 239.995 97.3973Z" fill="#263238"/>
<path d="M240.631 102.291C241.471 102.326 242.282 101.987 242.848 101.366C241.623 100.302 240.55 99.0767 239.656 97.7227L240.631 102.291Z" fill="#B74D3C"/>
<path d="M237.26 96.2033C237.723 95.6223 238.439 95.3003 239.181 95.3393C239.212 95.3493 239.244 95.3543 239.277 95.3533C239.44 95.3503 239.569 95.2153 239.566 95.0523C239.563 94.8893 239.428 94.7603 239.266 94.7633C238.338 94.6883 237.431 95.0663 236.832 95.7793C236.786 95.8323 236.762 95.9003 236.762 95.9713C236.762 96.1343 236.894 96.2663 237.057 96.2663C237.13 96.2723 237.202 96.2493 237.26 96.2033Z" fill="#263238"/>
<path d="M234.215 125.103C225.896 125.192 224.621 120.664 224.621 120.664C227.092 118.238 227.215 113.798 226.69 109.84C227.327 110.735 228.121 111.517 229.161 112.21C231.151 113.518 235.468 111.416 235.468 111.416C235.479 111.416 235.468 112.154 235.524 113.216C235.658 115.81 236.228 120.361 238.588 121.066C238.588 121.066 243.385 125.003 234.215 125.103Z" fill="#CB7A63"/>
<path d="M235.591 112.092C235.503 112.474 235.414 112.857 235.361 113.262C235.327 113.285 235.292 113.297 235.257 113.298C233.309 113.782 231.155 113.516 229.165 112.208C228.117 111.514 227.323 110.737 226.689 109.842C226.563 108.838 226.379 107.857 226.195 106.957L235.254 111.911L235.591 112.092Z" fill="#CB7A63"/>
<path d="M241.549 105.3C241.49 108.376 239.807 110.972 237.453 112.384H237.441C237.43 112.396 237.418 112.396 237.406 112.396C236.774 112.796 236.084 113.081 235.358 113.262C235.324 113.285 235.289 113.297 235.254 113.298C233.306 113.782 231.152 113.516 229.162 112.208C228.114 111.514 227.32 110.737 226.686 109.842C225.055 107.605 224.375 104.619 223.209 100.423C222.849 99.1896 222.777 97.8846 223.006 96.6216C223.824 92.1046 228.15 89.1096 232.656 89.9276C238.979 91.0506 241.673 99.6796 241.549 105.3Z" fill="#CB7A63"/>
<path opacity="0.2" d="M236.997 112.548C236.415 112.917 236.125 113.062 235.521 113.219C235.465 112.157 235.477 111.419 235.465 111.419C235.521 110.491 235.588 109.562 235.588 109.562C235.588 109.595 236.561 112.548 236.997 112.548Z" fill="black"/>
<path d="M239.366 93.9542C238.689 95.0302 236.557 95.9402 236.629 95.6902C236.996 94.7972 236.928 93.0832 235.821 93.4842C236.127 94.1672 237.045 99.3022 236.629 99.9252C236.401 100.266 236.186 104.374 234.437 107.996C233.042 110.886 233.042 111.782 233.042 111.782L227.363 112.878C225.237 112.612 223.257 109.896 223.082 109.595C222.34 108.318 220.071 106.641 218.891 105.754C218.381 105.37 217.982 104.805 217.766 104.199C217.377 103.109 218.172 99.1812 218.345 97.3342C218.594 94.6772 219.989 92.2192 223.843 90.6412C226.226 89.6652 228.231 87.5242 230.662 86.6772C233.094 85.8302 235.986 85.8682 238.04 87.4212C239.05 88.1852 241.063 91.2572 239.366 93.9542Z" fill="#263238"/>
<path d="M236.399 97.6951C238.149 98.2081 239.061 100.786 239.136 102.424C239.221 104.233 238.013 105.376 236.436 104.165C235.248 103.232 234.4 101.935 234.021 100.473C233.593 98.7001 234.649 97.1811 236.399 97.6951Z" fill="#CB7A63"/>
<path d="M238.505 103.717C238.505 104.139 238.163 104.481 237.741 104.481C237.319 104.481 236.977 104.139 236.977 103.717C236.977 103.295 237.319 102.953 237.741 102.953C238.163 102.953 238.505 103.295 238.505 103.717Z" fill="#407BFF"/>
<path opacity="0.3" d="M238.505 103.717C238.505 104.139 238.163 104.481 237.741 104.481C237.319 104.481 236.977 104.139 236.977 103.717C236.977 103.295 237.319 102.953 237.741 102.953C238.163 102.953 238.505 103.295 238.505 103.717Z" fill="white"/>
<path d="M222.234 123.663C222.234 123.663 223.527 119.674 225.476 118.414C227.426 117.154 235.985 118.461 237.326 118.986C238.667 119.511 240.021 122.602 240.021 122.602L222.234 123.663Z" fill="#407BFF"/>
<path opacity="0.3" d="M222.234 123.663C222.234 123.663 223.527 119.674 225.476 118.414C227.426 117.154 235.985 118.461 237.326 118.986C238.667 119.511 240.021 122.602 240.021 122.602L222.234 123.663Z" fill="white"/>
<path d="M241.778 121.957C240.446 121.738 240.079 121.537 238.553 121.417C233.961 121.201 229.359 121.251 224.773 121.566C223.098 121.686 221.487 122.01 219.888 122.393C216.603 123.182 214.388 126.243 214.632 129.588C215.314 138.95 218.081 144.443 218.489 150.606C219.302 162.885 217.343 171.494 217.01 174.36L223.305 175.316C234.549 175.049 242.014 172.632 248.202 170C248.202 170 246.58 155.155 248.148 149.806C252.433 135.192 249.651 132.88 248.806 128.696C248.102 125.218 245.304 122.535 241.778 121.957Z" fill="#407BFF"/>
<path opacity="0.1" d="M248.148 149.804C247.634 151.548 247.466 154.299 247.466 157.206C247.466 163.244 248.204 169.998 248.204 169.998C242.02 172.637 234.551 175.052 223.302 175.32L217.007 174.358C217.342 171.495 219.299 162.886 218.494 150.608C218.08 144.447 215.319 138.957 214.636 129.586C214.39 126.243 216.604 123.179 219.891 122.396C221.49 122.005 223.1 121.692 224.777 121.569C229.362 121.256 233.957 121.2 238.553 121.412C240.074 121.535 240.443 121.736 241.773 121.96C245.306 122.541 248.102 125.214 248.806 128.703C249.108 130.201 249.667 131.465 250.047 133.142C250.516 135.177 250.74 137.827 249.957 142.266C249.601 144.347 249.02 146.818 248.148 149.804Z" fill="white"/>
<path d="M243.587 121.506C245.885 121.83 248.162 122.289 250.45 122.675C252.73 123.115 255.008 123.567 257.28 124.056L256.457 123.991C257.471 124.036 258.363 124.115 258.926 124.15C259.198 124.17 259.389 124.165 259.318 124.206C259.304 124.229 259.171 124.271 259.016 124.371C258.822 124.475 258.588 124.644 258.334 124.904C257.81 125.429 257.6 126.132 257.615 126.34C257.611 126.567 257.683 126.514 257.695 126.338C257.734 125.977 257.657 125.287 257.508 124.577L257.612 124.872C256.459 121.544 255.364 118.193 254.361 114.805C253.388 111.406 252.453 107.992 251.789 104.472C251.534 103.121 252.423 101.818 253.775 101.563C254.809 101.368 255.816 101.848 256.345 102.686C258.25 105.72 259.883 108.86 261.478 112.015C263.044 115.182 264.517 118.385 265.932 121.61L266.036 121.905C266.423 122.925 266.801 123.998 267.028 125.441C267.132 126.165 267.205 127.027 267.04 128.147C266.887 129.242 266.287 130.811 265.105 131.964C264.527 132.543 263.902 132.95 263.307 133.262C262.739 133.547 262.18 133.749 261.724 133.873C260.772 134.136 260.057 134.213 259.425 134.278C258.177 134.396 257.256 134.401 256.459 134.448L256.331 134.456L255.635 134.383C253.324 134.141 251.018 133.863 248.714 133.572C246.419 133.228 244.112 132.956 241.827 132.549C238.787 132.008 236.761 129.104 237.303 126.063C237.832 123.093 240.625 121.093 243.587 121.506Z" fill="#407BFF"/>
<g opacity="0.1">
<path d="M243.587 121.506C245.885 121.83 248.162 122.289 250.45 122.675C252.73 123.115 255.008 123.567 257.28 124.056L256.457 123.991C257.471 124.036 258.363 124.115 258.926 124.15C259.198 124.17 259.389 124.165 259.318 124.206C259.304 124.229 259.171 124.271 259.016 124.371C258.822 124.475 258.588 124.644 258.334 124.904C257.81 125.429 257.6 126.132 257.615 126.34C257.611 126.567 257.683 126.514 257.695 126.338C257.734 125.977 257.657 125.287 257.508 124.577L257.612 124.872C256.459 121.544 255.364 118.193 254.361 114.805C253.388 111.406 252.453 107.992 251.789 104.472C251.534 103.121 252.423 101.818 253.775 101.563C254.809 101.368 255.816 101.848 256.345 102.686C258.25 105.72 259.883 108.86 261.478 112.015C263.044 115.182 264.517 118.385 265.932 121.61L266.036 121.905C266.423 122.925 266.801 123.998 267.028 125.441C267.132 126.165 267.205 127.027 267.04 128.147C266.887 129.242 266.287 130.811 265.105 131.964C264.527 132.543 263.902 132.95 263.307 133.262C262.739 133.547 262.18 133.749 261.724 133.873C260.772 134.136 260.057 134.213 259.425 134.278C258.177 134.396 257.256 134.401 256.459 134.448L256.331 134.456L255.635 134.383C253.324 134.141 251.018 133.863 248.714 133.572C246.419 133.228 244.112 132.956 241.827 132.549C238.787 132.008 236.761 129.104 237.303 126.063C237.832 123.093 240.625 121.093 243.587 121.506Z" fill="white"/>
</g>
<path d="M284.935 99.979L314.916 99.06L314.456 89.668L284.535 91.638L284.935 99.979Z" fill="#407BFF"/>
<path d="M262.275 100.34L286.519 99.5604L286.15 91.8594L261.949 93.4204L262.275 100.34Z" fill="#407BFF"/>
<path d="M283.319 99.7553L284.908 99.9233L284.514 91.6953L282.949 92.0153L283.319 99.7553Z" fill="#263238"/>
<path opacity="0.2" d="M283.319 99.7553L284.908 99.9233L284.514 91.6953L282.949 92.0153L283.319 99.7553Z" fill="black"/>
<path d="M284.911 99.9822L286.539 99.9322L286.136 91.5352L284.512 91.6422L284.911 99.9822Z" fill="#263238"/>
<path d="M258.511 99.2003L260.917 100.317L260.599 93.5703L258.309 94.9133L258.511 99.2003Z" fill="#263238"/>
<path d="M246.192 99.1188L253.321 98.7478L253.173 95.5898L246.047 96.0158L246.192 99.1188Z" fill="#263238"/>
<path opacity="0.2" d="M246.192 99.1188L253.321 98.7478L253.173 95.5898L246.047 96.0158L246.192 99.1188Z" fill="black"/>
<path d="M252.347 99.3852L260.279 99.0802L260.071 94.6602L252.148 95.1292L252.347 99.3852Z" fill="#263238"/>
<path opacity="0.2" d="M258.511 99.2003L260.917 100.317L260.599 93.5703L258.309 94.9133L258.511 99.2003Z" fill="black"/>
<path d="M260.961 100.385L262.276 100.342L261.95 93.4219L260.637 93.5069L260.961 100.385Z" fill="#263238"/>
<path d="M313.896 99.0921L318.598 98.9241L318.137 89.4961L313.438 89.7361L313.896 99.0921Z" fill="#263238"/>
<path d="M315.982 99.7591L321.982 99.5911L322.131 99.1761C323.413 95.6191 323.158 91.6891 321.427 88.3281L315.441 88.7421L315.572 89.0561C316.994 92.4581 317.14 96.2591 315.982 99.7591Z" fill="#407BFF"/>
<g opacity="0.4">
<path d="M309.59 90.7086L312.017 90.5586L312.066 91.5936L309.601 91.7356C309.542 91.3976 309.562 91.0516 309.59 90.7086Z" fill="white"/>
<path d="M308.12 90.8242C308.094 91.1662 308.078 91.5092 308.131 91.8452L287.086 93.0372L287.035 92.1022L308.12 90.8242Z" fill="white"/>
</g>
<g opacity="0.4">
<path d="M262.461 93.9639L262.505 94.8029L282.278 93.6289L282.235 92.7109L262.461 93.9639Z" fill="white"/>
</g>
<g opacity="0.4">
<path d="M315.969 89.0644L316.028 90.1124L320.718 89.8034L320.667 88.7344L315.969 89.0644Z" fill="white"/>
</g>
<path opacity="0.3" d="M321.376 98.207C321.346 98.565 321.328 98.924 321.385 99.278L316.528 99.444L316.469 98.395L321.376 98.207Z" fill="black"/>
<path opacity="0.3" d="M312.678 97.6211C312.65 97.9681 312.634 98.3161 312.688 98.6581L286.946 99.5781L286.895 98.6441L312.678 97.6211Z" fill="black"/>
<path opacity="0.3" d="M282.042 98.5234C282.022 98.8294 282.01 99.1384 282.054 99.4414L262.927 100.113L262.883 99.2724L282.042 98.5234Z" fill="black"/>
<path d="M244.59 96.1361L244.652 99.1561C244.662 99.6691 245.127 100.078 245.692 100.068L248.143 100.026L248.041 95.0781L245.591 95.1681C245.027 95.1901 244.58 95.6221 244.59 96.1361Z" fill="#407BFF"/>
<path d="M257.261 104.513L258.192 98.885C258.231 98.651 258.239 98.413 258.218 98.178L257.951 95.195C257.907 94.809 257.636 94.43 257.216 94.301L252.72 94.249C252.127 94.062 251.475 94.346 251.278 94.874L250.471 98.561C250.41 98.837 250.416 99.124 250.488 99.397L251.822 104.474C251.951 104.898 252.342 105.228 252.826 105.321L255.764 105.347C256.456 105.48 257.12 105.111 257.261 104.513Z" fill="#CE7A63"/>
<path d="M259.902 106.884L252.257 109.573L250.984 104.876L257.548 102.879L259.902 106.884Z" fill="#407BFF"/>
<path opacity="0.3" d="M259.902 106.884L252.257 109.573L250.984 104.876L257.548 102.879L259.902 106.884Z" fill="white"/>
<path opacity="0.2" d="M249.961 142.266L244.102 131.207L250.051 133.141C250.52 135.177 250.744 137.827 249.961 142.266Z" fill="black"/>
<path d="M280.165 234.077L278.953 249.098L285.79 249.228L287.666 233.754L280.165 234.077Z" fill="#CE7A63"/>
<path d="M286.872 247.173L279.073 247.331C278.779 247.337 278.526 247.56 278.465 247.87L277.122 254.71C276.999 255.316 277.356 255.91 277.919 256.037C277.991 256.053 278.065 256.061 278.139 256.061C280.95 255.952 283.448 255.736 286.949 255.67C291.079 255.588 290.037 256.139 294.893 256.115C297.819 256.097 298.32 252.516 297.077 252.366C291.391 251.714 290.784 249.885 288.572 247.747C288.091 247.338 287.486 247.134 286.872 247.173Z" fill="#263238"/>
<path d="M205.507 298.445L202.742 312.241L210.093 314.486L213.634 300.395L205.507 298.445Z" fill="#CE7A63"/>
<path d="M244.838 170.605C244.838 170.605 234.375 231.669 228.692 249.64C224.646 262.436 213.792 304.3 213.792 304.3L203.946 302.117C203.946 302.117 202.845 273.621 208.321 258.912C210.189 253.894 212.627 249.367 213.287 246.256C216.107 232.965 210.295 208.853 212.864 190.869C214.257 181.121 217.232 174.169 217.232 174.169L244.838 170.605Z" fill="#263238"/>
<path d="M228.692 249.639C224.646 262.435 213.792 304.299 213.792 304.299L203.946 302.116C203.946 302.116 202.845 273.62 208.321 258.911C210.189 253.893 212.627 249.366 213.287 246.255C216.107 232.964 210.295 208.852 212.864 190.868C214.257 181.12 217.232 174.168 217.232 174.168" fill="#263238"/>
<path opacity="0.2" d="M232.008 189.48L237.275 210.162L241.128 190.379L232.008 189.48Z" fill="black"/>
<path d="M288.146 241.28L278.526 241.59C278.526 241.59 279.236 229 279.236 210.64C279.236 207.81 279.676 205.02 280.296 202.52C281.666 196.91 283.886 192.73 283.886 192.73C283.886 192.73 282.856 192.79 281.096 192.87C275.656 193.15 241.934 194.892 241.274 194.842C240.774 194.792 237.71 195.198 232.216 192.52C222.008 187.543 221.906 173.57 221.906 173.57L248.196 170C248.196 170.02 248.626 170.08 254.956 170.19C274.146 170.52 297.729 171.263 301.868 177.851C307.689 187.119 288.146 241.28 288.146 241.28Z" fill="#263238"/>
<path d="M210.461 310.914L202.394 311.023C202.09 311.027 201.841 311.252 201.795 311.563L200.791 318.458C200.698 319.069 201.101 319.671 201.691 319.803C201.767 319.82 201.843 319.829 201.92 319.829C204.824 319.737 207.4 319.535 211.021 319.491C215.294 319.435 214.245 319.985 219.273 319.992C222.302 319.993 222.618 316.381 221.323 316.221C215.398 315.526 214.665 313.676 212.254 311.504C211.734 311.088 211.096 310.878 210.461 310.914Z" fill="#263238"/>
<path opacity="0.2" d="M280.297 202.52C281.667 196.91 283.887 192.73 283.887 192.73C283.887 192.73 282.857 192.79 281.097 192.87C281.017 192.84 280.937 192.82 280.837 192.82L287.849 192.23L280.297 202.52Z" fill="black"/>
<path d="M96.5433 127.759C103.318 127.759 108.809 122.267 108.809 115.493C108.809 108.718 103.318 103.227 96.5433 103.227C89.769 103.227 84.2773 108.718 84.2773 115.493C84.2773 122.267 89.769 127.759 96.5433 127.759Z" fill="#407BFF"/>
<path opacity="0.6" d="M96.5433 127.759C103.318 127.759 108.809 122.267 108.809 115.493C108.809 108.718 103.318 103.227 96.5433 103.227C89.769 103.227 84.2773 108.718 84.2773 115.493C84.2773 122.267 89.769 127.759 96.5433 127.759Z" fill="white"/>
<path d="M96.5623 98.5507C95.5543 98.5507 94.7383 97.7347 94.7383 96.7267V88.6717C94.7383 87.6637 95.5543 86.8477 96.5623 86.8477C97.5703 86.8477 98.3863 87.6637 98.3863 88.6717V96.7267C98.3863 97.7337 97.5703 98.5507 96.5623 98.5507Z" fill="#407BFF"/>
<path d="M96.5623 143.953C95.5543 143.953 94.7383 143.137 94.7383 142.129V134.074C94.7383 133.066 95.5543 132.25 96.5623 132.25C97.5703 132.25 98.3863 133.066 98.3863 134.074V142.129C98.3863 143.136 97.5703 143.953 96.5623 143.953Z" fill="#407BFF"/>
<path d="M83.3614 104.02C82.8944 104.02 82.4274 103.842 82.0714 103.486L78.5894 100.004C77.8764 99.2914 77.8764 98.1374 78.5894 97.4254C79.3024 96.7124 80.4574 96.7124 81.1684 97.4254L84.6504 100.907C85.3624 101.62 85.3624 102.774 84.6504 103.486C84.2954 103.842 83.8284 104.02 83.3614 104.02Z" fill="#407BFF"/>
<path d="M113.016 133.675C112.549 133.675 112.083 133.497 111.726 133.141L108.48 129.895C107.767 129.183 107.767 128.028 108.48 127.316C109.192 126.603 110.347 126.603 111.059 127.316L114.305 130.562C115.018 131.274 115.018 132.429 114.305 133.141C113.949 133.497 113.482 133.675 113.016 133.675Z" fill="#407BFF"/>
<path d="M77.8907 117.222H69.8357C68.8277 117.222 68.0117 116.406 68.0117 115.398C68.0117 114.39 68.8277 113.574 69.8357 113.574H77.8907C78.8987 113.574 79.7147 114.39 79.7147 115.398C79.7147 116.406 78.8987 117.222 77.8907 117.222Z" fill="#407BFF"/>
<path d="M123.293 117.222H115.238C114.23 117.222 113.414 116.406 113.414 115.398C113.414 114.39 114.23 113.574 115.238 113.574H123.293C124.3 113.574 125.117 114.39 125.117 115.398C125.117 116.406 124.301 117.222 123.293 117.222Z" fill="#407BFF"/>
<path d="M80.2896 133.495C79.8226 133.495 79.3566 133.317 78.9996 132.961C78.2866 132.249 78.2866 131.094 78.9996 130.382L82.0696 127.312C82.7806 126.599 83.9366 126.599 84.6486 127.312C85.3606 128.024 85.3606 129.179 84.6486 129.891L81.5786 132.961C81.2236 133.317 80.7566 133.495 80.2896 133.495Z" fill="#407BFF"/>
<path d="M109.766 104.018C109.299 104.018 108.833 103.84 108.476 103.484C107.763 102.772 107.763 101.617 108.476 100.905L111.768 97.6129C112.481 96.8999 113.635 96.8999 114.347 97.6129C115.06 98.3249 115.06 99.4799 114.347 100.192L111.055 103.484C110.699 103.84 110.232 104.018 109.766 104.018Z" fill="#407BFF"/>
<g opacity="0.6">
<path d="M96.5623 98.5507C95.5543 98.5507 94.7383 97.7347 94.7383 96.7267V88.6717C94.7383 87.6637 95.5543 86.8477 96.5623 86.8477C97.5703 86.8477 98.3863 87.6637 98.3863 88.6717V96.7267C98.3863 97.7337 97.5703 98.5507 96.5623 98.5507Z" fill="white"/>
<path d="M96.5623 143.953C95.5543 143.953 94.7383 143.137 94.7383 142.129V134.074C94.7383 133.066 95.5543 132.25 96.5623 132.25C97.5703 132.25 98.3863 133.066 98.3863 134.074V142.129C98.3863 143.136 97.5703 143.953 96.5623 143.953Z" fill="white"/>
<path d="M83.3614 104.02C82.8944 104.02 82.4274 103.842 82.0714 103.486L78.5894 100.004C77.8764 99.2914 77.8764 98.1374 78.5894 97.4254C79.3024 96.7124 80.4574 96.7124 81.1684 97.4254L84.6504 100.907C85.3624 101.62 85.3624 102.774 84.6504 103.486C84.2954 103.842 83.8284 104.02 83.3614 104.02Z" fill="white"/>
<path d="M113.016 133.675C112.549 133.675 112.083 133.497 111.726 133.141L108.48 129.895C107.767 129.183 107.767 128.028 108.48 127.316C109.192 126.603 110.347 126.603 111.059 127.316L114.305 130.562C115.018 131.274 115.018 132.429 114.305 133.141C113.949 133.497 113.482 133.675 113.016 133.675Z" fill="white"/>
<path d="M77.8907 117.222H69.8357C68.8277 117.222 68.0117 116.406 68.0117 115.398C68.0117 114.39 68.8277 113.574 69.8357 113.574H77.8907C78.8987 113.574 79.7147 114.39 79.7147 115.398C79.7147 116.406 78.8987 117.222 77.8907 117.222Z" fill="white"/>
<path d="M123.293 117.222H115.238C114.23 117.222 113.414 116.406 113.414 115.398C113.414 114.39 114.23 113.574 115.238 113.574H123.293C124.3 113.574 125.117 114.39 125.117 115.398C125.117 116.406 124.301 117.222 123.293 117.222Z" fill="white"/>
<path d="M80.2896 133.495C79.8226 133.495 79.3566 133.317 78.9996 132.961C78.2866 132.249 78.2866 131.094 78.9996 130.382L82.0696 127.312C82.7806 126.599 83.9366 126.599 84.6486 127.312C85.3606 128.024 85.3606 129.179 84.6486 129.891L81.5786 132.961C81.2236 133.317 80.7566 133.495 80.2896 133.495Z" fill="white"/>
<path d="M109.766 104.018C109.299 104.018 108.833 103.84 108.476 103.484C107.763 102.772 107.763 101.617 108.476 100.905L111.768 97.6129C112.481 96.8999 113.635 96.8999 114.347 97.6129C115.06 98.3249 115.06 99.4799 114.347 100.192L111.055 103.484C110.699 103.84 110.232 104.018 109.766 104.018Z" fill="white"/>
</g>
</svg>
