<svg width="30" height="30" viewBox="0 0 30 30" fill="none" xmlns="http://www.w3.org/2000/svg">
<path d="M28.9983 13.2843C28.9984 13.1727 28.9649 13.06 28.8942 12.9627C28.8697 12.9291 28.8418 12.8994 28.8118 12.8731C28.8119 12.873 28.812 12.873 28.8121 12.8729L26.9249 11.2212C27.3315 10.8938 27.5923 10.3923 27.5923 9.8308V8.93341C27.5923 6.52114 25.6298 4.55859 23.2175 4.55859C20.8052 4.55859 18.8427 6.52114 18.8427 8.93341C18.8427 11.3457 20.8052 13.3082 23.2175 13.3082C23.5195 13.3082 23.7644 13.0634 23.7644 12.7614C23.7644 12.4594 23.5195 12.2145 23.2175 12.2145C21.4083 12.2145 19.9364 10.7426 19.9364 8.93341C19.9364 7.12421 21.4083 5.6523 23.2175 5.6523C25.0267 5.6523 26.4986 7.12421 26.4986 8.93341V9.8308C26.4986 10.212 26.1886 10.522 25.8074 10.522C25.4262 10.522 25.1161 10.212 25.1161 9.8308V9.07516V7.50296C25.1161 7.35257 25.0542 7.20886 24.945 7.10556C24.4759 6.66212 23.8624 6.41789 23.2175 6.41789C21.8305 6.41789 20.702 7.54638 20.702 8.93341C20.702 10.3205 21.8305 11.4489 23.2175 11.4489C23.6868 11.4489 24.1392 11.319 24.5318 11.0776C24.8456 11.3986 25.2791 11.6017 25.7594 11.6145C25.7888 11.6658 25.8265 11.7134 25.8735 11.7545L27.5766 13.245L23.2022 16.4274V15.0018C23.2022 14.6998 22.9574 14.4549 22.6554 14.4549C22.3533 14.4549 22.1085 14.6998 22.1085 15.0018V17.2231L18.026 20.1931L15.3211 18.2253C15.1294 18.0858 14.8695 18.0858 14.6777 18.2253L11.9728 20.1931L2.44599 13.2622L5.55774 10.539C5.78501 10.3401 5.80798 9.99458 5.60909 9.76731C5.41015 9.54004 5.0647 9.51707 4.83743 9.71596L1.20168 12.8603C1.20146 12.8605 1.20124 12.8607 1.20102 12.8609C1.07836 12.9612 1 13.1136 1 13.2844V28.4543C1 28.7563 1.24483 29.0011 1.54685 29.0011H28.452C28.754 29.0011 28.9988 28.7563 28.9988 28.4543V13.2844C28.9987 13.2844 28.9985 13.2843 28.9983 13.2843ZM24.0225 9.07521V9.83085V10.1051C23.7869 10.2676 23.5078 10.3552 23.2176 10.3552C22.4336 10.3552 21.7958 9.71738 21.7958 8.93341C21.7958 8.14945 22.4336 7.5116 23.2176 7.5116C23.5078 7.5116 23.7869 7.59926 24.0225 7.76173V9.07521ZM2.0937 14.3585L11.0433 20.8693L2.0937 27.3802V14.3585ZM3.2281 27.9074L14.9994 19.3437L26.7708 27.9074H3.2281ZM27.9051 27.3802L18.9556 20.8693L27.9051 14.3585V27.3802Z" fill="white"/>
<path d="M19.4481 4.67686L15.3577 1.13326C15.1499 0.953181 14.8454 0.958212 14.6433 1.1326C14.6431 1.13244 14.643 1.13233 14.6428 1.13217L12.6742 2.82741C12.4453 3.02449 12.4196 3.36978 12.6166 3.59863C12.7248 3.72425 12.8775 3.78867 13.0313 3.78867C13.1576 3.78867 13.2846 3.74514 13.3879 3.65622L14.9987 2.26913L17.6384 4.55595H7.34373C7.0417 4.55595 6.79688 4.80078 6.79688 5.10281V12.9758C6.79688 13.2778 7.0417 13.5226 7.34373 13.5226C7.64575 13.5226 7.89058 13.2778 7.89058 12.9758V5.64971H19.0901C19.0883 5.64517 19.0869 5.64124 19.0851 5.63681C19.0867 5.63681 19.0883 5.63703 19.0898 5.63703C19.2429 5.63703 19.3952 5.57304 19.5034 5.44825C19.7011 5.22 19.6764 4.8746 19.4481 4.67686Z" fill="white"/>
<path d="M15.0746 10.0781H9.6074C9.30537 10.0781 9.06055 10.323 9.06055 10.625C9.06055 10.927 9.30537 11.1718 9.6074 11.1718H15.0746C15.3766 11.1718 15.6215 10.927 15.6215 10.625C15.6215 10.323 15.3766 10.0781 15.0746 10.0781Z" fill="white"/>
<path d="M14.9984 7.34375H9.6074C9.30537 7.34375 9.06055 7.58858 9.06055 7.8906C9.06055 8.19263 9.30537 8.43745 9.6074 8.43745H14.9984C15.3005 8.43745 15.5453 8.19263 15.5453 7.8906C15.5453 7.58858 15.3005 7.34375 14.9984 7.34375Z" fill="white"/>
<path d="M7.73035 14.793C7.62864 14.6913 7.48755 14.6328 7.34373 14.6328C7.19991 14.6328 7.05882 14.6913 6.9571 14.793C6.85539 14.8948 6.79688 15.0358 6.79688 15.1797C6.79688 15.324 6.85539 15.4646 6.9571 15.5663C7.05882 15.6686 7.19991 15.7265 7.34373 15.7265C7.48755 15.7265 7.62864 15.6686 7.73035 15.5663C7.83207 15.4646 7.89058 15.324 7.89058 15.1797C7.89058 15.0358 7.83207 14.8948 7.73035 14.793Z" fill="white"/>
<path d="M18.6962 12.7734H17.625C17.323 12.7734 17.0781 13.0183 17.0781 13.3203C17.0781 13.6223 17.323 13.8671 17.625 13.8671H18.6962C18.9982 13.8671 19.2431 13.6223 19.2431 13.3203C19.2431 13.0183 18.9982 12.7734 18.6962 12.7734Z" fill="white"/>
<path d="M15.2072 12.7734H15.2011C14.8991 12.7734 14.6543 13.0183 14.6543 13.3203C14.6543 13.6223 14.8991 13.8671 15.2011 13.8671H15.2072C15.5091 13.8671 15.754 13.6223 15.754 13.3203C15.754 13.0183 15.5092 12.7734 15.2072 12.7734Z" fill="white"/>
<path d="M12.5931 12.7734H9.60545C9.30342 12.7734 9.05859 13.0183 9.05859 13.3203C9.05859 13.6223 9.30342 13.8671 9.60545 13.8671H12.5931C12.8951 13.8671 13.1399 13.6223 13.1399 13.3203C13.1399 13.0183 12.8951 12.7734 12.5931 12.7734Z" fill="white"/>
</svg>
