<svg width="50" height="50" viewBox="0 0 50 50" fill="none" xmlns="http://www.w3.org/2000/svg">
<rect width="50" height="50" rx="5" fill="url(#paint0_linear_3677_10533)"/>
<path d="M29.9448 37.5547H11.4375C11.2188 37.5547 11 37.3797 11 37.1172C11 36.8547 11.175 36.6797 11.4375 36.6797H29.9448C30.1636 36.6797 30.3823 36.8547 30.3823 37.1172C30.3823 37.3797 30.1636 37.5547 29.9448 37.5547Z" fill="white"/>
<path d="M29.9478 37.5554H14.1094C13.8906 37.5554 13.6719 37.3804 13.6719 37.1178V25.961C13.6719 25.7422 13.8469 25.5234 14.1094 25.5234C14.3719 25.5234 14.5469 25.6984 14.5469 25.961V36.6803H29.9478C30.1666 36.6803 30.3853 36.8553 30.3853 37.1178C30.3853 37.3804 30.1666 37.5554 29.9478 37.5554Z" fill="white"/>
<path d="M12.9689 26.836C12.4438 26.836 11.9626 26.661 11.5688 26.2672C11.2188 25.9172 11 25.3921 11 24.8671C11 24.3858 11.2188 23.9046 11.525 23.5108L21.5443 13.4915C22.9444 12.0914 25.1758 12.0914 26.5759 13.4915L30.8636 17.7792C31.0386 17.9542 31.0386 18.2167 30.8636 18.3917C30.6886 18.5668 30.4261 18.5668 30.2511 18.3917L25.9633 14.104C24.9133 13.0539 23.2069 13.0539 22.1569 14.104L12.1813 24.0796C12.0063 24.2983 11.875 24.6046 11.875 24.8671C11.875 25.0859 11.9188 25.3921 12.1813 25.6546C12.6188 26.0922 13.3626 26.0922 13.8002 25.6546L23.7757 15.6791C23.9507 15.5041 24.2132 15.5041 24.3883 15.6791L28.0197 19.3105C28.1947 19.4856 28.1947 19.7481 28.0197 19.9231C27.8447 20.0981 27.5822 20.0981 27.4072 19.9231L24.082 16.5979L14.4127 26.2672C14.0189 26.661 13.4939 26.836 12.9689 26.836Z" fill="white"/>
<path d="M25.3945 37.5568H19.1817C18.9629 37.5568 18.7441 37.3818 18.7441 37.1193V29.1563C18.7441 28.4563 19.3129 27.8438 20.0567 27.8438H24.5632C25.2633 27.8438 25.832 28.4563 25.832 29.1563V37.1193C25.832 37.338 25.6133 37.5568 25.3945 37.5568ZM19.6192 36.6817H24.957V29.1563C24.957 28.8938 24.7382 28.7188 24.5632 28.7188H20.0567C19.7942 28.7188 19.6192 28.9376 19.6192 29.1563V36.6817Z" fill="white"/>
<path d="M32.6554 37.5096C32.0867 37.5096 31.5616 37.2034 31.2554 36.7221C29.724 34.1844 26.2676 28.0591 26.2676 25.434C26.2676 21.9338 29.1115 19.0898 32.6117 19.0898C36.1119 19.0898 38.9995 21.9338 38.9995 25.434C38.9995 27.2716 37.337 31.0343 34.0993 36.7221C33.7492 37.2034 33.2242 37.5096 32.6554 37.5096ZM32.6117 19.9649C29.5928 19.9649 27.1426 22.415 27.1426 25.434C27.1426 27.8841 30.8616 34.3595 31.9991 36.2846C32.1304 36.5033 32.3929 36.6783 32.6992 36.6783C33.0055 36.6783 33.2242 36.5471 33.3992 36.2846C37.2932 29.4154 38.1245 26.5715 38.1245 25.434C38.1245 22.415 35.6744 19.9649 32.6117 19.9649Z" fill="white"/>
<path d="M32.6588 29.5051C30.4274 29.5051 28.5898 27.6675 28.5898 25.4362C28.5898 23.2048 30.4274 21.3672 32.6588 21.3672C34.8902 21.3672 36.7278 23.2048 36.7278 25.4362C36.7278 27.6675 34.8902 29.5051 32.6588 29.5051ZM32.6588 22.2422C30.9087 22.2422 29.4649 23.6861 29.4649 25.4362C29.4649 27.1863 30.9087 28.6301 32.6588 28.6301C34.4089 28.6301 35.8528 27.1863 35.8528 25.4362C35.8528 23.6861 34.4089 22.2422 32.6588 22.2422Z" fill="white"/>
<path d="M20.4942 33.4868C20.2754 33.4868 20.0566 33.3118 20.0566 33.0493V32.4805C20.0566 32.2617 20.2317 32.043 20.4942 32.043C20.7567 32.043 20.9317 32.218 20.9317 32.4805V33.0493C20.9317 33.268 20.7129 33.4868 20.4942 33.4868Z" fill="white"/>
<defs>
<linearGradient id="paint0_linear_3677_10533" x1="-0.316691" y1="17.9741" x2="50.5485" y2="18.8703" gradientUnits="userSpaceOnUse">
<stop stop-color="#351EE0"/>
<stop offset="1" stop-color="#3F74EF"/>
</linearGradient>
</defs>
</svg>
