<svg width="39" height="40" viewBox="0 0 39 40" fill="none" xmlns="http://www.w3.org/2000/svg">
<g clip-path="url(#clip0_0_7)">
<path d="M3.24897 39.9939C2.17749 40.0836 1.18004 39.4221 0.811485 38.3774C-0.34207 35.3241 4.89217 29.7426 8.11504 26.6869C8.37746 26.4381 8.78516 26.4565 9.02567 26.728C9.26618 26.9994 9.24842 27.4212 8.98601 27.67C4.13946 32.2651 1.40186 36.2765 2.01105 37.8894C2.39869 38.8999 3.45912 38.7976 5.15897 38.2791C5.78202 38.0919 6.39753 37.8885 7.01368 37.685C8.30244 37.2329 9.61428 36.8546 10.9432 36.5517C13.345 36.0731 15.7923 35.8853 18.236 35.9918L19.1801 35.9985C19.2053 35.9985 19.2306 36.0001 19.2556 36.0033C19.307 35.9969 19.3589 35.9969 19.4103 36.0033C19.4349 36.0001 19.4598 35.9985 19.4847 35.9985L20.4287 35.9918C22.8726 35.8852 25.3202 36.0732 27.7221 36.5518C29.0509 36.8546 30.3625 37.233 31.6511 37.6851C32.2672 37.8886 32.8827 38.0918 33.5033 38.2785C35.2068 38.799 36.2673 38.9003 36.655 37.8869C37.2629 36.2769 34.5253 32.2655 29.6787 27.6704C29.4163 27.4216 29.3986 26.9998 29.6391 26.7284C29.8796 26.4569 30.2873 26.4385 30.5497 26.6873C33.7726 29.743 39.0068 35.3244 37.8545 38.3749C36.9552 40.7205 34.3805 39.9363 33.1408 39.5581C32.5126 39.3693 31.8858 39.1626 31.259 38.9556C30.0153 38.519 28.7495 38.153 27.4672 37.8592C25.1525 37.3968 22.7932 37.2178 20.4381 37.3259L19.5218 37.3318C19.3955 37.3357 19.2692 37.3357 19.143 37.3318L18.2266 37.3251C15.8717 37.2174 13.5127 37.3964 11.1981 37.8585C9.91566 38.1524 8.64966 38.5185 7.40576 38.9552C6.77891 39.1622 6.15213 39.3689 5.52147 39.5587C4.78742 39.8132 4.02244 39.9597 3.24897 39.9939Z" fill="white"/>
<path d="M19.3315 32.6669C12.128 32.6666 5.87839 27.5221 4.26015 20.2607C2.6419 12.9993 6.08353 5.54358 12.5598 2.28081C12.7676 2.1703 13.0169 2.18477 13.2114 2.31861C13.4059 2.45245 13.5152 2.6847 13.497 2.92564C13.4788 3.16657 13.336 3.37845 13.1237 3.47941C6.82435 6.65265 3.71019 14.1101 5.79473 21.03C7.87927 27.9499 14.5374 32.257 21.4641 31.1665C28.3909 30.076 33.509 23.915 33.5093 16.6669C33.5332 11.0489 30.432 5.91753 25.5393 3.47941C25.3271 3.37845 25.1842 3.16657 25.166 2.92564C25.1478 2.6847 25.2571 2.45245 25.4516 2.31861C25.6461 2.18477 25.8954 2.1703 26.1032 2.28081C32.5795 5.54358 36.0211 12.9993 34.4029 20.2607C32.7846 27.5221 26.535 32.6666 19.3315 32.6669Z" fill="white"/>
<path d="M14.146 5.79393C13.9772 5.7942 13.8099 5.76049 13.6536 5.69467C13.3313 5.55979 13.0767 5.29395 12.9493 4.95933L12.2322 3.09733C11.9693 2.43219 12.2674 1.67157 12.9037 1.38347C17.0032 -0.461156 21.6591 -0.461156 25.7586 1.38347C26.3946 1.67158 26.6928 2.43163 26.4307 3.0968L25.7133 4.95933C25.5859 5.29395 25.3313 5.55979 25.009 5.69467C24.6777 5.83354 24.3061 5.82719 23.9795 5.67707C21.0162 4.33593 17.6461 4.33593 14.6828 5.67707C14.5137 5.75417 14.3308 5.79397 14.146 5.79393ZM19.3311 1.33333C17.2964 1.32958 15.2831 1.76276 13.4185 2.60547L14.146 4.46547C17.4432 2.95835 21.2011 2.9554 24.5006 4.45733L24.5169 4.464L25.2331 2.604C23.3723 1.76147 21.3624 1.32874 19.3311 1.33333Z" fill="white"/>
<path d="M19.3308 25.9987C14.348 25.9987 10.3086 21.82 10.3086 16.6654C10.3086 11.5107 14.348 7.33203 19.3308 7.33203C24.3137 7.33203 28.353 11.5107 28.353 16.6654C28.3474 21.8176 24.3113 25.9929 19.3308 25.9987ZM19.3308 8.66536C15.0598 8.66536 11.5975 12.2471 11.5975 16.6654C11.5975 21.0836 15.0598 24.6654 19.3308 24.6654C23.6018 24.6654 27.0642 21.0836 27.0642 16.6654C27.0594 12.2491 23.5998 8.67029 19.3308 8.66536Z" fill="white"/>
<path d="M19.3313 22.668C16.128 22.668 13.5312 19.9817 13.5312 16.668C13.5312 13.3543 16.128 10.668 19.3313 10.668C22.5345 10.668 25.1313 13.3543 25.1313 16.668C25.1277 19.9802 22.533 22.6643 19.3313 22.668ZM19.3313 12.0013C16.8398 12.0013 14.8201 14.0906 14.8201 16.668C14.8201 19.2453 16.8398 21.3346 19.3313 21.3346C21.8227 21.3346 23.8424 19.2453 23.8424 16.668C23.8395 14.0919 21.8215 12.0043 19.3313 12.0013Z" fill="white"/>
<path d="M20.943 18C19.3413 18 18.043 16.6569 18.043 15C18.043 13.3431 19.3413 12 20.943 12C22.5446 12 23.843 13.3431 23.843 15C23.8412 16.6561 22.5439 17.9982 20.943 18ZM20.943 13.3333C20.0532 13.3333 19.3319 14.0795 19.3319 15C19.3319 15.9205 20.0532 16.6667 20.943 16.6667C21.8328 16.6667 22.5541 15.9205 22.5541 15C22.5532 14.0799 21.8324 13.3343 20.943 13.3333Z" fill="white"/>
<path d="M4.8649 20.6419C4.52192 20.6417 4.23912 20.3637 4.22151 20.0094C4.20391 19.6551 4.45768 19.3485 4.79885 19.3121C6.10436 19.1622 7.09143 18.0196 7.08917 16.6608C7.0869 15.302 6.09602 14.1629 4.79002 14.0178C4.62012 13.9989 4.46443 13.911 4.35725 13.7733C4.25007 13.6356 4.20019 13.4595 4.21859 13.2838C4.23478 13.107 4.3193 12.9445 4.45297 12.8331C4.58663 12.7218 4.75812 12.671 4.92851 12.6923C6.88976 12.9108 8.37677 14.6229 8.37773 16.6635C8.37869 18.7041 6.89329 20.4177 4.93225 20.6383C4.90988 20.6407 4.8874 20.6419 4.8649 20.6419Z" fill="white"/>
<path d="M33.8019 20.6403C33.7794 20.6403 33.7569 20.6391 33.7345 20.6367C31.7735 20.4161 30.2881 18.7025 30.2891 16.6619C30.29 14.6213 31.777 12.9092 33.7383 12.6907C34.0898 12.6554 34.4033 12.9194 34.4412 13.2826C34.4792 13.6458 34.2275 13.973 33.8768 14.0162C32.5708 14.1613 31.5799 15.3004 31.5776 16.6592C31.5754 18.018 32.5624 19.1607 33.8679 19.3105C34.2091 19.3469 34.4629 19.6535 34.4453 20.0078C34.4277 20.3621 34.1449 20.6401 33.8019 20.6403Z" fill="white"/>
</g>
<defs>
<clipPath id="clip0_0_7">
<rect width="38.6667" height="40" fill="white"/>
</clipPath>
</defs>
</svg>
