<svg width="88" height="88" viewBox="0 0 88 88" fill="none" xmlns="http://www.w3.org/2000/svg">
<g clip-path="url(#clip0_3677_9344)">
<path d="M83.1921 74.5004H4.58268C3.77871 74.5004 3.12695 73.8518 3.12695 73.0518V20.9006C3.1296 18.5015 5.08331 16.5573 7.49414 16.5547H20.7267C21.5307 16.5547 22.1824 17.2033 22.1824 18.0033C22.1824 18.8034 21.5307 19.452 20.7267 19.452H7.49414C6.6906 19.453 6.03945 20.101 6.03841 20.9006V71.6031H81.7363V20.9006C81.7353 20.101 81.0841 19.453 80.2806 19.452H67.048C66.244 19.452 65.5923 18.8034 65.5923 18.0033C65.5923 17.2033 66.244 16.5547 67.048 16.5547H80.2806C82.6914 16.5573 84.6451 18.5015 84.6478 20.9006V73.0518C84.6478 73.8518 83.996 74.5004 83.1921 74.5004Z" fill="white"/>
<path d="M77.3724 74.4988H10.4089C9.60488 74.4988 8.95312 73.8502 8.95312 73.0502V25.2449C8.95473 23.6455 10.2573 22.3493 11.8646 22.3477H19.3179C20.1219 22.3477 20.7736 22.9962 20.7736 23.7963C20.7736 24.5964 20.1219 25.2449 19.3179 25.2449H11.8646V71.6015H75.9167V25.2449H68.4633C67.6594 25.2449 67.0076 24.5964 67.0076 23.7963C67.0076 22.9962 67.6594 22.3477 68.4633 22.3477H75.9167C77.524 22.3493 78.8265 23.6455 78.8281 25.2449V73.0502C78.8281 73.8502 78.1764 74.4988 77.3724 74.4988Z" fill="white"/>
<path d="M80.2839 87.5327H7.4974C3.47947 87.528 0.223483 84.2879 0.21875 80.2895V74.4949C0.220355 72.8955 1.52292 71.5993 3.13021 71.5977H84.651C86.2583 71.5993 87.5609 72.8955 87.5625 74.4949V80.2895C87.5578 84.2879 84.3018 87.528 80.2839 87.5327ZM3.13021 74.4949V80.2895C3.13286 82.6886 5.08656 84.6328 7.4974 84.6354H80.2839C82.6947 84.6328 84.6484 82.6886 84.651 80.2895V74.4949H3.13021Z" fill="white"/>
<path d="M53.735 80.2895H34.0413C32.3858 80.2948 30.8711 79.3633 30.1355 77.8874L28.0287 73.6943C27.8031 73.2452 27.8271 72.7118 28.0924 72.2847C28.3577 71.8576 28.8263 71.5976 29.3309 71.5977H58.4455C58.9501 71.5976 59.4187 71.8576 59.684 72.2847C59.9492 72.7118 59.9733 73.2452 59.7476 73.6943L57.6409 77.8874C56.9053 79.3633 55.3906 80.2948 53.735 80.2895ZM31.6866 74.4949L32.7399 76.5916C32.985 77.0834 33.4897 77.3939 34.0413 77.3922H53.735C54.2867 77.3939 54.7914 77.0834 55.0365 76.5916L56.0898 74.4949H31.6866Z" fill="white"/>
<path d="M19.1432 80.2957H1.67448C0.870502 80.2957 0.21875 79.6471 0.21875 78.8471C0.21875 78.047 0.870502 77.3984 1.67448 77.3984H19.1432C19.9472 77.3984 20.599 78.047 20.599 78.8471C20.599 79.6471 19.9472 80.2957 19.1432 80.2957Z" fill="white"/>
<path d="M26.4251 80.2957H24.9694C24.1654 80.2957 23.5137 79.6471 23.5137 78.8471C23.5137 78.047 24.1654 77.3984 24.9694 77.3984H26.4251C27.2291 77.3984 27.8809 78.047 27.8809 78.8471C27.8809 79.6471 27.2291 80.2957 26.4251 80.2957Z" fill="white"/>
<path d="M86.11 80.2957H68.6413C67.8373 80.2957 67.1855 79.6471 67.1855 78.8471C67.1855 78.047 67.8373 77.3984 68.6413 77.3984H86.11C86.914 77.3984 87.5658 78.047 87.5658 78.8471C87.5658 79.6471 86.914 80.2957 86.11 80.2957Z" fill="white"/>
<path d="M62.8118 80.2957H61.3561C60.5521 80.2957 59.9004 79.6471 59.9004 78.8471C59.9004 78.047 60.5521 77.3984 61.3561 77.3984H62.8118C63.6158 77.3984 64.2676 78.047 64.2676 78.8471C64.2676 79.6471 63.6158 80.2957 62.8118 80.2957Z" fill="white"/>
<path d="M43.8906 52.7683C29.419 52.7683 17.6875 41.0939 17.6875 26.6928C17.6875 12.2916 29.419 0.617188 43.8906 0.617188C58.3622 0.617188 70.0938 12.2916 70.0938 26.6928C70.0777 41.0873 58.3556 52.7524 43.8906 52.7683ZM43.8906 3.51447C31.027 3.51447 20.599 13.8917 20.599 26.6928C20.599 39.4938 31.027 49.8711 43.8906 49.8711C56.7543 49.8711 67.1823 39.4938 67.1823 26.6928C67.1676 13.8978 56.7482 3.52908 43.8906 3.51447Z" fill="white"/>
<path d="M77.3724 65.8035H49.7135C48.9096 65.8035 48.2578 65.155 48.2578 64.3549C48.2578 63.5548 48.9096 62.9062 49.7135 62.9062H77.3724C78.1764 62.9062 78.8281 63.5548 78.8281 64.3549C78.8281 65.155 78.1764 65.8035 77.3724 65.8035Z" fill="white"/>
<path d="M38.0677 65.8035H10.4089C9.60488 65.8035 8.95312 65.155 8.95312 64.3549C8.95312 63.5548 9.60488 62.9062 10.4089 62.9062H38.0677C38.8717 62.9062 39.5234 63.5548 39.5234 64.3549C39.5234 65.155 38.8717 65.8035 38.0677 65.8035Z" fill="white"/>
<path d="M48.2611 68.7036H39.5267C37.9194 68.702 36.6168 67.4058 36.6152 65.8063V62.909C36.6168 61.3095 37.9194 60.0133 39.5267 60.0117H48.2611C49.8684 60.0133 51.1709 61.3095 51.1725 62.909V65.8063C51.1709 67.4058 49.8684 68.702 48.2611 68.7036ZM39.5267 62.909V65.8063H48.2633L48.2611 62.909H39.5267Z" fill="white"/>
<path d="M43.8874 62.9089C43.0834 62.9089 42.4316 62.2603 42.4316 61.4602V51.3197C42.4316 50.5197 43.0834 49.8711 43.8874 49.8711C44.6913 49.8711 45.3431 50.5197 45.3431 51.3197V61.4602C45.3431 62.2603 44.6913 62.9089 43.8874 62.9089Z" fill="white"/>
<path d="M59.7155 47.0742C59.3996 47.0746 59.0923 46.972 58.8406 46.7822L58.6387 46.6308C56.7722 45.4035 55.1616 43.8288 53.8955 41.9934C52.668 40.1034 52.4905 37.722 53.4243 35.6725C53.9425 34.737 54.6025 33.8864 55.381 33.1509C55.9011 32.654 56.3621 32.0994 56.755 31.4978C59.1901 27.2639 59.5312 22.1502 57.6798 17.6331C56.7842 15.7013 54.5366 14.3969 50.6102 13.5334C49.9899 13.4074 49.3629 13.3162 48.7323 13.2603C47.5664 13.1818 46.4159 12.9511 45.3104 12.5743C41.5532 11.156 40.2381 7.53297 41.4031 1.80704C41.4985 1.29222 41.8656 0.868673 42.3634 0.699164C42.8611 0.529655 43.412 0.640558 43.8044 0.989254C44.1967 1.33795 44.3695 1.87019 44.2564 2.38143C43.1226 7.95597 44.9053 9.32263 46.3447 9.86587C47.221 10.1493 48.1296 10.3221 49.0492 10.38C49.7867 10.447 50.5198 10.5557 51.2449 10.7055C54.3149 11.381 58.6032 12.71 60.3254 16.4229C62.5504 21.7984 62.1631 27.8942 59.2756 32.948C58.7708 33.7527 58.1695 34.4933 57.485 35.1535C56.9134 35.6874 56.422 36.3004 56.0258 36.9735C55.5501 38.136 55.6868 39.4578 56.3904 40.4996C57.4732 42.0085 58.8297 43.303 60.3901 44.3164L60.5939 44.4693C61.0936 44.8445 61.2964 45.4957 61.0973 46.0864C60.8982 46.677 60.3415 47.0748 59.7155 47.0742Z" fill="white"/>
<path d="M47.0805 31.9208C46.7089 31.9218 46.3382 31.8822 45.9752 31.8026C43.7317 31.145 42.1604 29.1357 42.0708 26.81C41.8527 24.7566 42.4618 22.701 43.7647 21.0939C45.442 19.2849 48.0661 18.6912 50.3645 19.6008C51.856 20.3383 52.9852 21.6436 53.4962 23.221C54.0319 24.8465 53.8853 26.6185 53.0896 28.1349C52.3694 29.4963 51.229 30.5917 49.8364 31.2599C48.9798 31.6847 48.0375 31.9106 47.0805 31.9208ZM48.2789 22.0292C47.4025 22.0476 46.5666 22.4002 45.9439 23.0143C45.1808 24.0165 44.8318 25.2712 44.9686 26.5213C45.0753 27.5852 45.6236 28.7558 46.6084 28.9744C47.2772 29.0862 47.9642 28.9737 48.5617 28.6547C49.3906 28.2614 50.0708 27.6138 50.5024 26.8071C50.9383 25.9782 51.0198 25.0094 50.7285 24.1199C50.4565 23.2805 49.8557 22.5859 49.0622 22.1932C48.8172 22.0794 48.5492 22.0229 48.2789 22.0292Z" fill="white"/>
<path d="M38.652 52.2219C38.1789 52.2211 37.7355 51.9919 37.463 51.607C37.1904 51.2222 37.1225 50.7296 37.2808 50.286C38.7082 46.3022 38.6847 42.7775 37.2169 40.857C36.7511 40.2458 36.1834 40.0797 35.0462 39.7897L34.469 39.6397C31.4902 38.8032 29.2908 36.2924 28.8644 33.2418C28.2115 29.7918 29.5747 26.271 32.3849 24.1488C32.8158 23.8549 33.2621 23.5841 33.722 23.3376C34.1995 23.092 34.6533 22.8031 35.0774 22.4746C35.842 21.7792 36.3043 20.8148 36.3665 19.7859C36.4592 19.014 36.2347 18.2376 35.7439 17.6328C34.8809 16.6651 33.5424 16.6595 31.4371 16.7636C30.7653 16.7962 30.068 16.8295 29.3963 16.7997C26.911 16.6738 24.4822 16.0166 22.275 14.8727C21.5609 14.5047 21.2819 13.6303 21.6517 12.9196C22.0215 12.209 22.9002 11.9313 23.6143 12.2993C25.4477 13.2522 27.4662 13.8001 29.5319 13.9057C30.0933 13.932 30.6861 13.9001 31.2911 13.8704C33.4207 13.7671 36.0684 13.6334 37.9208 15.7102C38.9378 16.898 39.4249 18.4467 39.2698 19.9996C39.1504 21.8069 38.3174 23.4938 36.9526 24.692C36.3904 25.1408 35.7855 25.5338 35.1465 25.8654C34.7745 26.0636 34.4134 26.2812 34.0646 26.5173C32.1652 27.9871 31.2627 30.3984 31.7332 32.7465C31.9882 34.6807 33.36 36.2859 35.2374 36.847L35.7683 36.9849C37.2428 37.2082 38.5834 37.9632 39.5349 39.1062C42.5111 43.0009 40.8678 48.9037 40.0233 51.2613C39.8157 51.8374 39.267 52.2218 38.652 52.2219Z" fill="white"/>
</g>
<defs>
<clipPath id="clip0_3677_9344">
<rect width="87.3438" height="86.9186" fill="white" transform="translate(0.21875 0.617188)"/>
</clipPath>
</defs>
</svg>
