<svg width="88" height="88" viewBox="0 0 88 88" fill="none" xmlns="http://www.w3.org/2000/svg">
<g clip-path="url(#clip0_3677_9370)">
<path d="M74.1706 54.9408H19.5807C9.12903 54.9408 0.65625 46.5093 0.65625 36.1085C0.65625 25.7076 9.12903 17.2761 19.5807 17.2761C19.7045 17.2761 19.8273 17.2768 19.9489 17.2796C23.4204 9.35892 31.2785 4.23828 39.962 4.23828C48.6455 4.23828 56.5036 9.35892 59.975 17.2796C66.5651 17.4274 72.4566 21.4043 75.0314 27.4428C82.4902 27.9017 88.2335 34.1741 88.0008 41.6072C87.7682 49.0403 81.6436 54.9449 74.1706 54.9408ZM19.5807 20.1734C10.737 20.1734 3.56771 27.3078 3.56771 36.1085C3.56771 44.9092 10.737 52.0435 19.5807 52.0435H74.1706C80.2004 52.0435 85.0886 47.1792 85.0886 41.1787C85.0886 35.1782 80.2004 30.3139 74.1706 30.3139H74.025C73.4079 30.3139 72.8579 29.9267 72.6524 29.3476C70.6926 23.8166 65.4221 20.1322 59.5287 20.1734C59.3865 20.1734 59.2451 20.1741 59.1036 20.184C58.465 20.2244 57.8735 19.8487 57.6415 19.2552C54.842 11.95 47.7973 7.12628 39.9406 7.1351C32.084 7.14391 25.0502 11.9834 22.2673 19.2949C22.0351 19.9094 21.416 20.2911 20.7597 20.2244C20.3678 20.1877 19.9743 20.1707 19.5807 20.1734Z" fill="#05092B"/>
<path d="M10.5098 44.8023C10.0704 44.803 9.65432 44.6056 9.37829 44.2654C6.85631 41.1587 5.90926 37.0708 6.80985 33.1789C7.71044 29.2869 10.3587 26.0229 13.9921 24.3267C14.7191 23.9849 15.587 24.2943 15.9305 25.0178C16.274 25.7413 15.963 26.6049 15.236 26.9467C11.6769 28.6267 9.40274 32.1904 9.38819 36.1104C9.37925 38.4167 10.1752 40.6546 11.6401 42.4418C11.9931 42.8757 12.0643 43.4728 11.823 43.9768C11.5817 44.4807 11.0708 44.8019 10.5098 44.8023Z" fill="#05092B"/>
<path d="M25.4066 46.251C24.9387 46.2503 24.4996 46.0262 24.2261 45.6484C23.9526 45.2706 23.878 44.7851 24.0255 44.3433L29.8485 26.9595C30.1028 26.2005 30.9274 25.7904 31.6901 26.0436C32.4528 26.2967 32.8649 27.1172 32.6106 27.8762L26.7876 45.26C26.5897 45.8517 26.0333 46.2509 25.4066 46.251Z" fill="#05092B"/>
<path d="M37.0467 46.251C36.42 46.2509 35.8637 45.8517 35.6657 45.26L29.8428 27.8762C29.5884 27.1172 30.0005 26.2967 30.7632 26.0436C31.5259 25.7904 32.3505 26.2005 32.6049 26.9595L38.4278 44.3433C38.5753 44.7851 38.5007 45.2706 38.2272 45.6484C37.9537 46.0262 37.5146 46.2503 37.0467 46.251Z" fill="#05092B"/>
<path d="M34.6164 39.0028H27.8327C27.0287 39.0028 26.377 38.3542 26.377 37.5541C26.377 36.754 27.0287 36.1055 27.8327 36.1055H34.6164C35.4204 36.1055 36.0721 36.754 36.0721 37.5541C36.0721 38.3542 35.4204 39.0028 34.6164 39.0028Z" fill="#05092B"/>
<path d="M41.4167 46.2498C40.6127 46.2498 39.9609 45.6012 39.9609 44.8011V27.4174C39.9609 26.6173 40.6127 25.9688 41.4167 25.9688C42.2206 25.9688 42.8724 26.6173 42.8724 27.4174V44.8011C42.8724 45.6012 42.2206 46.2498 41.4167 46.2498Z" fill="#05092B"/>
<path d="M47.2396 37.5579H41.4167C40.6127 37.5579 39.9609 36.9093 39.9609 36.1093V27.4174C39.9609 26.6173 40.6127 25.9688 41.4167 25.9688H47.2396C50.4555 25.9688 53.0625 28.5631 53.0625 31.7633C53.0625 34.9636 50.4555 37.5579 47.2396 37.5579ZM42.8724 34.6606H47.2396C48.8475 34.6606 50.151 33.3635 50.151 31.7633C50.151 30.1632 48.8475 28.866 47.2396 28.866H42.8724V34.6606Z" fill="#05092B"/>
<path d="M58.8854 46.2498C58.0814 46.2498 57.4297 45.6012 57.4297 44.8011V27.4174C57.4297 26.6173 58.0814 25.9688 58.8854 25.9688C59.6894 25.9688 60.3411 26.6173 60.3411 27.4174V44.8011C60.3411 45.6012 59.6894 46.2498 58.8854 46.2498Z" fill="#05092B"/>
<path d="M63.2526 28.866H54.5182C53.7143 28.866 53.0625 28.2175 53.0625 27.4174C53.0625 26.6173 53.7143 25.9688 54.5182 25.9688H63.2526C64.0566 25.9688 64.7083 26.6173 64.7083 27.4174C64.7083 28.2175 64.0566 28.866 63.2526 28.866Z" fill="#05092B"/>
<path d="M63.2526 46.2488H54.5182C53.7143 46.2488 53.0625 45.6003 53.0625 44.8002C53.0625 44.0001 53.7143 43.3516 54.5182 43.3516H63.2526C64.0566 43.3516 64.7083 44.0001 64.7083 44.8002C64.7083 45.6003 64.0566 46.2488 63.2526 46.2488Z" fill="#05092B"/>
<path d="M35.663 83.916C35.2959 83.9156 34.9328 83.8403 34.5961 83.6946L25.4885 79.9371C24.8172 79.6613 24.2852 79.129 24.0115 78.4595C23.7412 77.7989 23.7529 77.0571 24.0441 76.4053L26.2132 71.1873C24.0787 69.5718 22.1741 67.6758 20.5516 65.5511L15.261 67.7255C14.602 67.9996 13.8599 67.9983 13.2019 67.722C12.5442 67.4519 12.0208 66.9336 11.7461 66.2805L7.97435 57.1747C7.40295 55.8243 8.03351 54.2681 9.3864 53.6897L14.5448 51.574C15.0259 51.3769 15.5761 51.4501 15.9881 51.7662C16.4002 52.0822 16.6116 52.593 16.5425 53.1062C16.4735 53.6193 16.1347 54.0569 15.6536 54.254L10.7462 56.2651L14.3513 64.9648L20.4962 62.4395C21.126 62.1814 21.8515 62.392 22.2431 62.9466C24.0377 65.4974 26.2672 67.7158 28.8307 69.5012C29.3903 69.8904 29.6026 70.6145 29.3411 71.2421L26.8049 77.3436L35.5408 80.9476L38.0791 74.8424C38.3403 74.214 39.0055 73.8509 39.6784 73.9696C42.7541 74.5149 45.9029 74.5106 48.9771 73.9568C49.6503 73.8374 50.3166 74.199 50.58 74.8269L53.1318 80.9425L61.8555 77.3429L59.3179 71.2264C59.0569 70.597 59.2717 69.8716 59.834 69.4836C62.3983 67.7071 64.6269 65.4934 66.4168 62.9448C66.8081 62.3898 67.5344 62.1798 68.1637 62.4398L74.3068 64.9693L77.9316 56.2711L74.4274 54.8195C73.7699 54.5747 73.3819 53.8975 73.5051 53.2098C73.6282 52.522 74.2273 52.0199 74.9293 52.0161C75.1259 52.016 75.3207 52.0537 75.503 52.1271L79.2442 53.6771C79.91 53.9477 80.4374 54.4748 80.7064 55.1385C80.9759 55.7951 80.9741 56.5309 80.7014 57.1862L76.9142 66.275C76.641 66.9396 76.1105 67.4668 75.4424 67.738C74.7742 68.0091 74.0246 68.0014 73.3622 67.7165L68.107 65.5519C66.4873 67.6753 64.5832 69.5681 62.4476 71.1775L64.6297 76.4381C64.9104 77.0817 64.917 77.811 64.6482 78.4597C64.374 79.131 63.8399 79.6643 63.1663 79.9394L54.0445 83.7032C53.3839 83.9786 52.64 83.9795 51.9786 83.7058C51.3173 83.4321 50.7934 82.9065 50.5239 82.2461L48.3324 76.9933C45.6786 77.3617 42.9865 77.3655 40.3316 77.0046L38.1494 82.2525C37.7358 83.2567 36.7537 83.9134 35.663 83.916Z" fill="#05092B"/>
<path d="M44.3283 67.9784C35.2909 67.9427 27.1995 62.3981 23.9424 54.009C23.7513 53.5244 23.8363 52.9749 24.1649 52.5699C24.4936 52.1648 25.0154 51.9664 25.5318 52.0502C26.0481 52.1339 26.4796 52.487 26.662 52.975C29.4587 60.2652 36.4867 65.0813 44.3283 65.0813C52.1698 65.0813 59.1978 60.2652 61.9946 52.975C62.1769 52.487 62.6084 52.1339 63.1248 52.0502C63.6411 51.9664 64.1629 52.1648 64.4916 52.5699C64.8203 52.9749 64.9052 53.5244 64.7141 54.009C61.4571 62.3981 53.3656 67.9427 44.3283 67.9784Z" fill="#05092B"/>
<path d="M28.3148 21.6211C27.8469 21.6205 27.4078 21.3963 27.1343 21.0185C26.8608 20.6407 26.7862 20.1553 26.9337 19.7134C30.1401 10.1416 38.1651 10.0313 38.5049 10.0313C39.3089 10.0293 39.9622 10.6763 39.9642 11.4763C39.9662 12.2764 39.316 12.9266 38.512 12.9285C38.2298 12.9327 32.2135 13.1131 29.6958 20.6301C29.4979 21.2218 28.9415 21.6211 28.3148 21.6211Z" fill="#05092B"/>
</g>
<defs>
<clipPath id="clip0_3677_9370">
<rect width="87.3438" height="86.9186" fill="white" transform="translate(0.65625 0.617188)"/>
</clipPath>
</defs>
</svg>
